<?xml version="1.0" encoding="UTF-8"?>
<svg id="_レイヤー_2" data-name="レイヤー 2" xmlns="http://www.w3.org/2000/svg" xmlns:xlink="http://www.w3.org/1999/xlink" viewBox="0 0 456.21 151.41">
  <defs>
    <style>
      .cls-1 {
        fill: #e3886f;
        font-size: 9.06px;
      }

      .cls-1, .cls-2, .cls-3 {
        font-weight: 700;
      }

      .cls-1, .cls-3 {
        font-family: NotoSansJP-Bold, 'Noto Sans JP';
        font-variation-settings: 'wght' 700;
      }

      .cls-4, .cls-5, .cls-6, .cls-7, .cls-8 {
        stroke: #231815;
        stroke-linecap: round;
        stroke-linejoin: round;
        stroke-width: .74px;
      }

      .cls-4, .cls-3 {
        fill: #fff;
      }

      .cls-5, .cls-9, .cls-10, .cls-11 {
        fill: none;
      }

      .cls-6 {
        fill: #fabe00;
      }

      .cls-12 {
        clip-path: url(#clippath-1);
      }

      .cls-2 {
        fill: #3e3a39;
        font-family: GothicMB101Pro-DeBold-90ms-RKSJ-H, 'A-OTF Gothic MB101 Pro';
        font-size: 8.76px;
      }

      .cls-13 {
        letter-spacing: -.48em;
      }

      .cls-14 {
        letter-spacing: -.19em;
      }

      .cls-10 {
        font-family: ShinMGoPro-Regular-90ms-RKSJ-H, 'A-OTF Shin Maru Go Pro';
        font-size: 8px;
      }

      .cls-15 {
        fill: #231815;
      }

      .cls-3 {
        font-size: 17px;
      }

      .cls-7 {
        fill: #9fa0a0;
      }

      .cls-16 {
        letter-spacing: -.25em;
      }

      .cls-17 {
        fill: #35992d;
      }

      .cls-8 {
        fill: #d9d9d9;
      }

      .cls-11 {
        stroke: #2d476b;
        stroke-miterlimit: 10;
      }

      .cls-18 {
        clip-path: url(#clippath-2);
      }

      .cls-19 {
        letter-spacing: .02em;
      }

      .cls-20 {
        clip-path: url(#clippath);
      }

      .cls-21 {
        letter-spacing: -.44em;
      }
    </style>
    <clipPath id="clippath">
      <circle class="cls-9" cx="396.54" cy="59.67" r="59.67"/>
    </clipPath>
    <clipPath id="clippath-1">
      <rect class="cls-9" x="343.07" y="70.21" width="36.49" height="64.08"/>
    </clipPath>
    <clipPath id="clippath-2">
      <rect class="cls-9" x="301.04" y="70.21" width="39.56" height="64.08"/>
    </clipPath>
  </defs>
  <g id="_レイヤー_1-2" data-name="レイヤー 1">
    <text class="cls-2" transform="translate(28.68 80.27)"><tspan x="0" y="0">草刈り・清掃・フェンス補修など、管理委託費が積み重なる・・</tspan><tspan class="cls-16" x="254.15" y="0">・</tspan><tspan x="0" y="17.34">賃貸経営をしてみたいけど、どうすればいいの？</tspan><tspan x="0" y="34.67">草木が伸び放題で近隣から苦情が・・</tspan><tspan class="cls-16" x="148.98" y="34.67">・</tspan><tspan x="0" y="52.01">空き地がゴミ捨て場や、たまり場になり治安面が不安・・</tspan><tspan class="cls-16" x="227.86" y="52.01">・</tspan></text>
    <rect class="cls-11" x="11.93" y="71.05" width="11.49" height="11.49"/>
    <text class="cls-1" transform="translate(14.27 80.02)"><tspan x="0" y="0">✓</tspan></text>
    <rect class="cls-11" x="11.93" y="88.49" width="11.49" height="11.49"/>
    <text class="cls-1" transform="translate(14.27 97.45)"><tspan x="0" y="0">✓</tspan></text>
    <rect class="cls-11" x="11.93" y="105.92" width="11.49" height="11.49"/>
    <text class="cls-1" transform="translate(14.27 114.88)"><tspan x="0" y="0">✓</tspan></text>
    <rect class="cls-11" x="11.93" y="123.35" width="11.49" height="11.49"/>
    <text class="cls-1" transform="translate(14.27 132.32)"><tspan x="0" y="0">✓</tspan></text>
    <rect class="cls-17" y="2.77" width="317.11" height="56.9"/>
    <text class="cls-10" transform="translate(9.93 73.39)"><tspan class="cls-21" x="0" y="0">・・</tspan><tspan class="cls-14" x="8.96" y="0">・</tspan></text>
    <text class="cls-3" transform="translate(3.02 25.4)"><tspan class="cls-19" x="0" y="0">「眠っている土地についても</tspan><tspan class="cls-13" x="225.42" y="0">、</tspan><tspan class="cls-19" x="8.5" y="23.75">建てる・活かす、ご相談承ります！</tspan><tspan class="cls-13" x="285.94" y="23.75">」</tspan></text>
    <g class="cls-20">
     <image width="4576" height="3056" transform="translate(326.1 -2.93) scale(.04)" href="https://github.com/KoufukuHome/Akiyakatori/blob/main/%E8%8D%92%E5%9C%B0.jpg?raw=true"/>
    </g>
    <g class="cls-12">
      <g>
        <path class="cls-6" d="M375.43,99.5c-.18-.41-.79-1.04-1.14-1.26-.39-.24-1.02-.49-1.76-.73-.64-.25-1.24-.41-1.57-.46-2.46-.66-5.23-1.18-5.25-1.18-3.8-.38-6.85-.72-8.2-.34-1.41.4-4.03,1-5.98,1.66-1.66.63-3.75,1.3-4.58,2.4-3.05,4.06-1.69,19.45-.31,22.94.36.9.66.82,1.6,1.27.16,4.13.21,11.81.06,12.1-.18.36,6.97.9,12.26,1.06,6.93.2,14.28-.94,14.28-.94,0,0-.64-13.71-.39-14.07,2.09-3.02,3.93-18.23.98-22.44Z"/>
        <path class="cls-4" d="M354.31,96.75s1.35,7.43,2.21,10.2c.86,2.76,3.93,18.77,3.93,18.77,0,0,3.38-15.08,4.74-18.7,1.35-3.62,2.26-10.64,2.26-10.64l-13.13.38Z"/>
        <path class="cls-4" d="M364.26,90.99s-.31,4.39.86,6.19c1.17,1.8-.39,1.69-.39,1.69l-4.66,3.01-3.22-2.87s-1.94-.03-.68-2.45c1.26-2.42,1.58-5.2,1.58-5.2"/>
        <path class="cls-4" d="M361.23,128.36c0,.48-.39.88-.88.88s-.88-.39-.88-.88.39-.88.88-.88.88.39.88.88Z"/>
        <path class="cls-4" d="M355.54,115.57c2.03-.11,2.85,1.29,3,.85.15-.44.99-2.97.99-2.97-2.61-2.03-3.19-2.68-5.05-2.97-1.12-.18-1.84-.06-2.87.44.23.96,1.22,4.4,1.22,4.4,0,0,1.82.31,2.71.26Z"/>
        <path class="cls-4" d="M367.71,109.46s1.9-.92,3.35-.73c1.45.19,2.95.27,2.59,1.18-.15.37-1.76.15-1.76.15,0,0,2.72.54,2.26,1.23-.46.68-2.57.22-2.57.22,0,0,2.2.94,1.8,1.43-.64.77-2.67.07-2.52.02,0,0,2.09,1.01,1.67,1.44-.59.62-1.71.14-2.55-.02-.78-.14-2.29.34-2.63.58-.34.24-4.5-1.26-4.5-1.26,0,0,2.61-3.26,4.87-4.25Z"/>
        <line class="cls-5" x1="351.14" y1="115.97" x2="353.49" y2="115.46"/>
        <path class="cls-5" d="M361.57,119.64c-4.85,2.15-13.73,5.68-14.73,3.17"/>
        <line class="cls-5" x1="350.56" y1="107.09" x2="352.83" y2="115.31"/>
        <path class="cls-4" d="M370.93,112.97c-.56-.31-1.58-.31-2.6-.29"/>
        <path class="cls-4" d="M371.4,111.47c-.77-.35-2.38-.35-2.95-.27"/>
        <path class="cls-4" d="M371.74,110.02c-.58-.13-2.04-.05-2.66-.01"/>
        <polyline class="cls-4" points="360.2 112.85 358.36 111.98 356.46 117.55 358.2 118.1"/>
        <path class="cls-6" d="M369.56,115.36c-.29.15-9.49-3.2-9.78-3.13-.29.07-2.32,6.48-2.32,6.48,0,0,14.86,6.3,16.99,3.22"/>
        <path class="cls-6" d="M370.1,108.5c.15-.1.77-1.89.77-1.89"/>
        <path class="cls-4" d="M360.06,101.89l2.96-1.54,4.01,3.49c.13.13.5-3.19.69-5.3.13-1.43-.24-3.27-.27-3.28l-1.73-1.4s-1.66,2.7-2.4,3.4c-.73.7-3.26,4.62-3.26,4.62Z"/>
        <path class="cls-4" d="M360.06,101.89l-2.99-1.47-3.1,2.69c-.05.02-.61-2.24-.17-4.21.33-1.46,1.06-3.21,1.09-3.22l1.04-.52s1.4,2.37,2.1,3.11c.69.74,2.04,3.62,2.04,3.62Z"/>
        <path class="cls-7" d="M357.65,76.18s-.24,1.65-1.58,3.28c-1.38,1.69-1.49,4.57-1.49,4.57,0,0-1.99-4.44-.43-7.32,1.56-2.87,2.89-1.6,3.49-.53Z"/>
        <path class="cls-5" d="M354.36,77.39c.73.27,2.02.97,2.1,1.16"/>
        <line class="cls-5" x1="354.04" y1="78.92" x2="355.57" y2="79.53"/>
        <path class="cls-4" d="M355.8,78.72c-.89,1.83-1.27,5.74-1.72,8.52-1.09,6.8,1.03,8.8,5.42,9.77,3.68.81,7.24-1.61,9.55-5.85,1.15-2.11,2.5-6.65,2.83-9.37.42-3.45-1.96-6.28-8.5-7.28-4.11-.63-5.97.9-7.58,4.2Z"/>
        <path class="cls-4" d="M359,84.69c-1.36,2.01-1.89,3.65-1.89,3.99,0,.34,1.64.84,1.64.84"/>
        <path class="cls-15" d="M357.47,84.26c-.05.31-.33.52-.64.48-.31-.05-.52-.33-.48-.64.05-.31.33-.52.64-.48.31.05.52.33.48.64Z"/>
        <path class="cls-15" d="M363.58,85.28c-.05.31-.33.52-.64.48s-.52-.33-.48-.64c.05-.31.33-.52.64-.48.31.05.52.33.48.64Z"/>
        <path class="cls-7" d="M357.53,76.09c1.1-.5.78,2.62,4.32,2.79,2.63.12,6.17-1.21,6.65.48.25.89-1.74,3.97-1.68,5.13.12,2.23.13,4.96.02,4.93-.03,0,.62.45,1.39.14.94-2.34,1.52-1.95,2.46-1.98,3.52-.13,4.08-9.5-.18-12.47-4.51-3.14-9.03-3.52-11.56-2.08-2.53,1.44-1.43,3.06-1.43,3.06Z"/>
        <path class="cls-5" d="M367.64,78.02c.88-1.25,2.28-1.81,2.89-1.85"/>
        <path class="cls-5" d="M365.41,78.16s1.31-3.09,3.59-3.58"/>
        <path class="cls-5" d="M368.64,82.41c.97-.4,3.53.14,4.09.45"/>
        <path class="cls-5" d="M359.85,77.58c-.06-1.75,1.49-4.66,2.89-5.13"/>
        <path class="cls-7" d="M355.35,91.05c.08-.16.65-1.8,1.7-1.7,1.04.09,1.75.5,2.3.48.55-.02,1.77-.08,2.35.41.58.49,1.1,2.26.86,2.62-.24.36-2.26-1.16-3.63-1.53-1.37-.36-3.25.69-3.42.62-.23-.08-.41-.39-.15-.9Z"/>
        <path class="cls-4" d="M369.79,87.37c1.42-.12,2.71.86,2.29,2.06-.42,1.2-2.06,2.01-3.35,1.34"/>
        <path class="cls-4" d="M369.1,89.47c.25-.45.66-.53.99-.57"/>
        <path class="cls-4" d="M363.66,92.23c.13.36.27,1.36.18,1.57"/>
        <path class="cls-5" d="M367.9,84.99c.42-.08,3.34.44,3.88.75"/>
        <line class="cls-4" x1="363.66" y1="80.24" x2="365" y2="81.24"/>
        <path class="cls-4" d="M357.6,92.78c1.1-.3,2.35,0,3.19.78"/>
      </g>
    </g>
    <g class="cls-18">
      <g>
        <path class="cls-6" d="M311,89.29c-2.52,1.7-5.66,7.06-3.09,9.7,2.56,2.63,1.81,3.31,1.22,4.91-.59,1.6.22,3.45,1.72,3.75,1.5.3,1.18-2.75,2.7-3.75,1.33-.88,2.28-2.99,2.15-4.07-.27-2.18-2.2-4.1-2.33-6.35-.13-2.25-.16-3.97-.16-3.97"/>
        <path class="cls-5" d="M311.89,94.82c-1.18,1.07-.74,2.23.1,3.55,1.26,1.97,1.27,2.37.94,3.06"/>
        <path class="cls-8" d="M318.56,130.66c.12-1.56.26-4.57.11-6.85-.68-10.28-2.32-17.89-4.18-22.88,1.93-.12,10.06-.63,12.53-.8,1.7,5.78-.4,19.59-.4,19.59,0,0,.47,6.02.89,10.51-2.26.68-5.58,1.13-8.96.43Z"/>
        <path class="cls-4" d="M316.64,92.94s1.65,4.82.58,6.42c-.49.74-2.09,1.32-2.09,1.32,0,0,1.37,2.39,3.04,3.93,1.4,1.29,2.86,1.74,3.93,1.6.96-.13,1.76-1,2.27-1.72,1.14-1.58,1.9-4.18,1.9-4.18,0,0-1.78.61-2.65-1.27-1.09-2.37-.46-6.22-.46-6.22"/>
        <path class="cls-4" d="M337.44,113.71c-.15-.29-6.24-12.22-6.24-12.22-.72-1.14-1.44-1.6-3.81-1.41-.22.02.41,0-.37.06.69,2.35-.61,7.19-1.05,8.93-.86,2.8-1.99,5.08-3.31,4.74-1.98-.51-4.92-4.49-6.21-7.89-.76-2.05-1.3-3.55-1.6-5.16-.83.19-2.34.49-2.85.78-1.4.81-3.05,6.26-2.64,7.9,1.32,5.29,3.63,13.28,3.31,15.7-.07.26-3.97,10.41-3.97,10.41,0,0,5.62.64,9.35.36,0-.03,6.78-.41,9.31-.53,0,0,5.35-.46,5.24-.69-.18-.35-2.54-10.55-2.44-12.61.09-1.72-.04-2.32.56-4.88,0,0,2.28,5.47,6.58,3.41,1.57-.75,2.01-3.22.14-6.88Z"/>
        <path class="cls-4" d="M312.53,115l-2.91,4.83s.63.48,1.49,1.12c-.33,1.54-1.27,3.18-2.4,4.2-2.2-1.21-5.08-2.96-5.97-3.83-.9-.88.54-3.3,1.72-6.46,1.93-5.2,2.48-6.62,2.95-8.18.77-2.55,3.16-4.7,4.62-5.15"/>
        <path class="cls-6" d="M309.62,119.83c-.21-.07-1.35-.96-1.35-.96"/>
        <path class="cls-6" d="M332.5,108.55s2.48,2.71,2.39,2.71"/>
        <path class="cls-4" d="M330.72,117.18c-.64-1.11-1.7-4.14-2.3-5.48"/>
        <g>
          <path class="cls-4" d="M310.24,131.03c.6-.19,1.37-.03,1.37-.03,0,0-.57-.57-.16-.92.3-.25,1.04-.14,1.42-.06-.03-.37-.06-.69-.07-.91-.07-.86.43-1.58.43-1.58,0,0-2.17-1.09-4.53-2.39,1.14-1.02,2.08-2.66,2.4-4.2,1.48,1.1,3.75,2.82,4.52,3.4,1.36,1.03,1.02,2.39.9,3.55-.17,1.65-1.36,3.94-2.29,4.73-.42.35-.86.3-1.19.16,0,0-2.33-.73-2.71-.83-.38-.1-.7-.73-.1-.92Z"/>
          <path class="cls-4" d="M312.87,130.02c.14.79.17,1.52.17,1.52"/>
          <line class="cls-4" x1="312.89" y1="131.16" x2="311.61" y2="131"/>
        </g>
        <path class="cls-4" d="M325.6,80.1c.93,1.79,1.39,4.14,2.15,6.83,1.15,4.09-.39,8.92-4.49,9.85-3.81.86-7.69-.96-10.01-3.67-1.55-1.81-3.31-5.7-3.34-8.42-.03-2.73,3.93-8.33,8.03-8.84,4.01-.5,5.97,1.02,7.66,4.26Z"/>
        <path class="cls-6" d="M324.48,78.07c.07.13-2.06-1.43-3.23-.8-.91.49-1.48,1.92-1.48,1.92-.87.09-3.38-.57-5.68,1.23-2.36,1.84.35,6.92-.97,10.19-.69,1.71-2.2,1.22-2.2,1.22,0,0-8.26-5.5-2.93-13.46,1.53-2.29,5.53-4.09,8.9-4.2,3.04-.1,5.97,1.12,7.57,3.89Z"/>
        <path class="cls-15" d="M316.97,87.95c0,.33.25.6.58.61.33,0,.6-.25.61-.58,0-.33-.25-.6-.58-.61-.33,0-.6.25-.61.58Z"/>
        <path class="cls-15" d="M323.51,85.26c0,.33.25.6.58.61.33,0,.6-.25.61-.58,0-.33-.25-.6-.58-.61-.33,0-.6.25-.61.58Z"/>
        <path class="cls-4" d="M322.92,86.84c1.4,1.22,1.76,1.67,1.88,2,.12.33-1.15,1.18-1.15,1.18"/>
        <path class="cls-4" d="M313.5,89.99c-2.09-.56-2.87,1.5-2.25,2.61.62,1.1,2.38,1.44,3.54.79"/>
        <path class="cls-4" d="M312.74,91.81c.38-.15.77.03,1.12.23"/>
        <path class="cls-5" d="M316.95,77.97c-1.66-1.5-3.34-1.5-5.02-1"/>
        <path class="cls-5" d="M312.29,80.7c-1.34.2-3.5,1.3-4.21,2.33"/>
        <path class="cls-5" d="M319.44,77.42c.1-.41-.05-1.56-.67-2.09"/>
        <path class="cls-5" d="M311.58,86.13c-1.03.69-2.27,1.61-2.27,1.61"/>
        <path class="cls-4" d="M319.82,92.65c-.26.45-.15,1.03-.15,1.03"/>
        <line class="cls-4" x1="315.1" y1="82.89" x2="316.38" y2="81.77"/>
        <path class="cls-4" d="M322.11,93.65c.24-.67,2.02-1.49,2.7-1.29"/>
        <g>
          <path class="cls-4" d="M330.25,91.32c.13-.5-.81-.59-1.06-.13-.74,1.34-1.12,4.49-1.33,4.52-.2.03-.82-1.15-1.4-.98-.51.15-.58,1.57-.95,1.37,0,0-.55-.46-.82-.42-.48.06-.26,1.27-.26,1.27,0,0-.99-.65-1.1-.01-.07.42-.36,1.41-.18,1.92.11.3.66.46.91.59-.13.27-.35,1.36.16,2.3.45.82.81.92,1.16,1l3.04,8.97s0,0,.02,0c.17.02,1.51.12,3.06-.86,1.67-1.05,1-2.29,1-2.29l-4.27-6.01s.42-2.4.54-3.1c.12-.7.33-1.84.42-2.22.37-1.47.64-4.31,1.06-5.9"/>
          <line class="cls-4" x1="327.28" y1="97.16" x2="325.75" y2="96.21"/>
          <line class="cls-4" x1="327.07" y1="96.99" x2="326.72" y2="96.19"/>
          <path class="cls-4" d="M325.75,97.63s-1.41-.7-1.33-.69"/>
          <line class="cls-4" x1="324.62" y1="98.55" x2="324.06" y2="99.44"/>
          <line class="cls-4" x1="325.05" y1="98.8" x2="324.18" y2="98.29"/>
        </g>
      </g>
    </g>
  </g>
</svg>
