<?xml version="1.0" encoding="UTF-8"?>
<svg id="_レイヤー_2" data-name="レイヤー 2" xmlns="http://www.w3.org/2000/svg" viewBox="0 0 1153.74 184.26">
  <defs>
    <style>
      .cls-1 {
        fill: #f8b62d;
      }

      .cls-2 {
        fill: #fff;
      }

      .cls-3 {
        fill: #008cd6;
      }

      .cls-4 {
        fill: #595757;
      }

      .cls-5, .cls-6 {
        fill: #004ea2;
      }

      .cls-6 {
        stroke: #004ea2;
        stroke-miterlimit: 10;
        stroke-width: 1.1px;
      }
    </style>
  </defs>
  <g id="_レイヤー_1-2" data-name="レイヤー 1">
    <g>
      <polygon class="cls-5" points="105.56 33.06 105.49 33.1 105.28 32.99 105.56 33.06"/>
      <g>
        <path class="cls-5" d="M112.32,33.1L18.06,87.29c-1.24.71-2,2.03-2,3.45v75.46c0,1.1.89,1.99,1.99,1.99h31.98l-16.07,16.07H5.97c-3.3,0-5.97-2.67-5.97-5.97v-95.67c0-2.14,1.14-4.11,3-5.18l70.28-40.35-9.91-17.16,48.74,13.06.21.11Z"/>
        <path class="cls-3" d="M169.33,82.61v95.68c0,3.3-2.67,5.97-5.97,5.97H54.47l35.88-35.88v19.81h60.92c1.1,0,1.99-.89,1.99-1.99v-75.46c0-1.42-.76-2.74-1.99-3.45l-49.15-28.37,16.08-9.28,48.15,27.79c1.85,1.07,2.99,3.04,2.99,5.17Z"/>
      </g>
      <g>
        <rect class="cls-5" x="62.66" y="116.18" width="19.59" height="19.59"/>
        <rect class="cls-5" x="87.08" y="116.18" width="19.59" height="19.59"/>
        <rect class="cls-5" x="62.66" y="91.77" width="19.59" height="19.59"/>
        <rect class="cls-5" x="87.08" y="91.77" width="19.59" height="19.59"/>
      </g>
      <path class="cls-1" d="M169.33,23.63c-14.51,4.35-17.75,7.88-21.76,23.63-4.01-15.75-7.25-19.28-21.76-23.63,14.51-4.35,17.75-7.88,21.76-23.63,4.01,15.75,7.25,19.28,21.76,23.63Z"/>
      <g>
        <g>
          <path class="cls-5" d="M266.28,79.08h41.19v21.57h-10.39v-11.17h-71.98v11.69h-10.26v-22.09h41.06v-9.22h10.39v9.22ZM266.15,142.48v18.19h40.54v10.13h-91.21v-10.13h40.54v-18.19h-27.15v-10.13h64.44v10.13h-27.15ZM267.14,95.32h10.26v16.89h21.75v10.26h-32.01v-27.15ZM255.03,122.48h-32.01v-10.26h21.75v-16.89h10.26v27.15Z"/>
          <path class="cls-5" d="M413.3,95.06h-16.24l1.3,12.99h12.6v9.87h-11.69l1.99,21.06.73,7.78h-46.44c-3.77,0-6.75,2.99-6.75,6.63v.26c0,3.64,2.99,6.63,6.75,6.63h46.6v9.74h-46.6c-2.41,0-4.69-.51-6.75-1.43-5.74-2.55-9.74-8.25-9.74-14.94v-.26c0-6.69,4.01-12.39,9.74-14.94,2.06-.92,4.35-1.43,6.75-1.43h35.61l-1.76-19.1h-51.65v-9.87h50.74l-1.3-12.99h-53.66v-9.87h52.75l-1.17-12.87h9.87l1.17,12.87h17.15v9.87Z"/>
          <g>
            <polygon class="cls-5" points="489.13 77.26 489.13 69.99 479.52 69.99 479.52 77.26 435.47 77.26 435.47 95.58 444.82 95.58 444.82 86.75 524.47 86.75 524.47 95.58 533.95 95.58 533.95 77.26 489.13 77.26"/>
            <polygon class="cls-5" points="523.92 109.97 508.12 125.34 503.03 113.62 499.13 104.66 521.35 104.66 521.35 95.58 447.29 95.58 447.29 104.66 465.65 104.66 451.66 114.71 451.66 126.46 481.95 104.66 488.61 104.66 490.21 108.37 448.2 138.56 448.2 150.31 492.9 118.14 492.9 127.95 445.99 162.33 445.99 174.08 492.9 139.86 492.9 162.3 470.55 162.3 470.55 172.01 503.03 172.01 503.03 138.21 517.06 170.86 527.85 170.86 512.9 136.1 512.28 134.7 530.99 116.92 523.92 109.97"/>
          </g>
          <rect class="cls-3" x="558.14" y="63.9" width="117.39" height="117.39" rx="16.47" ry="16.47"/>
          <rect class="cls-5" x="694.98" y="63.9" width="117.39" height="117.39" rx="16.47" ry="16.47"/>
          <path class="cls-2" d="M578.7,79.93h76.29v24.45h-76.29v-24.45ZM582.19,168.39l5.86-8.9h12.62l-5.75,8.9h-12.73ZM647.77,109.23v46.54h-61.97v-46.54h61.97ZM585.91,87.26v9.92h15.55v-9.92h-15.55ZM640.22,116.67h-46.88v4.84h46.88v-4.84ZM640.22,129.96h-46.88v4.96h46.88v-4.96ZM593.35,148.44h46.88v-4.96h-46.88v4.96ZM623.54,87.26h-13.52v9.92h13.52v-9.92ZM647.77,97.17v-9.92h-15.66v9.92h15.66ZM634.47,159.48h12.51l5.63,8.9h-12.51l-5.63-8.9Z"/>
          <path class="cls-2" d="M710.78,90.64v-8.45h42.82v8.45h-5.07v76.17h-8.45v-18.48l-29.3,8.11v-8.9l6.31-1.69v-55.21h-6.31ZM740.08,100.44v-9.8h-14.99v9.8h14.99ZM740.08,120.61v-11.61h-14.99v11.61h14.99ZM725.09,143.48l14.99-3.83v-10.59h-14.99v14.42ZM799.69,162.87h-11.16l-10.59-13.86-10.03,13.86h-10.7l15.21-21.41-13.41-39.66h-4.28v-8.79h41.47l-13.18,48.23,16.68,21.63ZM784.82,101.79h-16.45l9.01,26.59,7.44-26.59Z"/>
          <path class="cls-5" d="M933.74,138.92v8.78h-22.33v23.46h-8.78v-23.46h-64.97v-8.78h64.97v-9.03h-55.19v-37.25h33.87v-6.77h-42.02v-8.78h42.02v-6.4h8.78v6.4h42.02v8.78h-42.02v6.77h33.87v37.25h-12.54v9.03h22.33ZM881.31,101.16h-25.21v5.77h25.21v-5.77ZM856.1,115.84v5.52h25.21v-5.52h-25.21ZM915.3,101.16h-25.21v5.77h25.21v-5.77ZM890.09,121.36h25.21v-5.52h-25.21v5.52Z"/>
        </g>
        <path class="cls-1" d="M884.94,166.81c-9.4,2.82-11.5,5.1-14.1,15.31-2.6-10.21-4.7-12.49-14.1-15.31,9.4-2.82,11.5-5.1,14.1-15.31,2.6,10.21,4.7,12.49,14.1,15.31Z"/>
      </g>
    </g>
    <g>
      <path class="cls-6" d="M950.45,75.43h40.7v47.29h-32.39v49.32h-8.31v-96.61ZM958.76,95.65h24.4v-12.92h-24.4v12.92ZM958.76,102.16v13.48h24.4v-13.48h-24.4ZM1039.94,75.43v81.56c0,6.37-.73,10.33-2.18,11.91-1.46,1.57-5.17,2.36-11.13,2.36-1.71,0-7.28-.19-16.73-.56l-.32-7.64c9.09.37,14.31.56,15.66.56,3.05,0,4.88-.32,5.49-.96.6-.63.91-2.53.91-5.67v-34.26h-33.45v-47.29h41.76ZM1031.63,95.65v-12.92h-25.46v12.92h25.46ZM1031.63,102.16h-25.46v13.48h25.46v-13.48Z"/>
      <path class="cls-6" d="M1114.52,82.17h38.67v7.3h-36.22v14.6h35.16v7.3h-35.16v16.4h32.39v45.38h-8.42v-6.07h-51.78v6.07h-8.42v-45.38h27.91v-38.31h-32.71v25.95c0,23.14-3.62,41.87-10.87,56.17l-6.29-6.63c6.04-13.18,9.06-31.42,9.06-54.71v-28.08h38.14v-12.25h8.52v12.25ZM1089.16,160.02h51.78v-24.94h-51.78v24.94Z"/>
    </g>
    <g>
      <path class="cls-4" d="M385.19,29.57c.18-1.38.62-4.97,7.49-4.97,1.72,0,7.12.31,7.12,4.89v8.37c0,.47.21,1.53.7,1.9v.34h-3.74c-.42-.62-.44-1.43-.44-1.79-.96,1.09-2.5,2.37-5.93,2.37-1.43,0-5.98-.1-5.98-4.65,0-3.72,3.17-4.13,6.86-4.6,3.93-.52,5.04-.65,5.04-2.03,0-2.03-2.55-2.03-3.3-2.03-3.95,0-4.34,1.17-4.37,2.21h-3.46ZM396.29,32.74c-.86.44-3.02.75-4.34.94-2.5.36-3.87.57-3.87,2.16,0,.52.26,2.08,3.33,2.08s4.89-1.69,4.89-3.22v-1.95Z"/>
      <path class="cls-4" d="M414.62,19.61v12.22l7.18-6.68h4.42l-5.59,5.15,6.24,9.8h-4.26l-4.45-7.54-3.54,3.25v4.29h-3.51v-20.49h3.51Z"/>
      <path class="cls-4" d="M441.66,23.25h-3.67v-3.64h3.67v3.64ZM441.58,40.1h-3.51v-14.95h3.51v14.95Z"/>
      <path class="cls-4" d="M456.58,25.15l4.58,10.19,4.6-10.19h3.85l-6.97,15.18c-1.43,3.09-4.21,3.25-5.69,3.25-.73,0-1.53-.03-2.26-.13v-2.73h1.87c1.4,0,1.98-.6,2.6-1.82l-6.42-13.75h3.85Z"/>
      <path class="cls-4" d="M480.09,29.57c.18-1.38.62-4.97,7.49-4.97,1.72,0,7.12.31,7.12,4.89v8.37c0,.47.21,1.53.7,1.9v.34h-3.74c-.42-.62-.44-1.43-.44-1.79-.96,1.09-2.5,2.37-5.93,2.37-1.43,0-5.98-.1-5.98-4.65,0-3.72,3.17-4.13,6.86-4.6,3.93-.52,5.04-.65,5.04-2.03,0-2.03-2.55-2.03-3.3-2.03-3.95,0-4.34,1.17-4.37,2.21h-3.46ZM491.19,32.74c-.86.44-3.02.75-4.34.94-2.5.36-3.87.57-3.87,2.16,0,.52.26,2.08,3.33,2.08s4.89-1.69,4.89-3.22v-1.95Z"/>
      <path class="cls-4" d="M543.84,19.61v12.22l7.18-6.68h4.42l-5.59,5.15,6.24,9.8h-4.26l-4.45-7.54-3.54,3.25v4.29h-3.51v-20.49h3.51Z"/>
      <path class="cls-4" d="M566.67,29.57c.18-1.38.62-4.97,7.49-4.97,1.72,0,7.12.31,7.12,4.89v8.37c0,.47.21,1.53.7,1.9v.34h-3.74c-.42-.62-.44-1.43-.44-1.79-.96,1.09-2.5,2.37-5.93,2.37-1.43,0-5.98-.1-5.98-4.65,0-3.72,3.17-4.13,6.86-4.6,3.93-.52,5.04-.65,5.04-2.03,0-2.03-2.55-2.03-3.3-2.03-3.95,0-4.34,1.17-4.37,2.21h-3.46ZM577.77,32.74c-.86.44-3.02.75-4.34.94-2.5.36-3.87.57-3.87,2.16,0,.52.26,2.08,3.33,2.08s4.89-1.69,4.89-3.22v-1.95Z"/>
      <path class="cls-4" d="M597.01,23.25h-3.67v-3.64h3.67v3.64ZM596.93,40.1h-3.51v-14.95h3.51v14.95Z"/>
      <path class="cls-4" d="M614.79,25.15h3.64v2.52h-3.64v8.42c0,1.59,1.01,1.66,2.44,1.66h1.2v2.81c-.42.05-1.12.1-2.13.1-1.38,0-5.02,0-5.02-4.21v-8.79h-2.99v-2.52h2.99v-4.19h3.51v4.19Z"/>
      <path class="cls-4" d="M644.36,32.64c0,5.9-4.16,8.03-7.98,8.03s-8.01-2.16-8.01-8.03,4.13-8.03,8.01-8.03,7.98,2.13,7.98,8.03ZM632.03,32.64c0,2.91,1.61,5.28,4.34,5.28s4.32-2.5,4.32-5.28-1.51-5.28-4.32-5.28-4.34,2.39-4.34,5.28Z"/>
      <path class="cls-4" d="M658.58,25.15l.05,2.16c1.35-2.6,4.52-2.7,5.41-2.7h1.98v3.59h-2.13c-3.54,0-5.25,1.87-5.25,4.42v7.49h-3.51v-14.95h3.46Z"/>
      <path class="cls-4" d="M680.83,23.25h-3.67v-3.64h3.67v3.64ZM680.76,40.1h-3.51v-14.95h3.51v14.95Z"/>
      <path class="cls-4" d="M730.39,35.52c.16,2.31,1.98,2.63,3.48,2.63.94,0,3.56,0,3.56-1.95,0-1.35-.88-1.59-4.24-2.37-3.85-.88-6.01-1.72-6.01-4.65,0-4.26,4.89-4.58,6.47-4.58,6.32,0,6.81,3.04,7.1,4.68h-3.64c0-.36-.03-.81-.31-1.14-.7-.86-2-1.01-2.94-1.01-1.33,0-3.02.26-3.02,1.74,0,1.14.96,1.53,4.32,2.31,3.72.86,5.93,1.64,5.93,4.58,0,4.91-6.16,4.91-7.07,4.91-5.93,0-6.92-2.81-7.31-5.15h3.67Z"/>
      <path class="cls-4" d="M767.08,35.58c-.39,1.17-1.59,5.1-7.67,5.1-4.89,0-8.06-2.89-8.06-8.03,0-6.01,4.16-8.03,7.9-8.03,3.04,0,5.62,1.3,6.99,3.9.68,1.27.96,2.57,1.09,4.94h-12.43c.23,4.47,3.56,4.47,4.52,4.47,1.9,0,3.38-.55,4.03-2.34h3.61ZM763.72,31.03c-.23-.91-.96-3.67-4.45-3.67s-4.03,2.55-4.32,3.67h8.76Z"/>
      <path class="cls-4" d="M781.53,25.15l.05,1.9c.52-.65,1.95-2.44,5.15-2.44,3.64,0,6.14,2.39,6.14,5.9v9.59h-3.51v-9.15c0-1.53-.99-3.59-3.74-3.59-.7,0-2.57.16-3.43,1.72-.42.78-.6,1.59-.6,2.05v8.97h-3.51v-14.95h3.46Z"/>
      <path class="cls-4" d="M807.76,25.15l.08,2c.73-1.43,2.16-2.55,4.16-2.55,2.89,0,3.87,1.92,4.24,2.63.65-1.09,1.79-2.63,4.52-2.63,2.31,0,4.86,1.2,4.86,5.1v10.4h-3.51v-9.8c0-.83-.21-2.94-2.47-2.94-2.03,0-2.91,1.85-2.91,3.54v9.2h-3.51v-9.93c0-1.4-.83-2.81-2.5-2.81s-2.89,1.64-2.89,3.54v9.2h-3.54v-14.95h3.46Z"/>
      <path class="cls-4" d="M852.46,32.64c0,5.9-4.16,8.03-7.98,8.03s-8.01-2.16-8.01-8.03,4.13-8.03,8.01-8.03,7.98,2.13,7.98,8.03ZM840.13,32.64c0,2.91,1.61,5.28,4.34,5.28s4.32-2.5,4.32-5.28-1.51-5.28-4.32-5.28-4.34,2.39-4.34,5.28Z"/>
      <path class="cls-4" d="M866.65,25.15l.05,1.9c.52-.65,1.95-2.44,5.15-2.44,3.64,0,6.14,2.39,6.14,5.9v9.59h-3.51v-9.15c0-1.53-.99-3.59-3.74-3.59-.7,0-2.57.16-3.43,1.72-.42.78-.6,1.59-.6,2.05v8.97h-3.51v-14.95h3.46Z"/>
      <path class="cls-4" d="M895.02,25.15h3.64v2.52h-3.64v8.42c0,1.59,1.01,1.66,2.44,1.66h1.2v2.81c-.42.05-1.12.1-2.13.1-1.38,0-5.02,0-5.02-4.21v-8.79h-2.99v-2.52h2.99v-4.19h3.51v4.19Z"/>
      <path class="cls-4" d="M924.32,35.58c-.39,1.17-1.59,5.1-7.67,5.1-4.89,0-8.06-2.89-8.06-8.03,0-6.01,4.16-8.03,7.9-8.03,3.04,0,5.62,1.3,6.99,3.9.68,1.27.96,2.57,1.09,4.94h-12.43c.23,4.47,3.56,4.47,4.52,4.47,1.9,0,3.38-.55,4.03-2.34h3.61ZM920.97,31.03c-.23-.91-.96-3.67-4.45-3.67s-4.03,2.55-4.32,3.67h8.76Z"/>
      <path class="cls-4" d="M938.78,25.15l.05,1.9c.52-.65,1.95-2.44,5.15-2.44,3.64,0,6.14,2.39,6.14,5.9v9.59h-3.51v-9.15c0-1.53-.99-3.59-3.74-3.59-.7,0-2.57.16-3.43,1.72-.42.78-.6,1.59-.6,2.05v8.97h-3.51v-14.95h3.46Z"/>
    </g>
  </g>
</svg>