<?xml version="1.0" encoding="UTF-8"?>
<svg id="_レイヤー_2" data-name="レイヤー_2" xmlns="http://www.w3.org/2000/svg" viewBox="0 0 1054.98 184.26">
  <defs>
    <style>
      .cls-1 {
        fill: #f8b62d;
      }

      .cls-2 {
        fill: #fff;
      }

      .cls-3 {
        fill: #008cd6;
      }

      .cls-4 {
        fill: #595757;
      }

      .cls-5 {
        fill: #004ea2;
      }
    </style>
  </defs>
  <g id="_レイヤー_1-2" data-name="レイヤー_1">
    <g>
      <polygon class="cls-5" points="105.56 33.06 105.49 33.1 105.28 32.99 105.56 33.06"/>
      <g>
        <path class="cls-5" d="M112.32,33.1L18.06,87.29c-1.24.71-2,2.03-2,3.45v75.46c0,1.1.89,1.99,1.99,1.99h31.98l-16.07,16.07H5.97c-3.3,0-5.97-2.67-5.97-5.97v-95.67c0-2.14,1.14-4.11,3-5.18l70.28-40.35-9.91-17.16,48.74,13.06.21.11Z"/>
        <path class="cls-3" d="M169.33,82.61v95.68c0,3.3-2.67,5.97-5.97,5.97H54.47l35.88-35.88v19.81h60.92c1.1,0,1.99-.89,1.99-1.99v-75.46c0-1.42-.76-2.74-1.99-3.45l-49.15-28.37,16.08-9.28,48.15,27.79c1.85,1.07,2.99,3.04,2.99,5.17Z"/>
      </g>
      <g>
        <rect class="cls-5" x="62.66" y="116.18" width="19.59" height="19.59"/>
        <rect class="cls-5" x="87.08" y="116.18" width="19.59" height="19.59"/>
        <rect class="cls-5" x="62.66" y="91.77" width="19.59" height="19.59"/>
        <rect class="cls-5" x="87.08" y="91.77" width="19.59" height="19.59"/>
      </g>
      <g>
        <path class="cls-4" d="M366.46,28.94c0-3.5,2.96-5.31,9.75-6.05-.03-1.9-.71-3.56-3.11-3.56-1.72,0-3.32.77-4.71,1.66l-1.27-2.31c1.69-1.07,3.97-2.13,6.58-2.13,4.06,0,5.93,2.58,5.93,6.91v9.81h-2.79l-.27-1.87h-.12c-1.48,1.27-3.23,2.25-5.19,2.25-2.82,0-4.8-1.84-4.8-4.71ZM372.3,30.95c1.42,0,2.58-.68,3.91-1.9v-4c-4.83.56-6.46,1.81-6.46,3.65,0,1.6,1.1,2.25,2.55,2.25Z"/>
        <path class="cls-4" d="M401.94,9.64v15.21h.12l6.31-7.89h3.79l-5.51,6.64,6.14,9.66h-3.71l-4.42-7.38-2.73,3.14v4.24h-3.35V9.64h3.35Z"/>
        <path class="cls-4" d="M431.74,9.85c1.25,0,2.13.8,2.13,2.02s-.89,2.05-2.13,2.05-2.1-.8-2.1-2.05.86-2.02,2.1-2.02ZM433.46,16.96v16.3h-3.41v-16.3h3.41Z"/>
        <path class="cls-4" d="M451.59,39.76l.65-2.67c.3.09.77.24,1.19.24,1.78,0,2.82-1.3,3.41-3.05l.33-1.13-6.46-16.19h3.5l3.02,8.39c.47,1.45.98,3.08,1.48,4.59h.15l1.27-4.59,2.61-8.39h3.32l-5.99,17.28c-1.27,3.5-2.99,5.84-6.43,5.84-.83,0-1.48-.12-2.05-.33Z"/>
        <path class="cls-4" d="M482.34,28.94c0-3.5,2.96-5.31,9.75-6.05-.03-1.9-.71-3.56-3.11-3.56-1.72,0-3.32.77-4.71,1.66l-1.27-2.31c1.69-1.07,3.97-2.13,6.58-2.13,4.06,0,5.93,2.58,5.93,6.91v9.81h-2.79l-.27-1.87h-.12c-1.48,1.27-3.23,2.25-5.19,2.25-2.82,0-4.8-1.84-4.8-4.71ZM488.18,30.95c1.42,0,2.58-.68,3.91-1.9v-4c-4.83.56-6.46,1.81-6.46,3.65,0,1.6,1.1,2.25,2.55,2.25Z"/>
        <path class="cls-4" d="M548.15,9.64v15.21h.12l6.31-7.89h3.79l-5.51,6.64,6.14,9.66h-3.71l-4.42-7.38-2.73,3.14v4.24h-3.35V9.64h3.35Z"/>
        <path class="cls-4" d="M575.06,28.94c0-3.5,2.96-5.31,9.75-6.05-.03-1.9-.71-3.56-3.11-3.56-1.72,0-3.32.77-4.71,1.66l-1.27-2.31c1.69-1.07,3.97-2.13,6.58-2.13,4.06,0,5.93,2.58,5.93,6.91v9.81h-2.79l-.27-1.87h-.12c-1.48,1.27-3.23,2.25-5.19,2.25-2.82,0-4.8-1.84-4.8-4.71ZM580.9,30.95c1.42,0,2.58-.68,3.91-1.9v-4c-4.83.56-6.46,1.81-6.46,3.65,0,1.6,1.1,2.25,2.55,2.25Z"/>
        <path class="cls-4" d="M608.83,9.85c1.25,0,2.13.8,2.13,2.02s-.89,2.05-2.13,2.05-2.1-.8-2.1-2.05.86-2.02,2.1-2.02ZM610.55,16.96v16.3h-3.41v-16.3h3.41Z"/>
        <path class="cls-4" d="M630.33,27.93v-8.24h-2.37v-2.55l2.55-.18.39-4.51h2.85v4.51h4.24v2.73h-4.24v8.27c0,1.96.68,2.96,2.37,2.96.56,0,1.27-.18,1.75-.39l.62,2.52c-.92.3-2.02.59-3.2.59-3.68,0-4.95-2.28-4.95-5.72Z"/>
        <path class="cls-4" d="M654.34,25.11c0-5.42,3.65-8.57,7.68-8.57s7.68,3.14,7.68,8.57-3.65,8.54-7.68,8.54-7.68-3.11-7.68-8.54ZM662.02,30.86c2.58,0,4.18-2.28,4.18-5.75s-1.6-5.75-4.18-5.75-4.15,2.31-4.15,5.75,1.6,5.75,4.15,5.75Z"/>
        <path class="cls-4" d="M690.72,16.96l.27,2.93h.09c1.16-2.1,2.88-3.35,4.62-3.35.8,0,1.33.12,1.84.36l-.62,2.96c-.56-.18-.98-.27-1.63-.27-1.33,0-2.93.92-3.94,3.5v10.17h-3.41v-16.3h2.79Z"/>
        <path class="cls-4" d="M716.3,9.85c1.25,0,2.13.8,2.13,2.02s-.89,2.05-2.13,2.05-2.1-.8-2.1-2.05.86-2.02,2.1-2.02ZM718.02,16.96v16.3h-3.41v-16.3h3.41Z"/>
        <path class="cls-4" d="M765.87,31.4l1.6-2.19c1.45,1.13,2.88,1.87,4.62,1.87,1.96,0,2.88-.95,2.88-2.19,0-1.48-1.84-2.13-3.59-2.82-2.19-.83-4.59-1.99-4.59-4.74s2.19-4.77,5.81-4.77c2.16,0,3.97.89,5.28,1.93l-1.6,2.1c-1.13-.83-2.28-1.42-3.62-1.42-1.81,0-2.64.89-2.64,2.02,0,1.39,1.6,1.93,3.38,2.58,2.28.86,4.8,1.87,4.8,4.95,0,2.73-2.16,4.95-6.2,4.95-2.25,0-4.53-.95-6.14-2.25Z"/>
        <path class="cls-4" d="M795.12,25.11c0-5.28,3.65-8.57,7.44-8.57,4.33,0,6.67,3.11,6.67,7.71,0,.68-.09,1.33-.18,1.75h-10.58c.27,3.11,2.22,4.98,5.04,4.98,1.45,0,2.7-.44,3.88-1.22l1.19,2.16c-1.51,1.01-3.38,1.72-5.51,1.72-4.42,0-7.94-3.14-7.94-8.54ZM806.27,23.63c0-2.79-1.27-4.42-3.65-4.42-2.05,0-3.85,1.57-4.18,4.42h7.83Z"/>
        <path class="cls-4" d="M830.14,16.96l.27,2.25h.09c1.51-1.45,3.17-2.67,5.4-2.67,3.47,0,5.01,2.31,5.01,6.46v10.26h-3.41v-9.84c0-2.82-.83-3.94-2.76-3.94-1.51,0-2.55.77-3.97,2.22v11.56h-3.41v-16.3h2.79Z"/>
        <path class="cls-4" d="M863.28,9.64v15.21h.12l6.31-7.89h3.79l-5.51,6.64,6.14,9.66h-3.71l-4.42-7.38-2.73,3.14v4.24h-3.35V9.64h3.35Z"/>
        <path class="cls-4" d="M890.19,28.94c0-3.5,2.96-5.31,9.75-6.05-.03-1.9-.71-3.56-3.11-3.56-1.72,0-3.32.77-4.71,1.66l-1.27-2.31c1.69-1.07,3.97-2.13,6.58-2.13,4.06,0,5.93,2.58,5.93,6.91v9.81h-2.79l-.27-1.87h-.12c-1.48,1.27-3.23,2.25-5.19,2.25-2.82,0-4.8-1.84-4.8-4.71ZM896.03,30.95c1.42,0,2.58-.68,3.91-1.9v-4c-4.83.56-6.46,1.81-6.46,3.65,0,1.6,1.1,2.25,2.55,2.25Z"/>
      </g>
      <path class="cls-1" d="M169.33,23.63c-14.51,4.35-17.75,7.88-21.76,23.63-4.01-15.75-7.25-19.28-21.76-23.63,14.51-4.35,17.75-7.88,21.76-23.63,4.01,15.75,7.25,19.28,21.76,23.63Z"/>
      <g>
        <g>
          <path class="cls-5" d="M266.28,79.08h41.19v21.57h-10.39v-11.17h-71.98v11.69h-10.26v-22.09h41.06v-9.22h10.39v9.22ZM266.15,142.48v18.19h40.54v10.13h-91.21v-10.13h40.54v-18.19h-27.15v-10.13h64.44v10.13h-27.15ZM267.14,95.32h10.26v16.89h21.75v10.26h-32.01v-27.15ZM255.03,122.48h-32.01v-10.26h21.75v-16.89h10.26v27.15Z"/>
          <path class="cls-5" d="M413.3,95.06h-16.24l1.3,12.99h12.6v9.87h-11.69l1.99,21.06.73,7.78h-46.44c-3.77,0-6.75,2.99-6.75,6.63v.26c0,3.64,2.99,6.63,6.75,6.63h46.6v9.74h-46.6c-2.41,0-4.69-.51-6.75-1.43-5.74-2.55-9.74-8.25-9.74-14.94v-.26c0-6.69,4.01-12.39,9.74-14.94,2.06-.92,4.35-1.43,6.75-1.43h35.61l-1.76-19.1h-51.65v-9.87h50.74l-1.3-12.99h-53.66v-9.87h52.75l-1.17-12.87h9.87l1.17,12.87h17.15v9.87Z"/>
          <g>
            <polygon class="cls-5" points="489.13 77.26 489.13 69.99 479.52 69.99 479.52 77.26 435.47 77.26 435.47 95.58 444.82 95.58 444.82 86.75 524.47 86.75 524.47 95.58 533.95 95.58 533.95 77.26 489.13 77.26"/>
            <polygon class="cls-5" points="523.92 109.97 508.12 125.34 503.03 113.62 499.13 104.66 521.35 104.66 521.35 95.58 447.29 95.58 447.29 104.66 465.65 104.66 451.66 114.71 451.66 126.46 481.95 104.66 488.61 104.66 490.21 108.37 448.2 138.56 448.2 150.31 492.9 118.14 492.9 127.95 445.99 162.33 445.99 174.08 492.9 139.86 492.9 162.3 470.55 162.3 470.55 172.01 503.03 172.01 503.03 138.21 517.06 170.86 527.85 170.86 512.9 136.1 512.28 134.7 530.99 116.92 523.92 109.97"/>
          </g>
          <rect class="cls-3" x="558.14" y="63.9" width="117.39" height="117.39" rx="16.47" ry="16.47"/>
          <rect class="cls-5" x="694.98" y="63.9" width="117.39" height="117.39" rx="16.47" ry="16.47"/>
          <path class="cls-2" d="M578.7,79.93h76.29v24.45h-76.29v-24.45ZM582.19,168.39l5.86-8.9h12.62l-5.75,8.9h-12.73ZM647.77,109.23v46.54h-61.97v-46.54h61.97ZM585.91,87.26v9.92h15.55v-9.92h-15.55ZM640.22,116.67h-46.88v4.84h46.88v-4.84ZM640.22,129.96h-46.88v4.96h46.88v-4.96ZM593.35,148.44h46.88v-4.96h-46.88v4.96ZM623.54,87.26h-13.52v9.92h13.52v-9.92ZM647.77,97.17v-9.92h-15.66v9.92h15.66ZM634.47,159.48h12.51l5.63,8.9h-12.51l-5.63-8.9Z"/>
          <path class="cls-2" d="M710.78,90.64v-8.45h42.82v8.45h-5.07v76.17h-8.45v-18.48l-29.3,8.11v-8.9l6.31-1.69v-55.21h-6.31ZM740.08,100.44v-9.8h-14.99v9.8h14.99ZM740.08,120.61v-11.61h-14.99v11.61h14.99ZM725.09,143.48l14.99-3.83v-10.59h-14.99v14.42ZM799.69,162.87h-11.16l-10.59-13.86-10.03,13.86h-10.7l15.21-21.41-13.41-39.66h-4.28v-8.79h41.47l-13.18,48.23,16.68,21.63ZM784.82,101.79h-16.45l9.01,26.59,7.44-26.59Z"/>
          <path class="cls-5" d="M933.74,138.92v8.78h-22.33v23.46h-8.78v-23.46h-64.97v-8.78h64.97v-9.03h-55.19v-37.25h33.87v-6.77h-42.02v-8.78h42.02v-6.4h8.78v6.4h42.02v8.78h-42.02v6.77h33.87v37.25h-12.54v9.03h22.33ZM881.31,101.16h-25.21v5.77h25.21v-5.77ZM856.1,115.84v5.52h25.21v-5.52h-25.21ZM915.3,101.16h-25.21v5.77h25.21v-5.77ZM890.09,121.36h25.21v-5.52h-25.21v5.52ZM882.9,159.89l-16.82-8.42v8.74l16.82,8.42v-8.74Z"/>
        </g>
        <path class="cls-1" d="M1024.95,86.28c-7.27,2.18-8.9,3.95-10.91,11.85-2.01-7.9-3.64-9.67-10.91-11.85,7.27-2.18,8.9-3.95,10.91-11.85,2.01,7.9,3.64,9.67,10.91,11.85Z"/>
        <path class="cls-1" d="M1028.6,111.08c-7.27,2.18-8.9,3.95-10.91,11.85-2.01-7.9-3.64-9.67-10.91-11.85,7.27-2.18,8.9-3.95,10.91-11.85,2.01,7.9,3.64,9.67,10.91,11.85Z"/>
        <path class="cls-5" d="M995.03,107.65h-8.15l9.16,21.95h-9.91l-4.39-10.54v52.18h-9.53l-.13-44.4-5.64,19.32h-9.78l11.29-38.51h-11.54v-9.78h15.8v-10.66l-12.67,1.51v-9.16l33.99-4.01v9.03l-11.79,1.38v11.92h13.3v9.78ZM1054.98,127.71v10.03l-11.04,2.26v31.23h-9.66v-28.97l-31.99,6.65v-9.78l31.99-6.9v-58.58h9.66v56.44l11.04-2.38Z"/>
      </g>
    </g>
  </g>
</svg>