<?xml version="1.0" encoding="UTF-8"?>
<svg id="_レイヤー_2" data-name="レイヤー_2" xmlns="http://www.w3.org/2000/svg" viewBox="0 0 73.62 65.78">
  <defs>
    <style>
      .cls-1 {
        fill: #040000;
      }

      .cls-2 {
        fill: #f0df26;
        stroke: #040000;
        stroke-miterlimit: 10;
        stroke-width: 4.38px;
      }
    </style>
  </defs>
  <g id="_レイヤー_1-2" data-name="レイヤー_1">
    <g>
      <path class="cls-2" d="M32.11,4.9L2.92,55.46c-2.09,3.61.52,8.13,4.69,8.13h58.38c4.17,0,6.78-4.52,4.69-8.13L41.5,4.9c-2.09-3.61-7.3-3.61-9.39,0"/>
      <path class="cls-1" d="M38.06,44.82h-2.5c-.8,0-1.45-.63-1.48-1.43l-1.06-25.79c-.03-.84.64-1.55,1.48-1.55h4.61c.84,0,1.52.7,1.48,1.55l-1.06,25.79c-.03.8-.69,1.43-1.48,1.43"/>
      <circle class="cls-1" cx="36.81" cy="52.14" r="3.82"/>
    </g>
  </g>
</svg>