<?xml version="1.0" encoding="UTF-8"?>
<svg id="_レイヤー_2" data-name="レイヤー_2" xmlns="http://www.w3.org/2000/svg" xmlns:xlink="http://www.w3.org/1999/xlink" viewBox="0 0 594.05 294.15">
  <defs>
    <style>
      .cls-1 {
        letter-spacing: .1em;
      }

      .cls-2 {
        letter-spacing: .35em;
      }

      .cls-3 {
        fill: #fff100;
        font-size: 28.55px;
      }

      .cls-3, .cls-4, .cls-5, .cls-6, .cls-7, .cls-8, .cls-9, .cls-10 {
        font-family: NotoSansJP-Bold, 'Noto Sans JP';
        font-variation-settings: 'wght' 700;
        font-weight: 700;
      }

      .cls-11, .cls-12, .cls-13, .cls-14 {
        letter-spacing: .1em;
      }

      .cls-15 {
        letter-spacing: .25em;
      }

      .cls-16 {
        fill: #fff459;
      }

      .cls-17 {
        fill: #e865a1;
      }

      .cls-18, .cls-12, .cls-19 {
        fill: none;
      }

      .cls-4, .cls-5, .cls-7, .cls-10 {
        fill: #fff;
      }

      .cls-4, .cls-7 {
        font-size: 8.64px;
      }

      .cls-5, .cls-9 {
        font-size: 18.75px;
      }

      .cls-20 {
        letter-spacing: .35em;
      }

      .cls-6, .cls-10 {
        font-size: 10.97px;
      }

      .cls-13, .cls-21, .cls-8, .cls-22 {
        fill: #2d476b;
      }

      .cls-7, .cls-23 {
        letter-spacing: .1em;
      }

      .cls-21, .cls-24 {
        letter-spacing: -.4em;
      }

      .cls-25 {
        fill: #0081cc;
      }

      .cls-26 {
        letter-spacing: .1em;
      }

      .cls-27 {
        fill: #004ea2;
      }

      .cls-8 {
        font-size: 14.62px;
      }

      .cls-28 {
        letter-spacing: -.15em;
      }

      .cls-29 {
        fill: #e83828;
        fill-rule: evenodd;
      }

      .cls-19 {
        stroke: #bb0007;
        stroke-miterlimit: 10;
      }

      .cls-14, .cls-9 {
        fill: #bb0007;
      }

      .cls-22 {
        letter-spacing: .1em;
      }

      .cls-30 {
        clip-path: url(#clippath);
      }
    </style>
    <clipPath id="clippath">
      <rect class="cls-18" x="355.64" y="20.27" width="120.54" height="77.49"/>
    </clipPath>
  </defs>
  <g id="_レイヤー_1-2" data-name="レイヤー_1">
    <rect class="cls-27" y="205.53" width="594.05" height="56.98"/>
    <rect class="cls-17" x="105.95" width="387.83" height="115.15"/>
    <rect class="cls-25" x="127.54" y="69.81" width="119.65" height="15.82" rx="7.91" ry="7.91"/>
    <rect class="cls-25" x="127.54" y="90.26" width="93.87" height="15.82" rx="7.91" ry="7.91"/>
    <rect class="cls-16" x="152.79" y="17.28" width="194.67" height="14.4"/>
    <rect class="cls-16" x="127.36" y="34.35" width="220.1" height="14.4"/>
    <text class="cls-3" transform="translate(35.12 242.6)"><tspan x="0" y="0">「空き家」買取専科にお任せくださ</tspan><tspan class="cls-15" x="456.8" y="0">い</tspan><tspan x="492.49" y="0">!!</tspan></text>
    <g>
      <text class="cls-10" transform="translate(129.6 28.26)"><tspan class="cls-11"><tspan x="0" y="0">特に倒壊の危険性があると、自治体から</tspan></tspan><tspan class="cls-11" x="0" y="16.79">認定された「特定空き家」に指定され</tspan><tspan class="cls-24" x="205.19" y="16.79">、</tspan><tspan class="cls-11" x="0" y="33.57">以下のようなリスクがあります</tspan><tspan class="cls-24" x="168.98" y="33.57">。</tspan></text>
      <text class="cls-6" transform="translate(129.6 28.26)"><tspan class="cls-12" x="0" y="0">特に</tspan><tspan class="cls-14" x="24.14" y="0">倒壊の危険性</tspan><tspan class="cls-22" x="96.56" y="0">があると、自治体から</tspan><tspan class="cls-13" x="0" y="16.79">認定された</tspan><tspan class="cls-14" x="60.35" y="16.79">「特定空き家」</tspan><tspan class="cls-13" x="144.84" y="16.79">に指定され</tspan><tspan class="cls-21" x="205.19" y="16.79">、</tspan><tspan class="cls-18"><tspan class="cls-11" x="0" y="33.57">以下のようなリスクがあります</tspan><tspan class="cls-24" x="168.98" y="33.57">。</tspan></tspan></text>
    </g>
    <polygon class="cls-29" points="299.07 294.15 326.07 276.08 272.07 276.08 299.07 294.15"/>
    <text class="cls-4" transform="translate(134.85 81.05)"><tspan class="cls-23" x="0" y="0">固定資産税が通常</tspan><tspan class="cls-20" x="76.05" y="0">の6</tspan><tspan class="cls-23" x="95.84" y="0">倍</tspan></text>
    <text class="cls-4" transform="translate(133.6 100.91)"><tspan class="cls-23" x="0" y="0">最</tspan><tspan class="cls-20" x="9.51" y="0">大</tspan><tspan class="cls-23" x="21.17" y="0">5</tspan><tspan class="cls-20" x="27.13" y="0">0</tspan><tspan class="cls-23" x="35.26" y="0">万円の罰金</tspan></text>
    <text class="cls-7" transform="translate(250.06 80.84)"><tspan x="0" y="0">に引き上げられる</tspan></text>
    <text class="cls-7" transform="translate(223.98 101.17)"><tspan x="0" y="0">が課される可能性がある</tspan></text>
    <g class="cls-30">
      <image width="5933" height="3955" transform="translate(286.44 -30.58) scale(.04)" xlink:href="A:\部内やりとりフォルダ\ヴーさんへ\買い取りサイト　デザイン案_フォルダー\Links\名称_未_設定 (5).png"/>
    </g>
    <g>
      <text class="cls-5" transform="translate(90.14 155.33)"><tspan class="cls-1" x="0" y="0">空き家を放置し続けるのは非常に危険で</tspan><tspan class="cls-2" x="371.25" y="0">す</tspan><tspan class="cls-1" x="396.56" y="0">!!</tspan></text>
      <text class="cls-9" transform="translate(90.14 155.33)"><tspan class="cls-1" x="0" y="0">空き家を放置し続けるのは非常に危険で</tspan><tspan class="cls-2" x="371.25" y="0">す</tspan><tspan class="cls-1" x="396.56" y="0">!!</tspan></text>
    </g>
    <text class="cls-8" transform="translate(177.03 189.19)"><tspan class="cls-26" x="0" y="0">何か問題が起きてしまう前に・・</tspan><tspan class="cls-28" x="241.29" y="0">・</tspan></text>
    <path class="cls-19" d="M82.1,163.16c3.4,0,3.4,1.7,6.79,1.7s3.4-1.7,6.79-1.7,3.4,1.7,6.79,1.7,3.4-1.7,6.79-1.7,3.4,1.7,6.79,1.7,3.4-1.7,6.79-1.7,3.4,1.7,6.79,1.7,3.4-1.7,6.79-1.7,3.4,1.7,6.79,1.7,3.4-1.7,6.79-1.7,3.4,1.7,6.79,1.7,3.4-1.7,6.79-1.7,3.4,1.7,6.79,1.7,3.4-1.7,6.79-1.7,3.4,1.7,6.79,1.7,3.4-1.7,6.79-1.7,3.4,1.7,6.79,1.7,3.4-1.7,6.79-1.7,3.4,1.7,6.79,1.7,3.4-1.7,6.79-1.7,3.4,1.7,6.79,1.7,3.4-1.7,6.79-1.7,3.4,1.7,6.79,1.7,3.4-1.7,6.79-1.7,3.4,1.7,6.79,1.7,3.4-1.7,6.79-1.7,3.4,1.7,6.79,1.7,3.4-1.7,6.79-1.7,3.4,1.7,6.79,1.7,3.4-1.7,6.79-1.7,3.4,1.7,6.79,1.7,3.4-1.7,6.79-1.7,3.4,1.7,6.79,1.7,3.4-1.7,6.8-1.7,3.4,1.7,6.79,1.7,3.39-1.7,6.79-1.7,3.4,1.7,6.79,1.7,3.4-1.7,6.79-1.7,3.4,1.7,6.79,1.7,3.4-1.7,6.79-1.7,3.4,1.7,6.79,1.7,3.4-1.7,6.79-1.7,3.4,1.7,6.79,1.7,3.4-1.7,6.79-1.7,3.4,1.7,6.79,1.7,3.4-1.7,6.79-1.7,3.4,1.7,6.8,1.7,3.4-1.7,6.79-1.7,3.4,1.7,6.8,1.7,3.4-1.7,6.8-1.7,3.4,1.7,6.8,1.7,3.4-1.7,6.8-1.7,3.4,1.7,6.8,1.7,3.4-1.7,6.8-1.7,3.4,1.7,6.79,1.7,3.4-1.7,6.8-1.7,3.4,1.7,6.8,1.7,3.4-1.7,6.8-1.7,3.4,1.7,6.8,1.7,3.4-1.7,6.79-1.7,3.4,1.7,6.8,1.7,3.4-1.7,6.81-1.7,3.4,1.7,6.81,1.7"/>
  </g>
</svg>