<?xml version="1.0" encoding="UTF-8"?>
<svg id="_レイヤー_2" data-name="レイヤー_2" xmlns="http://www.w3.org/2000/svg" viewBox="0 0 112.49 97.42">
  <defs>
    <style>
      .cls-1 {
        fill: #040000;
      }

      .cls-2 {
        fill: #fff;
      }

      .cls-3 {
        fill: #fffeee;
        fill-rule: evenodd;
      }

      .cls-4 {
        fill: #231815;
      }
    </style>
  </defs>
  <g id="_レイヤー_1-2" data-name="レイヤー_1">
    <g>
      <polygon class="cls-3" points="84.37 0 28.12 0 0 48.71 28.12 97.42 84.37 97.42 112.49 48.71 84.37 0"/>
      <g>
        <g>
          <g>
            <g>
              <polygon class="cls-2" points="81.15 39.89 81.15 70.44 36.67 70.44 36.67 39.89 58.81 18 81.15 39.89"/>
              <path class="cls-4" d="M81.15,71.81h-44.49c-.75,0-1.36-.61-1.36-1.36v-30.55c0-.36.15-.71.4-.97l22.15-21.9c.53-.52,1.38-.52,1.91,0l22.34,21.9c.26.26.41.61.41.97v30.55c0,.75-.61,1.36-1.36,1.36ZM38.03,69.08h41.76v-28.62l-20.97-20.56-20.79,20.55v28.62Z"/>
            </g>
            <g>
              <path class="cls-4" d="M87.54,46.77c-.35,0-.7-.13-.96-.4l-27.75-27.75-27.59,27.59c-.53.53-1.4.53-1.93,0-.53-.53-.53-1.39,0-1.93l28.55-28.55c.53-.53,1.4-.53,1.93,0l28.71,28.71c.53.53.53,1.39,0,1.93-.27.27-.61.4-.96.4Z"/>
              <g>
                <polyline class="cls-2" points="41.03 34.37 41.03 18 49.01 18 49.01 25.69"/>
                <path class="cls-4" d="M41.03,35.73c-.75,0-1.36-.61-1.36-1.36v-16.37c0-.75.61-1.36,1.36-1.36h7.99c.75,0,1.36.61,1.36,1.36v7.69c0,.75-.61,1.36-1.36,1.36s-1.36-.61-1.36-1.36v-6.33h-5.26v15.01c0,.75-.61,1.36-1.36,1.36Z"/>
              </g>
            </g>
          </g>
          <g>
            <path class="cls-4" d="M97.95,49.25c-1.26-3.58-2.42-6.41-3.36-8.68-2.07-5.03-3.22-7.8-2.73-11.97.07-.58-.24-1.14-.78-1.39-.53-.25-1.16-.13-1.56.29-1.58,1.66-2.57,3.19-3.32,4.6-3.03-6.89-7.46-13.04-9.67-14.06-.44-.2-.96-.16-1.36.13-.4.28-.61.76-.57,1.24.29,3.03-1.2,5.59-3.1,8.83-.78,1.33-1.58,2.71-2.35,4.26-.95,1.87-1.79,3.62-2.53,5.24-.04-.77-.04-1.53,0-2.29.04-.55-.27-1.08-.77-1.32-.5-.24-1.1-.15-1.51.22-.45.41-10.96,10.26-5.31,27.01,2.29,8.04,9.72,13.65,18.09,13.65,5.33,0,13.01-.72,18.19-6.96.03-.03.05-.06.07-.1,4.06-5.92,4.9-12.04,2.55-18.71Z"/>
            <path class="cls-2" d="M85.55,61.06c-1.59-4.51-2.73-5.8-2.43-8.38-.99,1.04-1.34,1.92-1.74,2.78-1.18-3.2-3.25-6.04-4-6.39.18,1.9-1.14,3.31-2.2,5.46-.79,1.56-1.33,2.78-1.69,3.73-.25-.85-.39-1.81-.32-2.84,0,0-4.09,3.74-1.94,10.09.82,2.89,3.47,5,6.62,5,2.61,0,5.07-.52,6.76-2.55,1.08-1.57,2.02-3.84.94-6.89Z"/>
          </g>
        </g>
        <g>
          <circle class="cls-1" cx="21.85" cy="52.25" r="9.33"/>
          <g>
            <path class="cls-2" d="M20.62,52.82l-3.36-1.86c-.43-.24-.97.02-1.05.51-.15.92-.14,2.28,1.01,2.9,1.36.73,2.69.3,3.5-.36.39-.32.35-.94-.1-1.18Z"/>
            <path class="cls-2" d="M24.63,52.15l2.86-2.57c.37-.33.95-.2,1.13.26.36.87.65,2.19-.34,3.05-1.16,1.02-2.56.9-3.49.43-.45-.23-.55-.84-.17-1.17Z"/>
          </g>
          <path class="cls-1" d="M29.06,65.22c-.84-3.26-3.78-5.63-7.16-5.64-.04,0-.08,0-.12,0-3.37.02-6.31,2.38-7.16,5.64-.32,1.25-.56,2.49-.69,3.7h15.82c-.14-1.22-.37-2.45-.69-3.7Z"/>
        </g>
      </g>
    </g>
  </g>
</svg>