<?xml version="1.0" encoding="UTF-8"?>
<svg id="_レイヤー_2" data-name="レイヤー_2" xmlns="http://www.w3.org/2000/svg" viewBox="0 0 112.49 97.42">
  <defs>
    <style>
      .cls-1 {
        fill: #333;
      }

      .cls-2, .cls-3, .cls-4, .cls-5, .cls-6, .cls-7 {
        stroke-linecap: round;
      }

      .cls-2, .cls-4, .cls-8 {
        stroke-miterlimit: 10;
      }

      .cls-2, .cls-4, .cls-5, .cls-7 {
        stroke: #323333;
      }

      .cls-2, .cls-4, .cls-6, .cls-7 {
        fill: none;
      }

      .cls-2, .cls-5, .cls-7 {
        stroke-width: 1.64px;
      }

      .cls-3, .cls-9, .cls-8, .cls-5 {
        fill: #fff;
      }

      .cls-3, .cls-8, .cls-6 {
        stroke: #333;
      }

      .cls-3, .cls-5, .cls-6, .cls-7 {
        stroke-linejoin: round;
      }

      .cls-3, .cls-6 {
        stroke-width: 1.7px;
      }

      .cls-4 {
        stroke-width: 1.56px;
      }

      .cls-8 {
        stroke-width: 1.89px;
      }

      .cls-10 {
        fill: #323333;
      }

      .cls-11 {
        fill: #fffeee;
        fill-rule: evenodd;
      }
    </style>
  </defs>
  <g id="_レイヤー_1-2" data-name="レイヤー_1">
    <g>
      <polygon class="cls-11" points="84.37 0 28.12 0 0 48.71 28.12 97.42 84.37 97.42 112.49 48.71 84.37 0"/>
      <g>
        <g>
          <g>
            <path class="cls-3" d="M47.03,25.86c-1.12-1.4-1.55-3.22-1.78-4.99-.23-1.77-.31-3.59-.86-5.29-.55-1.7-1.69-3.33-3.37-3.94-1.29-.46-2.79-.25-3.9.55s-1.78,2.17-1.74,3.53c.06,2.16,1.72,3.89,3.27,5.4-.75-.36-1.52-.73-2.35-.76s-1.74.37-2.04,1.14c-.29.75.08,1.63.67,2.17s1.38.82,2.14,1.08c-1.03-.5-2.29.65-2.21,1.79s1.08,2.04,2.15,2.44c1.69.64,3.63.35,5.28-.39s3.08-1.89,4.74-2.75Z"/>
            <path class="cls-3" d="M82.53,43.37c1.79.04,3.5-.73,5.05-1.62s3.04-1.94,4.72-2.53,3.67-.69,5.18.28c1.15.74,1.9,2.06,1.93,3.43s-.64,2.73-1.75,3.53c-1.75,1.26-4.13,1.01-6.27.7.74.37,1.51.76,2.04,1.4s.76,1.6.33,2.31c-.42.69-1.34.93-2.13.79s-1.49-.6-2.16-1.04c1.03.51.88,2.21-.08,2.84s-2.28.38-3.25-.22c-1.54-.96-2.48-2.66-2.91-4.43s-.38-3.6-.7-5.43Z"/>
            <rect class="cls-8" x="45.43" y="23.34" width="40.87" height="20.43" rx="1.34" ry="1.34" transform="translate(21.64 -25.68) rotate(26.26)"/>
            <g>
              <path class="cls-1" d="M57.54,20.14l-4.45-2.2c-.12-.06-.3.06-.4.26l-1.86,3.78c-.13.27-.06.53.15.48l6.31-1.58c.29-.07.48-.63.25-.75Z"/>
              <path class="cls-1" d="M50.15,35.11l-4.45-2.2c-.12-.06-.13-.27-.03-.47l1.86-3.78c.13-.27.39-.37.47-.18l2.59,5.97c.12.27-.21.76-.44.65Z"/>
            </g>
            <g>
              <path class="cls-1" d="M81.58,32l4.45,2.2c.12.06.13.27.03.47l-1.86,3.78c-.13.27-.39.37-.47.18l-2.59-5.97c-.12-.27.21-.76.44-.65Z"/>
              <path class="cls-1" d="M74.19,46.97l4.45,2.2c.12.06.3-.06.4-.26l1.86-3.78c.13-.27.06-.53-.15-.48l-6.31,1.58c-.29.07-.48.63-.25.75Z"/>
            </g>
            <ellipse class="cls-1" cx="65.86" cy="33.56" rx="7.46" ry="6.47" transform="translate(6.63 77.78) rotate(-63.74)"/>
            <path class="cls-9" d="M64.84,28.78c.34-.09.69.1.78.44l.86,3.07,2.96-1.18c.32-.13.69.03.82.35.13.32-.03.69-.35.82l-3.37,1.34,1.14.56c.31.15.44.53.29.85s-.53.44-.85.29l-1.15-.57-.2.4,1.15.57c.31.15.44.53.29.85s-.53.44-.85.29l-1.15-.57-.59,1.19c-.15.31-.53.44-.85.29s-.44-.53-.29-.85l.59-1.19-1.15-.57c-.31-.15-.44-.53-.29-.85s.53-.44.85-.29l1.15.57.2-.4-1.15-.57c-.31-.15-.44-.53-.29-.85s.53-.44.85-.29l1.14.56-.98-3.49c-.09-.34.1-.69.44-.78Z"/>
          </g>
          <g>
            <path class="cls-6" d="M93.21,55.64c-.67,1.19-1.98,1.99-3.35,2.04"/>
            <path class="cls-6" d="M96.62,56.48c-.39,1.04-1.41,1.81-2.51,1.92"/>
          </g>
          <g>
            <path class="cls-6" d="M30.2,26.4c-.32,1.33.1,2.81,1.06,3.77"/>
            <path class="cls-6" d="M27.13,24.69c-.42,1.03-.21,2.29.53,3.12"/>
          </g>
        </g>
        <g>
          <path class="cls-5" d="M37.3,47.18c1.62-3.03,2.82-6.28,3.54-9.64-.88.78-1.78,1.58-2.87,2.03-.31.13-.96.25-.95.23-2.44.62-2.77-1.65-4.49-1.75-1.71.09-2.06,2.37-4.49,1.75,0,.01-2.7-1.26-3.82-2.26.72,3.36,1.91,6.62,3.54,9.64-5,1.92-8.55,6.77-8.55,12.44,0,7.36-6.18,13.33,13.33,13.33s13.33-5.97,13.33-13.33c0-5.68-3.55-10.52-8.55-12.44Z"/>
          <path class="cls-2" d="M28.17,47.12c1.54.27,3.1.55,4.66.54s3.16-.33,4.51-1.16"/>
          <path class="cls-4" d="M35.76,42.28c-.37.8-.74,1.6-1.11,2.39"/>
          <path class="cls-10" d="M28.46,63.49c-.41.68-.72.83-1.01.83-.51,0-.96-.47-.96-1,0-.23.06-.37.29-.63.55-.64,1.11-1.4,1.63-2.59h-1.04c-.42,0-.65-.29-.65-.83s.23-.82.65-.82h1.09v-.79c-.36.05-.56.08-.74.08-.47,0-.79-.36-.79-.91,0-.65.19-.81,1.06-.9.47-.04,1.23-.14,2.24-.45.15-.04.24-.06.42-.06.45,0,.76.42.76,1.01,0,.51-.28.74-1.15.92v1.1h.67c.42,0,.65.29.65.83s-.23.82-.65.82h-.67v.67c.19-.1.36-.17.5-.17.36,0,.55.23.99,1.1.17.35.22.52.22.72,0,.38-.4.73-.83.73-.33,0-.51-.14-.7-.56-.06-.14-.1-.22-.17-.32v4.2c0,.46-.32.72-.9.72s-.9-.26-.9-.72v-2.98ZM34.45,62.22c-.09,1.77-.4,2.75-1.09,3.75-.54.77-.93,1.08-1.41,1.08-.54,0-1.04-.5-1.04-1.04,0-.32.08-.38.6-.82.28-.23.65-.74.86-1.19.23-.46.35-1.01.38-1.78-.76-.04-1.02-.35-1.02-1.15v-2.42c0-.84.23-1.1,1.04-1.17-.22-.42-.29-.55-.42-.76-.23-.33-.29-.45-.29-.63,0-.45.52-.86,1.1-.86.4,0,.56.13.93.73.28.46.41.77.41,1,0,.17-.09.33-.27.51h.87c.32-.46.59-1.18.81-1.74.13-.33.33-.5.65-.5.61,0,1.17.38,1.17.82,0,.32-.2.83-.55,1.43.69.05.93.36.93,1.15v2.42c-.01,1.09-.42,1.15-1.45,1.15v2.89c0,.14.03.17.17.17.27,0,.28-.13.35-.72.04-.31.27-.47.68-.47.47,0,.78.28.78.7,0,.6-.22,1.42-.45,1.7-.28.36-.65.47-1.51.47s-1.75,0-1.75-1.19v-3.56h-.47ZM33.79,58.94c-.22,0-.28.06-.28.28v1.23c0,.22.06.28.28.28h2.28c.22,0,.28-.06.28-.28v-1.23c0-.22-.06-.28-.28-.28h-2.28Z"/>
          <circle class="cls-1" cx="30.84" cy="47.12" r="1.76"/>
          <path class="cls-7" d="M30.56,47.58c-1.11,1.36-3.7,4.16-5.22,5.03"/>
          <path class="cls-7" d="M29.96,47.83c.37.81,1.18,2.76,1.35,3.64"/>
        </g>
      </g>
    </g>
  </g>
</svg>