<?xml version="1.0" encoding="UTF-8"?>
<svg id="_レイヤー_2" data-name="レイヤー_2" xmlns="http://www.w3.org/2000/svg" xmlns:xlink="http://www.w3.org/1999/xlink" viewBox="0 0 175.01 143.08">
  <defs>
    <style>
      .cls-1 {
        stroke-width: .62px;
      }

      .cls-1, .cls-2, .cls-3, .cls-4, .cls-5, .cls-6, .cls-7, .cls-8, .cls-9, .cls-10, .cls-11, .cls-12, .cls-13, .cls-14, .cls-15, .cls-16, .cls-17, .cls-18, .cls-19, .cls-20, .cls-21, .cls-22, .cls-23, .cls-24 {
        stroke-linecap: round;
        stroke-linejoin: round;
      }

      .cls-1, .cls-2, .cls-3, .cls-4, .cls-5, .cls-6, .cls-7, .cls-8, .cls-9, .cls-10, .cls-12, .cls-13, .cls-14, .cls-15, .cls-16, .cls-17, .cls-18, .cls-19, .cls-20, .cls-21, .cls-22, .cls-23, .cls-24 {
        stroke: #231815;
      }

      .cls-1, .cls-5, .cls-7, .cls-8, .cls-11, .cls-25, .cls-17 {
        fill: none;
      }

      .cls-2, .cls-9, .cls-22 {
        fill: #fabe00;
      }

      .cls-2, .cls-20 {
        stroke-width: .97px;
      }

      .cls-3, .cls-6, .cls-10, .cls-26, .cls-12, .cls-13, .cls-15, .cls-18, .cls-19, .cls-20, .cls-21, .cls-23 {
        fill: #fff;
      }

      .cls-3, .cls-17 {
        stroke-width: .91px;
      }

      .cls-4 {
        fill: #dcdddd;
      }

      .cls-4, .cls-7, .cls-9, .cls-12, .cls-14, .cls-24 {
        stroke-width: .81px;
      }

      .cls-5, .cls-13, .cls-16, .cls-22 {
        stroke-width: .98px;
      }

      .cls-27 {
        letter-spacing: .05em;
      }

      .cls-6 {
        stroke-width: .81px;
      }

      .cls-8 {
        stroke-width: 1.25px;
      }

      .cls-28 {
        letter-spacing: .08em;
      }

      .cls-29 {
        letter-spacing: .08em;
      }

      .cls-30 {
        letter-spacing: .07em;
      }

      .cls-10 {
        stroke-width: .82px;
      }

      .cls-11 {
        stroke: #fff;
      }

      .cls-11, .cls-21 {
        stroke-width: .68px;
      }

      .cls-31 {
        letter-spacing: -.07em;
      }

      .cls-32 {
        letter-spacing: .07em;
      }

      .cls-33 {
        letter-spacing: .07em;
      }

      .cls-14 {
        fill: #b3b3b4;
      }

      .cls-34 {
        letter-spacing: .09em;
      }

      .cls-35 {
        letter-spacing: .06em;
      }

      .cls-15 {
        stroke-width: .81px;
      }

      .cls-36 {
        letter-spacing: -.44em;
      }

      .cls-37 {
        letter-spacing: -.19em;
      }

      .cls-38 {
        letter-spacing: .05em;
      }

      .cls-39 {
        letter-spacing: .08em;
      }

      .cls-16, .cls-40, .cls-41 {
        fill: #231815;
      }

      .cls-42 {
        letter-spacing: .08em;
      }

      .cls-43 {
        letter-spacing: .05em;
      }

      .cls-44 {
        clip-path: url(#clippath-1);
      }

      .cls-45 {
        fill: #e4886f;
        font-family: NotoSansJP-Bold, 'Noto Sans JP';
        font-size: 11.27px;
        font-variation-settings: 'wght' 700;
        font-weight: 700;
      }

      .cls-46 {
        letter-spacing: .07em;
      }

      .cls-18 {
        stroke-width: .82px;
      }

      .cls-47 {
        letter-spacing: .07em;
      }

      .cls-48 {
        letter-spacing: .08em;
      }

      .cls-49 {
        letter-spacing: .07em;
      }

      .cls-19 {
        stroke-width: .97px;
      }

      .cls-41 {
        font-family: ShinMGoPro-Regular-90ms-RKSJ-H, 'A-OTF Shin Maru Go Pro';
        font-size: 6.71px;
      }

      .cls-50 {
        letter-spacing: .02em;
      }

      .cls-51 {
        letter-spacing: .08em;
      }

      .cls-23 {
        stroke-width: .89px;
      }

      .cls-24 {
        fill: #9fa0a0;
      }

      .cls-52 {
        clip-path: url(#clippath);
      }

      .cls-53 {
        letter-spacing: .02em;
      }

      .cls-54 {
        letter-spacing: .09em;
      }

      .cls-55 {
        letter-spacing: .08em;
      }

      .cls-56 {
        letter-spacing: -.44em;
      }

      .cls-57 {
        letter-spacing: -.19em;
      }
    </style>
    <clipPath id="clippath">
      <rect class="cls-25" x="40.32" y="76" width="48.9" height="67.08"/>
    </clipPath>
    <clipPath id="clippath-1">
      <rect class="cls-25" x="88.89" y="76" width="54.85" height="67.08"/>
    </clipPath>
  </defs>
  <g id="_レイヤー_1-2" data-name="レイヤー_1">
    <g>
      <path class="cls-26" d="M174.38,60c0-15.72-12.74-28.46-28.46-28.46-1.62,0-3.21.14-4.76.4-3.61-11.57-14.41-19.98-27.18-19.98-3.56,0-6.97.66-10.11,1.85-5.05-7.93-13.92-13.19-24.01-13.19-10.8,0-20.2,6.02-25.02,14.88-2.23-.56-4.55-.86-6.95-.86-15.14,0-27.52,11.82-28.41,26.74C8.49,45.33.63,55.84.63,68.19c0,15.72,12.74,28.46,28.46,28.46,3.22,0,6.32-.54,9.2-1.53,5.21,6.59,13.28,10.83,22.33,10.83,7.21,0,13.79-2.69,18.81-7.11,3.35,1.39,7.03,2.16,10.88,2.16,4.7,0,9.14-1.15,13.05-3.17,5.09,4.76,11.92,7.68,19.44,7.68,11.73,0,21.79-7.09,26.15-17.22,14.29-1.52,25.42-13.61,25.42-28.3Z"/>
      <path class="cls-8" d="M174.38,60c0-15.72-12.74-28.46-28.46-28.46-1.62,0-3.21.14-4.76.4-3.61-11.57-14.41-19.98-27.18-19.98-3.56,0-6.97.66-10.11,1.85-5.05-7.93-13.92-13.19-24.01-13.19-10.8,0-20.2,6.02-25.02,14.88-2.23-.56-4.55-.86-6.95-.86-15.14,0-27.52,11.82-28.41,26.74C8.49,45.33.63,55.84.63,68.19c0,15.72,12.74,28.46,28.46,28.46,3.22,0,6.32-.54,9.2-1.53,5.21,6.59,13.28,10.83,22.33,10.83,7.21,0,13.79-2.69,18.81-7.11,3.35,1.39,7.03,2.16,10.88,2.16,4.7,0,9.14-1.15,13.05-3.17,5.09,4.76,11.92,7.68,19.44,7.68,11.73,0,21.79-7.09,26.15-17.22,14.29-1.52,25.42-13.61,25.42-28.3Z"/>
    </g>
    <text class="cls-45" transform="translate(37.97 29.89)"><tspan x="0" y="0">どうしたらいい？</tspan></text>
    <text class="cls-41" transform="translate(27.61 43.51)"><tspan class="cls-54" x="0" y="0">手</tspan><tspan class="cls-51" x="7.34" y="0">間</tspan><tspan class="cls-55" x="14.57" y="0">も</tspan><tspan class="cls-34" x="21.82" y="0">時</tspan><tspan class="cls-48" x="29.14" y="0">間</tspan><tspan class="cls-27" x="36.38" y="0">も</tspan><tspan class="cls-28" x="43.41" y="0">か</tspan><tspan class="cls-46" x="50.63" y="0">け</tspan><tspan class="cls-39" x="57.8" y="0">ず</tspan><tspan class="cls-35" x="65.03" y="0">に</tspan><tspan class="cls-36" x="72.14" y="0">、</tspan><tspan class="cls-33" x="0" y="13.41">空</tspan><tspan class="cls-29" x="7.14" y="13.41">き</tspan><tspan class="cls-47" x="14.36" y="13.41">家</tspan><tspan class="cls-43" x="21.56" y="13.41">を</tspan><tspan class="cls-42" x="28.61" y="13.41">ス</tspan><tspan class="cls-50" x="35.84" y="13.41">ム</tspan><tspan class="cls-31" x="42.67" y="13.41">ー</tspan><tspan class="cls-49" x="48.93" y="13.41">ズ</tspan><tspan class="cls-35" x="56.1" y="13.41">に</tspan><tspan class="cls-32" x="0" y="26.82">手</tspan><tspan class="cls-38" x="7.17" y="26.82">放</tspan><tspan class="cls-53" x="14.2" y="26.82">し</tspan><tspan class="cls-30" x="21.07" y="26.82">た</tspan><tspan class="cls-37" x="28.22" y="26.82">い</tspan><tspan class="cls-56" x="33.65" y="26.82">・・</tspan><tspan class="cls-57" x="41.16" y="26.82">・</tspan></text>
    <g>
      <g>
        <rect class="cls-4" x="106.17" y="70.67" width="1.23" height="5.97" transform="translate(213.57 147.31) rotate(180)"/>
        <path class="cls-24" d="M102.83,68.63c-.18-.34-.28-.73-.28-1.15,0-1.18.82-2.17,1.91-2.43-.12-.29-.18-.61-.18-.94,0-1.38,1.12-2.51,2.51-2.51s2.51,1.12,2.51,2.51c0,.33-.06.65-.18.94,1.1.27,1.91,1.25,1.91,2.43,0,.41-.1.8-.28,1.15.97.34,1.67,1.27,1.67,2.36,0,1.38-1.12,2.51-2.51,2.51-.59,0-1.13-.2-1.56-.55-.43.34-.97.55-1.56.55s-1.13-.2-1.56-.55c-.43.34-.97.55-1.56.55-1.38,0-2.51-1.12-2.51-2.51,0-1.09.7-2.02,1.67-2.36Z"/>
        <path class="cls-7" d="M102.4,71.06c0,.67.54,1.21,1.21,1.21"/>
        <path class="cls-7" d="M103.64,67.94c0,.67.54,1.21,1.21,1.21"/>
        <path class="cls-7" d="M105.24,71.09c0,.67.54,1.21,1.21,1.21"/>
        <path class="cls-7" d="M105.73,67.25c0,.67.54,1.21,1.21,1.21"/>
        <path class="cls-7" d="M105.15,64.1c0,.67.54,1.21,1.21,1.21"/>
      </g>
      <polygon class="cls-9" points="152.39 51.88 108.65 38.13 108.65 76.64 152.39 76.64 152.39 51.88"/>
      <rect class="cls-12" x="129.46" y="47.63" width="2.96" height="3.79" transform="translate(261.89 99.05) rotate(180)"/>
      <rect class="cls-12" x="121.91" y="47.63" width="2.96" height="3.79" transform="translate(246.79 99.05) rotate(180)"/>
      <rect class="cls-12" x="114.37" y="47.63" width="2.96" height="3.79" transform="translate(231.7 99.05) rotate(180)"/>
      <rect class="cls-12" x="129.46" y="53.2" width="2.96" height="3.79" transform="translate(261.89 110.18) rotate(180)"/>
      <rect class="cls-12" x="121.91" y="53.2" width="2.96" height="3.79" transform="translate(246.79 110.18) rotate(180)"/>
      <rect class="cls-12" x="114.37" y="53.2" width="2.96" height="3.79" transform="translate(231.7 110.18) rotate(180)"/>
      <rect class="cls-12" x="140.32" y="53.42" width="10.51" height="20.31" transform="translate(291.16 127.15) rotate(180)"/>
      <rect class="cls-14" x="118.11" y="63.71" width="6.56" height="11.07" transform="translate(242.78 138.5) rotate(180)"/>
      <rect class="cls-12" x="113.81" y="61.17" width="15.17" height="1.69" transform="translate(242.78 124.04) rotate(180)"/>
      <rect class="cls-12" x="140.54" y="59.98" width="10.3" height="4.09" transform="translate(291.37 124.04) rotate(180)"/>
      <line class="cls-12" x1="149.53" y1="64.07" x2="149.53" y2="59.98"/>
      <line class="cls-12" x1="148.24" y1="64.07" x2="148.24" y2="59.98"/>
      <line class="cls-12" x1="146.96" y1="64.07" x2="146.96" y2="59.98"/>
      <line class="cls-12" x1="145.67" y1="64.07" x2="145.67" y2="59.98"/>
      <line class="cls-12" x1="144.38" y1="64.07" x2="144.38" y2="59.98"/>
      <line class="cls-12" x1="143.09" y1="64.07" x2="143.09" y2="59.98"/>
      <line class="cls-12" x1="141.81" y1="64.07" x2="141.81" y2="59.98"/>
      <polygon class="cls-12" points="104.63 36.82 155.07 52.73 155.07 51.04 104.63 35.12 104.63 36.82"/>
      <line class="cls-12" x1="145.67" y1="64.07" x2="145.67" y2="53.39"/>
      <rect class="cls-12" x="120.19" y="64.84" width="2.4" height="3.46" transform="translate(242.78 133.14) rotate(180)"/>
      <rect class="cls-12" x="116.84" y="74.74" width="9.1" height="1.9" transform="translate(242.78 151.38) rotate(180)"/>
      <rect class="cls-12" x="107.1" y="67.4" width="12.01" height="9.24" transform="translate(226.22 144.04) rotate(180)"/>
      <g>
        <rect class="cls-4" x="137.34" y="70.67" width="1.23" height="5.97" transform="translate(275.92 147.31) rotate(180)"/>
        <path class="cls-24" d="M134,68.63c-.18-.34-.28-.73-.28-1.15,0-1.18.82-2.17,1.91-2.43-.12-.29-.18-.61-.18-.94,0-1.38,1.12-2.51,2.51-2.51s2.51,1.12,2.51,2.51c0,.33-.06.65-.18.94,1.1.27,1.91,1.25,1.91,2.43,0,.41-.1.8-.28,1.15.97.34,1.67,1.27,1.67,2.36,0,1.38-1.12,2.51-2.51,2.51-.59,0-1.13-.2-1.56-.55-.43.34-.97.55-1.56.55s-1.13-.2-1.56-.55c-.43.34-.97.55-1.56.55-1.38,0-2.51-1.12-2.51-2.51,0-1.09.7-2.02,1.67-2.36Z"/>
        <path class="cls-7" d="M133.57,71.06c0,.67.54,1.21,1.21,1.21"/>
        <path class="cls-7" d="M134.81,67.94c0,.67.54,1.21,1.21,1.21"/>
        <path class="cls-7" d="M136.42,71.09c0,.67.54,1.21,1.21,1.21"/>
        <path class="cls-7" d="M136.9,67.25c0,.67.54,1.21,1.21,1.21"/>
        <path class="cls-7" d="M136.32,64.1c0,.67.54,1.21,1.21,1.21"/>
      </g>
    </g>
    <g class="cls-52">
      <g>
        <path class="cls-22" d="M85.47,114.19c-.24-.56-.69-.86-1.16-1.15-.52-.32-1.37-.66-2.37-.98-.87-.34-1.66-.55-2.11-.62-3.31-.89-7.03-1.59-7.06-1.59-5.1-.51-9.21-.96-11.03-.45-1.9.53-5.17,1.61-7.8,2.49-1.46.12-4.71.85-5.82,2.33-4.1,5.46-2.57,27.18-.72,31.86.48,1.21,2.31,1.38,4.76.97.21,5.56.54,16.33.35,16.72-.24.48,6.23,1.11,13.34,1.32,9.32.27,17.29-1.31,17.29-1.31,0,0-.35-8.18-.26-17.92.75-.15,1.32-.46,1.66-.95,2.81-4.06,4.91-25.06.94-30.72Z"/>
        <path class="cls-13" d="M55.92,96.23c-1.82-.43-2.62.78-2.3,2.42.32,1.64,1.85,3.02,3.65,2.4"/>
        <path class="cls-13" d="M56.73,99.35c-.24-.64-.76-.81-1.17-.93"/>
        <polygon class="cls-13" points="56.61 111.04 65.71 137.98 75.11 110.53 56.61 111.04"/>
        <path class="cls-13" d="M70.83,103.3s-.42,5.91,1.15,8.32c1.57,2.41-.53,2.27-.53,2.27,0,0-1.66.63-5.32.71-4.22.1-5.28-.52-5.28-.52,0,0-1.43.38.26-2.88,1.69-3.26.94-7.4.94-7.4"/>
        <path class="cls-13" d="M66.02,114.14l3.7,4.22c.07.03,1.58-2.33,2.37-4.05.82-1.79,1.72-3.85,1.67-3.86l-1.81-2.38s-2.44,2.63-3.42,3.61c-.98.99-2.51,2.46-2.51,2.46Z"/>
        <path class="cls-13" d="M66.02,114.14l-3.7,4.22c-.07.03-1.58-2.33-2.37-4.05-.82-1.79-1.72-3.85-1.67-3.86l1.81-2.38s2.44,2.63,3.42,3.61c.98.99,2.51,2.46,2.51,2.46Z"/>
        <path class="cls-16" d="M57.49,80.89c-1.78.11-3.17-.72-3.17-.72-.25,1.62.85,2.76,1.72,3.39-.04.12-.64.67-.67.79-1.48,5.23,2.62,8.98,2.62,8.98l4.98-13.26s-3.57-3.26-5.47.81Z"/>
        <path class="cls-13" d="M57,86.98c-.81,2.56-.55,7.48-.64,11.18-.22,9.3,4.49,11.21,8.99,11.52,5.28.37,8.51-1.59,11.13-7.39,1.3-2.88,2.21-8.2,1.62-11.76-.59-3.56-6.36-9.89-11.76-9.01-5.4.88-7.88.84-9.34,5.46Z"/>
        <path class="cls-16" d="M78,96.95s6.41-8.43-.44-15.31c-4.56-4.57-15.57-4.6-16.45-.56-.12.54,3.19,1.23,5.36,7.13,0,0,1.18-.69,1.41-2.41,0,0,1.66,2.4,4.28,3.31,3.1,1.07,4.97,3.62,5.09,4.3.12.68.26,4.42.26,4.42,0,0,.33-1.68,1.17-1.37.84.31-.68.48-.68.48"/>
        <path class="cls-13" d="M76.86,96.41c1.82-.43,3.69.6,3.38,2.24-.32,1.64-2.29,3.02-4.1,2.4"/>
        <path class="cls-10" d="M64.25,95.27c-1.44,1.99-2.25,2.48-2.25,2.48l2.14,1.67"/>
        <path class="cls-13" d="M76.95,99.35c.24-.64.76-.81,1.17-.93"/>
        <path class="cls-11" d="M71.35,81.47c1.61,3.01,3.16,4.29,4.22,4.83"/>
        <path class="cls-11" d="M69.24,81.77c1.51,3.06,3.02,4.39,4.06,4.97"/>
        <circle class="cls-23" cx="66.36" cy="120.91" r="1.18"/>
        <g>
          <path class="cls-26" d="M64.58,92.72v1.67c0,.92-1.11,1.67-2.46,1.67h-2.17c-1.35,0-2.46-.75-2.46-1.67v-1.67"/>
          <path class="cls-1" d="M64.58,92.72v1.67c0,.92-1.11,1.67-2.46,1.67h-2.17c-1.35,0-2.46-.75-2.46-1.67v-1.67"/>
        </g>
        <g>
          <path class="cls-26" d="M74.62,92.72v1.67c0,.92-1.11,1.67-2.46,1.67h-2.17c-1.35,0-2.46-.75-2.46-1.67v-1.67"/>
          <path class="cls-1" d="M74.62,92.72v1.67c0,.92-1.11,1.67-2.46,1.67h-2.17c-1.35,0-2.46-.75-2.46-1.67v-1.67"/>
        </g>
        <line class="cls-1" x1="78" y1="93.69" x2="74.72" y2="93.69"/>
        <line class="cls-1" x1="67.47" y1="93.69" x2="64.74" y2="93.69"/>
        <line class="cls-1" x1="57.28" y1="93.65" x2="56.19" y2="93.65"/>
        <path class="cls-13" d="M59.11,136.35c2.73-.15,3.84,1.73,4.03,1.15.2-.59,1.33-4,1.33-4-3.51-2.73-4.29-3.6-6.79-4-1.5-.24-2.47-.09-3.86.59.3,1.29,1.65,5.92,1.65,5.92,0,0,2.45.41,3.64.35Z"/>
        <path class="cls-13" d="M75.47,128.13s2.56-1.24,4.51-.98c1.95.26,3.97.36,3.48,1.59-.2.5-2.37.2-2.37.2,0,0,3.66.73,3.03,1.66-.62.92-3.46.29-3.46.29,0,0,2.96,1.27,2.42,1.92-.87,1.04-3.59.1-3.39.03,0,0,2.81,1.35,2.24,1.94-.8.83-2.3.18-3.42-.02-1.05-.19-3.08.46-3.53.78-.46.33-6.05-1.69-6.05-1.69,0,0,3.51-4.38,6.54-5.72Z"/>
        <line class="cls-5" x1="53.19" y1="136.88" x2="56.35" y2="136.2"/>
        <path class="cls-13" d="M63.11,104.92c1.56-1.07,4.58-.88,6.05,0"/>
        <path class="cls-13" d="M59.67,93.22c.65,1.24,2.02,1.11,2.73,0"/>
        <path class="cls-13" d="M69.69,93.22c.65,1.24,2.02,1.11,2.73,0"/>
        <line class="cls-21" x1="59.63" y1="88.02" x2="62.01" y2="87.28"/>
        <path class="cls-5" d="M67.21,141.82c-6.53,2.89-18.47,7.64-19.8,4.26"/>
        <line class="cls-5" x1="52.41" y1="124.95" x2="55.47" y2="136"/>
        <path class="cls-13" d="M79.8,132.85c-.75-.42-2.13-.42-3.49-.39"/>
        <path class="cls-13" d="M80.44,130.83c-1.04-.48-3.2-.47-3.97-.36"/>
        <path class="cls-13" d="M80.89,128.88c-.78-.17-2.75-.07-3.58-.02"/>
        <polyline class="cls-13" points="65.37 132.69 62.9 131.52 60.35 139.01 62.69 139.75"/>
        <path class="cls-22" d="M77.96,136.07c-.39.2-12.76-4.3-13.15-4.2-.39.1-3.12,8.71-3.12,8.71,0,0,19.98,8.48,22.84,4.33"/>
        <path class="cls-22" d="M78.68,126.83c.2-.13,1.04-2.54,1.04-2.54"/>
      </g>
    </g>
    <g class="cls-44">
      <g>
        <path class="cls-2" d="M100.68,100.25c.5-1.71,1.67-5.19,2.47-7.36-.53-1.76-.79-4.05.07-6.5,1.64-4.67,5.8-5.12,8.02-5,3.63-2.07,10.61-1.82,14.95,3.11.53.6,3.41,4.33,3.62,8.92.15,3.42,0,6.17-.6,9.87-1.2,7.4-4.71,8.35-7.67,7.59-2.08-.53-4.73-1.46-6.3-1.52-2.31-.09-3.04.29-5.68.09-2.13-.16-4.27-.62-6.24-1.84-2.25-1.39-3.42-4.78-2.66-7.36Z"/>
        <path class="cls-20" d="M117.09,155.8c-.16-2.1-.07-6.14-.15-9.22-.36-13.2,1.33-24.65,3.84-31.35-2.59-.17-8.3-1.62-11.63-1.84-2.29,7.77-2.91,27.7-2.91,27.7,0,0-.63,8.1-1.2,14.13,3.04.92,7.51,1.52,12.04.58Z"/>
        <path class="cls-20" d="M117.62,104.88s-1.2,6.25.32,8.35c1.45,2.01,2.94,2.22,2.94,2.22,0,0,1.2,3.34-1.05,5.42-1.88,1.74-6.95,1.98-8.39,1.79-1.29-.17-3.96-1.02-4.65-1.98-1.53-2.12-.1-5.15-.1-5.15,0,0,2.42,1.18,3.59-2.24,1.14-3.31.62-8.37.62-8.37"/>
        <path class="cls-2" d="M106.25,141.1s.62-19.92,2.91-27.7c-1.04-.07-1.81-.12-2.11-.15-3.19-.25-6.04.36-7.01,1.89,0,0-8.13,17.47-8.33,17.86-2.5,4.91-.87,8.96.19,9.25,5.21,1.42,8.85-4.58,8.85-4.58.8,3.45.63,4.25.75,6.57.14,2.77-3.04,16.49-3.28,16.96-.15.31,2.79.87,7.03.96,1.44-5.9,1-21.07,1-21.07Z"/>
        <path class="cls-2" d="M125.9,116.63c-.68-.4-4.22-1.22-5.33-1.48-2.51,6.7-3.99,18.24-3.63,31.44.19,6.84.42,13.71.83,16.25,5.01.39,11.17-.48,11.17-.48,0,0-3.18-14.58-3.28-14.93-.43-3.26,2.01-13.06,3.79-20.18.55-2.2-1.66-9.53-3.55-10.62Z"/>
        <path class="cls-2" d="M125.11,135.7l4,5.53s-.84.65-2,1.5c.44,2.07,1.71,4.27,3.23,5.65,2.96-1.62,6.83-3.98,8.03-5.15,1.21-1.19-.3-4.62-2.31-8.69-3.56-7.19-8.45-16.23-8.45-16.23-.54-1.24-1.9-1.71-2.51-1.97"/>
        <path class="cls-2" d="M129.11,141.23c.28-.09,1.82-1.29,1.82-1.29"/>
        <path class="cls-2" d="M98.35,126.07s-3.34,3.64-3.21,3.64"/>
        <path class="cls-19" d="M100.74,137.67c.86-1.5,2.29-5.57,3.1-7.36"/>
        <path class="cls-3" d="M105.03,94.24c-1.71.12-3.1.87-2.99,2.48.11,1.61,1.59,2.82,3.3,2.7"/>
        <path class="cls-3" d="M103.82,97.68c.57-3.53.82-6.58,1.74-9,1.2-3.14,3.03-4.5,5.9-5.21.89,2.29,3.02,6.16,6.46,9.4,3.6,3.39,6.03,5.52,7.15,6.49-.55,1.6-1.23,3.06-1.92,4.08-2.56,3.78-7.23,6.66-12.2,6.12-5.34-.59-8-6.5-7.13-11.87Z"/>
        <path class="cls-17" d="M118.16,87c.98,2.52,3.65,5.68,5.75,6.52"/>
        <path class="cls-17" d="M121.32,86.13c.67,1.97,2.4,4.36,4.11,5.02"/>
        <path class="cls-6" d="M111.79,96.82c-1.84,2.07-3.3,2.37-3.3,2.37l2.41,1.74"/>
        <path class="cls-3" d="M123.73,98.82c1.66.43,2.9,1.41,2.49,2.98-.4,1.57-2.07,2.49-3.73,2.06"/>
        <path class="cls-40" d="M118.74,96.42c.06.46-.26.89-.73.95-.46.06-.89-.26-.95-.73-.06-.46.26-.89.73-.95.46-.06.89.26.95.73Z"/>
        <path class="cls-40" d="M109.89,94.58c.06.46-.26.89-.73.95-.46.06-.89-.26-.95-.73-.06-.46.26-.89.73-.95.46-.06.89.26.95.73Z"/>
        <path class="cls-18" d="M110.12,104.11c1.06-.39,2.63-.13,3.89.64"/>
        <g>
          <path class="cls-19" d="M101.38,102.9c-.18-.67,1.09-.79,1.43-.17.99,1.8,1.51,6.03,1.78,6.07.27.04,1.1-1.55,1.89-1.32.68.2.78,2.11,1.28,1.84,0,0,.75-.61,1.1-.57.65.08.35,1.71.35,1.71,0,0,1.33-.87,1.48-.01.1.57.49,1.9.24,2.58-.15.41-.88.61-1.22.79.18.36.47,1.83-.22,3.09-.6,1.11-1.09,1.24-1.56,1.34l-4.09,12.06s0,0-.03,0c-.23.02-2.02.16-4.12-1.16-2.25-1.41-1.35-3.08-1.35-3.08l5.75-8.08s-.57-3.23-.72-4.17c-.16-.94-.44-2.47-.57-2.98-.49-1.98-.86-5.8-1.43-7.93"/>
          <line class="cls-15" x1="105.37" y1="110.75" x2="107.42" y2="109.48"/>
          <line class="cls-15" x1="105.65" y1="110.52" x2="106.13" y2="109.45"/>
          <path class="cls-15" d="M107.43,111.39s1.89-.94,1.78-.93"/>
          <line class="cls-15" x1="108.94" y1="112.63" x2="109.7" y2="113.82"/>
          <line class="cls-15" x1="108.37" y1="112.95" x2="109.53" y2="112.28"/>
        </g>
        <line class="cls-21" x1="107.55" y1="89.53" x2="109.67" y2="89.24"/>
        <path class="cls-26" d="M121.43,127.15c0,.45-.37.82-.82.82s-.82-.37-.82-.82.37-.82.82-.82.82.37.82.82Z"/>
        <path class="cls-26" d="M120.75,134.03c0,.45-.37.82-.82.82s-.82-.37-.82-.82.37-.82.82-.82.82.37.82.82Z"/>
        <path class="cls-26" d="M120.22,140.39c0,.45-.37.82-.82.82s-.82-.37-.82-.82.37-.82.82-.82.82.37.82.82Z"/>
        <path class="cls-20" d="M128.28,156.3c-.81-.26-1.84-.04-1.84-.04,0,0,.77-.77.21-1.24-.4-.34-1.4-.19-1.91-.08.04-.49.08-.93.1-1.22.1-1.16-.58-2.12-.58-2.12,0,0,2.91-1.47,6.09-3.21-1.53-1.38-2.79-3.58-3.23-5.65-1.99,1.48-5.04,3.79-6.07,4.57-1.83,1.38-1.37,3.21-1.21,4.77.22,2.21,1.83,5.3,3.08,6.36.56.47,1.16.41,1.6.22,0,0,3.13-.99,3.64-1.11.51-.13.94-.98.13-1.24Z"/>
        <path class="cls-3" d="M124.07,104.44c-.02.6-.51,1.07-1.11,1.05-.6-.02-1.07-.51-1.05-1.11.02-.6.51-1.07,1.11-1.05.6.02,1.07.51,1.05,1.11Z"/>
      </g>
    </g>
    <path class="cls-40" d="M146.29,113.64c-.37-.1-.61-.33-.55-.5.07-.18.23-.71.25-.83.03-.12.17-.51.32-.86,0,0,.6-1.41,1.46-2.03.64-.46.86-.57,2.6-1.12,1.72-.58,2.46-1.15,2.74-2.17.38-1.38-.59-2.57-2.54-3.11-1.18-.32-2.42.26-2.42.26-.35.16-.78.46-.97.65-.19.2-.96,1.08-1.31.93l-1.96-.8c-.35-.14-.47-.52-.26-.84,0,0,1.12-1.71,2.34-2.33,1.44-.73,3.31-.8,5.44-.22,3.65,1,5.66,3.54,4.93,6.22-.3,1.09-.78,1.86-1.52,2.46-.71.56-1.21.79-3.42,1.55-1.69.56-2.18,1.01-2.51,2.21-.1.36-.12.49-.12.49-.07.38-.43.6-.8.5l-1.7-.46ZM147.58,116.02c.37.1.59.48.49.85l-.48,1.76c-.1.37-.48.59-.85.49l-1.95-.53c-.37-.1-.59-.48-.49-.85l.48-1.76c.1-.37.48-.59.85-.49l1.95.53Z"/>
    <path class="cls-40" d="M27.74,114.32c-.33.18-.67.19-.74.02-.07-.17-.33-.67-.4-.77-.07-.1-.23-.48-.37-.84,0,0-.55-1.43-.37-2.47.14-.77.22-1.01,1.08-2.61.83-1.61.96-2.54.45-3.47-.69-1.25-2.22-1.43-3.98-.46-1.07.59-1.55,1.87-1.55,1.87-.13.36-.24.87-.24,1.14s.06,1.44-.29,1.58l-1.96.79c-.35.14-.7-.05-.78-.42,0,0-.39-2.01.05-3.3.53-1.53,1.82-2.88,3.75-3.95,3.31-1.83,6.53-1.41,7.87,1.02.55.99.74,1.87.62,2.82-.12.9-.32,1.41-1.37,3.5-.82,1.58-.85,2.24-.25,3.33.18.33.25.44.25.44.21.32.11.73-.22.91l-1.54.85ZM30.32,115.12c.33-.18.76-.06.94.27l.89,1.6c.18.33.06.76-.27.94l-1.77.98c-.33.18-.76.06-.94-.27l-.89-1.6c-.18-.33-.06-.76.27-.94l1.77-.98Z"/>
  </g>
</svg>