<?xml version="1.0" encoding="UTF-8"?>
<svg id="_レイヤー_2" data-name="レイヤー_2" xmlns="http://www.w3.org/2000/svg" viewBox="0 0 112.49 97.42">
  <defs>
    <style>
      .cls-1 {
        fill: #fffeee;
        fill-rule: evenodd;
      }

      .cls-2 {
        fill: #231815;
      }

      .cls-3 {
        fill: none;
        stroke: #231815;
        stroke-linecap: round;
        stroke-linejoin: round;
        stroke-width: 1.18px;
      }
    </style>
  </defs>
  <g id="_レイヤー_1-2" data-name="レイヤー_1">
    <g>
      <polygon class="cls-1" points="84.37 0 28.12 0 0 48.71 28.12 97.42 84.37 97.42 112.49 48.71 84.37 0"/>
      <g>
        <g>
          <g>
            <polygon class="cls-2" points="57.55 31.38 20.1 53.15 27.94 23.54 57.55 31.38"/>
            <rect class="cls-2" x="39.03" y="22.24" width="7.26" height="9.5" transform="translate(-7.79 25.09) rotate(-30.17)"/>
          </g>
          <path class="cls-2" d="M67.53,52.95H29.81l11.51,29.34h37.72l-11.51-29.34ZM61.62,59.24l2.96,7.54h-9.64l-2.96-7.54h9.64ZM40.66,59.24h9.64l2.96,7.54h-9.64l-2.96-7.54ZM47.24,76.01l-2.96-7.54h9.64l2.96,7.54h-9.64ZM55.6,68.46h9.64l2.96,7.54h-9.64l-2.96-7.54Z"/>
        </g>
        <line class="cls-3" x1="39.16" y1="49.82" x2="77.57" y2="26.99"/>
        <path class="cls-3" d="M25.13,71.59c-.69.41-.91,1.3-.5,1.99.51.86,1.63,1.14,2.49.63,1.08-.64,1.43-2.04.79-3.11-.8-1.35-2.55-1.78-3.89-.98-1.68,1-2.23,3.18-1.23,4.86,1.26,2.1,3.98,2.79,6.08,1.53l6.41-3.83"/>
        <path class="cls-3" d="M58.93,19.09c-.69.41-.91,1.3-.5,1.99.51.86,1.63,1.14,2.49.63,1.08-.64,1.43-2.04.79-3.11-.8-1.35-2.55-1.78-3.89-.98-1.68,1-2.23,3.18-1.23,4.86,1.26,2.1,3.98,2.79,6.08,1.53l13.13-8.21"/>
        <path class="cls-3" d="M74.85,22.94c.32.53,1,.7,1.53.39.66-.4.88-1.25.48-1.91-.49-.83-1.57-1.1-2.39-.6-1.03.62-1.37,1.96-.75,2.99.77,1.29,2.45,1.72,3.74.94l8.3-4.96"/>
        <path class="cls-3" d="M63.24,42.81c-.69.41-.91,1.3-.5,1.99.51.86,1.63,1.14,2.49.63,1.08-.64,1.43-2.04.78-3.11-.8-1.35-2.55-1.78-3.89-.98-1.68,1-2.23,3.18-1.23,4.86,1.26,2.1,3.98,2.79,6.08,1.53l18.79-10.64"/>
        <line class="cls-3" x1="72.05" y1="52.32" x2="85.76" y2="44.73"/>
        <line class="cls-3" x1="72.05" y1="59.83" x2="80.89" y2="54.94"/>
        <line class="cls-3" x1="22.14" y1="64.93" x2="30.98" y2="60.04"/>
      </g>
    </g>
  </g>
</svg>