<?xml version="1.0" encoding="UTF-8"?>
<svg id="_レイヤー_2" data-name="レイヤー_2" xmlns="http://www.w3.org/2000/svg" viewBox="0 0 154.38 196.04">
  <defs>
    <style>
      .cls-1, .cls-2 {
        fill: #6a3906;
      }

      .cls-3 {
        font-size: 22.2px;
      }

      .cls-3, .cls-2, .cls-4 {
        font-family: NotoSansJP-Bold, 'Noto Sans JP';
        font-variation-settings: 'wght' 700;
        font-weight: 700;
      }

      .cls-3, .cls-4 {
        fill: #f3e9dd;
      }

      .cls-5 {
        fill: #fff;
      }

      .cls-6 {
        fill: #d3edfb;
      }

      .cls-7, .cls-8 {
        font-size: 22.03px;
      }

      .cls-9 {
        fill: #4d4d4d;
      }

      .cls-10 {
        fill: #e4886f;
      }

      .cls-4 {
        font-size: 23.72px;
      }

      .cls-11 {
        fill: #fff100;
      }

      .cls-12 {
        fill: #a6a6a6;
      }

      .cls-13 {
        fill: #79a7d9;
      }

      .cls-14 {
        fill: #f29750;
      }

      .cls-8 {
        letter-spacing: .11em;
      }

      .cls-15 {
        font-size: 25.35px;
      }
    </style>
  </defs>
  <g id="_レイヤー_1-2" data-name="レイヤー_1">
    <g>
      <path class="cls-11" d="M86.53,34.14l20.77-22.75c.34-.37.91-.4,1.28-.06.37.34.4.91.06,1.28,0,0-.02.02-.03.03l-21.75,21.81c-.09.09-.24.09-.33,0-.09-.09-.09-.23,0-.32Z"/>
      <path class="cls-11" d="M92.63,57.22l30.79.88c.5.01.89.43.88.93-.01.5-.43.89-.93.88-.01,0-.03,0-.04,0l-30.72-2.23c-.13,0-.22-.12-.21-.25,0-.12.11-.22.24-.21Z"/>
      <path class="cls-11" d="M90.51,46.19l41.32-14.46c.47-.17.99.08,1.15.56.17.47-.08.99-.56,1.15,0,0-.02,0-.03,0l-41.75,13.18c-.12.04-.25-.03-.29-.15-.04-.12.03-.25.14-.29Z"/>
      <path class="cls-11" d="M52.28,38.08l-25.79-16.83c-.42-.27-.54-.83-.26-1.25.27-.42.83-.54,1.25-.26.01,0,.02.02.03.02l25.03,17.95c.1.07.13.22.05.32-.07.1-.21.13-.31.06Z"/>
      <path class="cls-11" d="M51.47,61.99l-29.59,8.55c-.48.14-.98-.14-1.12-.62s.14-.98.62-1.12c.01,0,.03,0,.04-.01l29.94-7.25c.12-.03.25.05.28.17.03.12-.04.24-.16.28Z"/>
      <path class="cls-11" d="M51.09,50.77l-43.57-4.24c-.5-.05-.86-.49-.81-.99.05-.5.49-.86.99-.81,0,0,.02,0,.03,0l43.42,5.58c.13.02.22.13.2.26-.02.12-.13.21-.25.2Z"/>
      <path class="cls-11" d="M130.25,41.78c-2.19.79-2.59,1.28-2.9,3.58-.79-2.19-1.28-2.59-3.58-2.9,2.19-.79,2.59-1.28,2.9-3.58.79,2.19,1.28,2.59,3.58,2.9Z"/>
      <path class="cls-11" d="M117.93,51.37c-2.19.79-2.59,1.28-2.9,3.58-.79-2.19-1.28-2.59-3.58-2.9,2.19-.79,2.59-1.28,2.9-3.58.79,2.19,1.28,2.59,3.58,2.9Z"/>
      <path class="cls-11" d="M114.41,22.57c-2.19.79-2.59,1.28-2.9,3.58-.79-2.19-1.28-2.59-3.58-2.9,2.19-.79,2.59-1.28,2.9-3.58.79,2.19,1.28,2.59,3.58,2.9Z"/>
      <path class="cls-11" d="M102.16,34.67c-1.22.44-1.45.71-1.62,2-.44-1.22-.71-1.45-2-1.62,1.22-.44,1.45-.71,1.62-2,.44,1.22.71,1.45,2,1.62Z"/>
      <path class="cls-11" d="M127.9,25.94c-1.22.44-1.45.71-1.62,2-.44-1.22-.71-1.45-2-1.62,1.22-.44,1.45-.71,1.62-2,.44,1.22.71,1.45,2,1.62Z"/>
      <path class="cls-11" d="M133.88,54.23c-1.22.44-1.45.71-1.62,2-.44-1.22-.71-1.45-2-1.62,1.22-.44,1.45-.71,1.62-2,.44,1.22.71,1.45,2,1.62Z"/>
      <path class="cls-11" d="M93.94,16.17c-1.22.44-1.45.71-1.62,2-.44-1.22-.71-1.45-2-1.62,1.22-.44,1.45-.71,1.62-2,.44,1.22.71,1.45,2,1.62Z"/>
      <path class="cls-11" d="M79.36,6.63c-1.22.44-1.45.71-1.62,2-.44-1.22-.71-1.45-2-1.62,1.22-.44,1.45-.71,1.62-2,.44,1.22.71,1.45,2,1.62Z"/>
      <path class="cls-11" d="M95.76,2.9c-2.19.79-2.59,1.28-2.9,3.58-.79-2.19-1.28-2.59-3.58-2.9,2.19-.79,2.59-1.28,2.9-3.58.79,2.19,1.28,2.59,3.58,2.9Z"/>
      <path class="cls-11" d="M80.23,22.75c-2.19.79-2.59,1.28-2.9,3.58-.79-2.19-1.28-2.59-3.58-2.9,2.19-.79,2.59-1.28,2.9-3.58.79,2.19,1.28,2.59,3.58,2.9Z"/>
      <path class="cls-11" d="M11.35,54.24c2.31.31,2.8.71,3.58,2.9.31-2.31.71-2.8,2.9-3.58-2.31-.31-2.8-.71-3.58-2.9-.31,2.31-.71,2.8-2.9,3.58Z"/>
      <path class="cls-11" d="M25.39,61.07c2.31.31,2.8.71,3.58,2.9.31-2.31.71-2.8,2.9-3.58-2.31-.31-2.8-.71-3.58-2.9-.31,2.31-.71,2.8-2.9,3.58Z"/>
      <path class="cls-11" d="M22.86,32.17c2.31.31,2.8.71,3.58,2.9.31-2.31.71-2.8,2.9-3.58-2.31-.31-2.8-.71-3.58-2.9-.31,2.31-.71,2.8-2.9,3.58Z"/>
      <path class="cls-11" d="M37.35,41.46c1.29.18,1.56.4,2,1.62.18-1.29.4-1.56,1.62-2-1.29-.18-1.56-.4-2-1.62-.18,1.29-.4,1.56-1.62,2Z"/>
      <path class="cls-11" d="M10.37,38.25c1.29.18,1.56.4,2,1.62.18-1.29.4-1.56,1.62-2-1.29-.18-1.56-.4-2-1.62-.18,1.29-.4,1.56-1.62,2Z"/>
      <path class="cls-11" d="M10.38,67.17c1.29.18,1.56.4,2,1.62.18-1.29.4-1.56,1.62-2-1.29-.18-1.56-.4-2-1.62-.18,1.29-.4,1.56-1.62,2Z"/>
      <path class="cls-11" d="M46.54,25.41c1.29.18,1.56.4,2,1.62.18-1.29.4-1.56,1.62-2-1.29-.18-1.56-.4-2-1.62-.18,1.29-.4,1.56-1.62,2Z"/>
      <path class="cls-11" d="M59.83,6.42c1.29.18,1.56.4,2,1.62.18-1.29.4-1.56,1.62-2-1.29-.18-1.56-.4-2-1.62-.18,1.29-.4,1.56-1.62,2Z"/>
      <path class="cls-11" d="M38.62,9.78c2.31.31,2.8.71,3.58,2.9.31-2.31.71-2.8,2.9-3.58-2.31-.31-2.8-.71-3.58-2.9-.31,2.31-.71,2.8-2.9,3.58Z"/>
      <path class="cls-11" d="M58.26,19.66c2.31.31,2.8.71,3.58,2.9.31-2.31.71-2.8,2.9-3.58-2.31-.31-2.8-.71-3.58-2.9-.31,2.31-.71,2.8-2.9,3.58Z"/>
    </g>
    <g>
      <path class="cls-5" d="M117.51,45.29c-.42.35-.43.44-.1,1.08.31-.35.24-.7.1-1.08Z"/>
      <path class="cls-5" d="M105.01,43.42c-1.18-.08-2.05-.61-2.81-1.38-.72-.73-1.43-1.46-2.14-2.19-.4-.41-.6-.9-.63-1.48s-.09-1.18-.14-1.79c-.22.14-.18.36-.18.55.01,1.22.04,2.44.06,3.67.11.11.21.22.32.31.91.69,1.82,1.39,2.74,2.07.38.28.79.52,1.2.75.38.22.75.23,1.1-.1.16-.15.32-.29.49-.44Z"/>
      <path class="cls-5" d="M109.28,33.91c0-.24-.19-.41-.43-.4-.24.01-.41.22-.38.45.02.2.2.32.43.31.24-.02.39-.16.39-.36ZM109.75,35.21c-.48.01-.92-.04-1.34-.19-.19-.07-.37-.18-.43-.38-.13-.45-.06-.9.19-1.28.21-.31.59-.17.9-.18.09,0,.2.03.28.07.28.14.49.33.47.68-.02.42,0,.83-.08,1.27Z"/>
      <path class="cls-5" d="M83.4,31.39c-.45-.08-.91-.13-1.42-.14,0,.66.2,1.21.44,1.75.15.33.29.69.64.87.57-.35,1.23-1.16,1.74-2.13-.43-.27-.92-.26-1.39-.35Z"/>
      <path class="cls-5" d="M105.2,33.21c0-.21-.18-.38-.37-.38-.25,0-.44.25-.42.51.02.2.22.37.41.34.21-.03.39-.25.38-.47ZM102.77,33.34c.04-.44.25-.77.68-.88.7-.18,1.38-.11,2.03.23.18.1.32.24.34.46.03.2.08.39.08.59,0,.58-.2.81-.77.9-.07.01-.15.02-.2.02-.57.02-1.12-.02-1.62-.28-.42-.22-.59-.56-.55-1.05Z"/>
      <path class="cls-5" d="M108.17,28.33c-.04-.1-.12-.36-.23-.6-.07-.14-.21-.2-.38-.19-.21,0-.38.19-.35.39.01.07.04.15.07.21.32.69.08,1.26-.38,1.77-.16.19-.37.33-.56.5-.14.13-.16.33-.07.47.09.15.29.21.46.15.07-.02.14-.06.2-.1.75-.48,1.29-1.54,1.23-2.6ZM109.1,30.93s-.05,0-.2.01c-.29.09-.69.21-1.09.36-.19.07-.26.25-.21.42.05.2.25.32.46.27.38-.1.76-.21,1.14-.32.25-.07.36-.22.33-.42-.04-.2-.21-.32-.44-.32ZM104.76,28.51c.08-.2.11-.43.12-.65,0-.2-.22-.37-.4-.36-.15.01-.34.16-.34.34-.03.62-.38,1.07-.75,1.51-.55.68-1.27,1.08-2.18,1.22.26-.42.51-.79.73-1.17.1-.17.19-.36.23-.55.03-.14.02-.3-.02-.44-.04-.15-.19-.25-.35-.22-.11.02-.21.1-.3.18-.05.04-.06.13-.07.21-.18.77-.64,1.33-1.27,1.78-.22.16-.45.32-.65.5-.16.14-.17.33-.07.47.12.17.33.23.52.13.18-.09.34-.21.54-.34.34.33.76.28,1.17.18.81-.2,1.52-.62,2.09-1.23.43-.46.77-.98,1-1.56ZM103.82,31.17c.16.07.33.1.5.16.13.05.26.12.39.22-1,0-1.97.03-2.59.96-.72-.07-1.41-.14-2.11-.19-.47-.04-.93-.04-1.37-.24-.22-.1-.47-.11-.74-.17-.31-.8-.36-1.64-.26-2.49.08-.77.29-1.51.62-2.22.33-.73.87-1.27,1.58-1.63.3-.15.6-.25.93-.08.04.02.09.04.14.05.2.04.36-.04.44-.19.08-.14.05-.34-.07-.46l.47-.05s.03.04.04.05c.11.12.32.15.48.05.02-.01.04-.03.06-.04.73-.74,1.68-.74,2.59-.63,1.18.14,2.27.58,3.17,1.39.28.25.54.53.74.84.48.73.84,1.52,1.09,2.37.15.52.18,1.03.07,1.55-.05.27-.07.54-.14.81-.05.23-.06.43.01.66.06.18.01.38.02.62-.16,0-.28-.01-.39-.02-.3-.03-.59-.09-.89-.1-.51-.01-.93.16-1.18.64-.06.11-.12.22-.19.35-.13-.03-.25-.06-.39-.09-.23-.68-.63-1.23-1.37-1.48.03-.11.05-.21.08-.3.08-.29-.04-.5-.29-.61-.36-.16-.74-.29-1.12-.42-.07-.02-.15,0-.22.01-.16.04-.26.16-.29.31-.03.16.04.3.19.37Z"/>
      <path class="cls-5" d="M107.12,34.5c.09.91.72,1.24,1.52,1.39.34.06.68.1,1.06.15,0,.26.01.51,0,.75-.02.35-.07.69-.11,1.04-.06.56-.25,1.06-.57,1.52-.49.7-1.02,1.36-1.62,1.95-.16.16-.31.33-.43.51-.04.05-.05.11-.05.17-.02.03-.04.06-.07.09-.05.07-.12.13-.14.14-.06,0-.1.03-.14.06-.16.08-.27.23-.37.38-.05-.03-.1-.05-.16-.06-.14-.04-.29-.05-.44-.05-.15,0-.3,0-.45,0-.8,0-1.53-.23-2.11-.8-.81-.81-1.6-1.64-2.4-2.47-.29-.3-.42-.67-.44-1.09-.03-.6-.07-1.2-.1-1.79,0-.15,0-.3-.02-.45-.04-.47-.14-.55-.59-.58-.35-.02-.7-.04-1.03-.13-.81-.24-1.22-1.14-.92-1.92.05-.13.14-.27.24-.37.17-.17.38-.26.61-.13.17.09.36.18.5.31.17.15.35.23.54.11.21-.13.42-.15.65-.14.42.02.85.04,1.27.1.19.03.36.15.53.22.05.21.08.38.13.55.17.62.57,1.04,1.17,1.26.64.23,1.3.34,1.98.27.69-.08,1.25-.34,1.46-1.07.01-.05.04-.09.07-.13.01-.02.03-.04.05-.06.17-.08.28.01.36.15.02.04.04.09.04.14ZM105.48,40.67c.45-.08.96-.2,1.33-.6.1-.1.18-.23.24-.37.06-.15,0-.29-.12-.4-.13-.1-.27-.12-.41-.02-.1.07-.17.18-.27.24-.16.11-.33.23-.51.28-.72.18-1.11,0-1.45-.68-.06-.11-.09-.23-.16-.34-.1-.16-.31-.24-.45-.17-.17.08-.27.22-.26.41,0,.05,0,.1.02.15.21.88,1.08,1.53,2.05,1.5ZM107.22,37.46s.15-.03.23-.07c.16-.07.24-.27.19-.44-.06-.2-.28-.31-.54-.26-.23.05-.37.2-.38.39,0,.17.13.34.3.37.05,0,.1,0,.2,0Z"/>
      <path class="cls-5" d="M122.52,46.18c-.06-.59-.16-1.18-.25-1.78-.06-.44-.31-.71-.73-.85-.65-.21-1.31-.31-1.98-.3-.21,0-.44.09-.63.19-.07.04-.1.22-.09.33,0,.07.12.17.2.18.42.06.84.09,1.26.14.22.03.44.07.66.12.09.02.19.07.27.12.21.13.29.37.21.58-.09.2-.3.26-.57.15-.78-.34-1.58-.37-2.4-.25-.13.25-.12.45.02.67.37.02.74.02,1.11.06.34.04.69.11,1.03.19.21.05.43.13.63.22.17.08.24.29.19.45-.07.19-.29.31-.49.22-.44-.19-.9-.28-1.37-.34-.39-.05-.79-.06-1.18.08-.09.31-.04.56.13.76.65.04,1.27.07,1.89.13.19.02.38.11.54.21.13.08.18.24.11.4-.07.15-.18.25-.35.24-.12,0-.24-.06-.36-.09-.47-.09-.93-.16-1.41-.09-.22.03-.36.15-.39.47.26.15.49.28.73.41.27.16.37.39.3.7-.03.15-.09.28-.13.43-.25.85-.13,1.62.48,2.3.26.29.58.54.67.95.7.14,1.35.27,2.01.39.07.01.15-.02.25-.03.16-.24.11-.51.1-.78-.04-.95-.08-1.89-.15-2.84-.09-1.25-.18-2.49-.29-3.73Z"/>
      <path class="cls-5" d="M88.58,47.55c.18.48,1.31,1.93,1.77,2.34.23-.54.33-.96.33-1.63-.16.08-.26.17-.37.19-.11.02-.27.03-.35-.03-.29-.23-.58-.47-.81-.75-.24-.29-.33-.66-.28-1.05.03-.19.04-.38.07-.59-.47.18-.6.32-.57.68.03.29.11.58.21.86Z"/>
      <path class="cls-5" d="M92.38,53.12c-.12.13-.31.17-.46.07v.22s.03.08.04.11c.16.01.34.13.38.28.05.16.06.34.1.51.04.16.1.32.17.52.84-.18,1.64-.37,2.51-.71-.39-.43-.38-.87-.32-1.32.18-1.26.35-2.52.53-3.77.17-1.16.37-2.31.54-3.47.08-.49.11-.99-.09-1.47-.02-.05-.03-.1-.03-.15-.01-.16.12-.35.27-.41.05-.02.1-.02.14-.02v-.35c-.1,0-.18-.05-.22-.12-.02.09-.07.17-.14.23-.15.13-.36.12-.54-.02-.22-.16-.42-.35-.66-.48-1.1-.59-2.27-1.02-3.47-1.36-.16-.04-.33-.03-.5-.03-.13.26-.22.49-.09.73,1.25.33,2.4.86,3.58,1.32.07.03.14.06.21.09.04.02.08.06.12.08.18.14.24.34.14.53-.11.21-.34.28-.58.14-.87-.5-1.82-.79-2.75-1.14-.32-.12-.65-.24-1-.18-.18.25-.27.49-.24.81.18.06.37.13.56.19.94.32,1.89.63,2.83.96.18.06.37.15.52.27.19.15.17.48,0,.67-.13.15-.32.15-.53,0-.16-.11-.32-.24-.5-.31-.72-.27-1.45-.53-2.18-.78-.25-.09-.51-.18-.83-.15-.04.31-.08.6-.11.89.11.04.18.09.25.1.98.1,1.88.47,2.75.9.15.08.3.17.43.29.19.18.17.49-.02.66-.15.14-.33.12-.53-.05-.15-.13-.29-.28-.46-.37-.59-.33-1.24-.52-1.9-.64-.19-.03-.4-.07-.57.1-.15.55.1.9.57,1.15.18-.15.33-.33.59-.26.24.07.35.27.45.47.19.37.17.77.08,1.17-.08.39-.16.78-.23,1.17-.08.46.02.9.27,1.29.19.29.41.56.62.84.09.12.21.21.3.33.11.15.09.36-.02.48Z"/>
      <path class="cls-5" d="M50.35,57.73c-.53-.66-1.07-1.32-1.59-1.98-.4-.51-.79-1.03-1.19-1.54-.12-.15-.25-.3-.42-.51-.2.28-.38.52-.56.78.31.69,2.92,4.37,3.69,5.17q.45-.27.82-.82c-.17-.41-.46-.75-.74-1.1Z"/>
      <path class="cls-5" d="M48.66,46.77c.09-.17.22-.33.35-.48.67-.74,1.36-1.46,2.03-2.2.09-.1.26-.18.15-.41-.32-.05-.64-.07-.96-.07-.36,0-.72.04-1.08.11-.13.03-.26.14-.36.25-.11.13-.21.28-.28.44-.28.68-.56,1.35-.83,2.03l.95.39s.01-.04.02-.05Z"/>
      <path class="cls-5" d="M57.08,36.68c.43.45.87.9,1.34,1.39.01-.53-.33-1.71-.73-2.61-.11-.03-.22-.06-.31-.08-.21.14-.3.6-.3,1.31Z"/>
      <path class="cls-5" d="M55.03,32c.68.69,1.38,1.36,2.13,2.09-.14-.78-.71-1.96-1.31-2.79-.38.03-.79.07-1.21.09-.05,0-.11,0-.16,0l-.02.21c.16.02.33.16.57.41Z"/>
      <path class="cls-5" d="M54.02,38.97c.23-.6.45-1.21.7-1.87-.59-.92-1.22-1.83-1.9-2.78-.12.09-.23.14-.31.22-.25.24-.48.49-.72.74.68,1.24,1.37,2.48,2.05,3.72,0,.02.04.02.06.03.02,0,.05,0,.07,0,.02-.01.04-.03.04-.06Z"/>
      <path class="cls-5" d="M47.71,28.75c-.18-.08-.35-.17-.51-.25-.04.05-.06.07-.06.09,0,.02,0,.05.02.07,1.48,1.9,2.88,3.86,4.18,5.96.19-.2.35-.36.5-.52.54-.59,1.07-1.18,1.61-1.76.12-.13.24-.25.37-.37.29-.27.46-.39.65-.37l.02-.21c-.12,0-.24-.02-.35-.04-.74-.13-1.46-.32-2.14-.63-1.43-.65-2.85-1.31-4.27-1.97Z"/>
      <path class="cls-5" d="M56.58,46.96c-.05.19-.15.37-.25.54-.08.13-.23.19-.39.14-.17-.05-.3-.23-.27-.4.02-.15.07-.29.11-.43.25-.89.33-1.81.37-2.73.01-.27-.01-.55-.05-.82-.02-.14-.09-.3-.19-.39-.25-.21-.53-.34-.89-.25-.03.26-.07.48-.09.7-.07.77-.13,1.54-.21,2.31-.02.25-.07.49-.12.74-.05.22-.26.34-.45.31-.17-.04-.29-.18-.3-.38,0-.15,0-.3.02-.45.08-.77.19-1.53.25-2.3.05-.62.05-1.24.08-1.87.02-.43-.19-.78-.42-1.1-.28-.37-.79-.36-1.09,0-.19.23-.34.49-.53.73-.06.08-.15.12-.25.13,0,.03-.02.06-.04.08-.32.45-.67.88-1,1.32.25.04.49.07.75-.02.06-.21.11-.4.17-.59.03-.09.05-.19.09-.28.07-.15.28-.24.45-.19.16.04.25.17.26.33,0,.17,0,.35-.04.52-.08.34-.18.67-.26,1.01-.12.45-.37.8-.69,1.13-.76.81-1.64,1.53-2.18,2.54-.1.18-.33.22-.53.13-.22-.11-.34-.35-.26-.57l-.95-.39h0c-.17.43-.35.86-.52,1.29-.21.53-.2,1.07.07,1.59.14.26.26.54.41.8.12.22.28.41.41.63.36.6.42,1.21.06,1.84-.11.19-.2.39-.3.59.46.63.89,1.24,1.35,1.83.58.75,1.16,1.5,1.76,2.24.15.18.29.38.43.57.08-.13.22-.16.37-.16,0-.09.05-.18.13-.26.18-.17.38-.32.58-.46,1.9-1.39,3.62-2.97,5.19-4.73.19-.21.35-.42.41-.7.23-1.13.4-2.26.28-3.41-.01-.09,0-.21-.18-.25-.03.07-.09.14-.11.22-.09.31-.15.63-.26.93-.07.21-.28.3-.48.25-.19-.05-.33-.25-.26-.47.12-.38.09-.78.22-1.16.14-.42.16-.88.21-1.32.03-.28,0-.56-.22-.76-.08-.07-.2-.09-.34-.16-.03.17-.05.29-.08.41-.08.39-.14.78-.24,1.17Z"/>
      <path class="cls-5" d="M45.87,25.94c-.01.29-.05.59-.07.85.33.18.65.36.97.54,1.89,1.07,3.85,1.99,5.86,2.81.41.17.85.27,1.29.37.45.11.67.07,1.38-.13.17-.38.28-.76.3-1.21-.33-.06-.64-.13-.96-.18-.57-.09-1.1-.29-1.59-.61-1.66-1.11-3.27-2.28-4.83-3.53-.62-.5-.96-1.11-1.02-1.91-.07-.84-.2-1.68-.3-2.54-.25-.14-.48-.26-.77-.42-.06.17-.14.3-.14.43-.02.8,0,1.59-.02,2.39-.02,1.05-.06,2.09-.1,3.14Z"/>
      <path class="cls-5" d="M60.11,15.42c-.19.01-.35.21-.34.41.02.27.22.46.48.45.21-.01.35-.18.33-.4-.01-.27-.23-.47-.47-.45ZM56.24,12.45c.22.06.44-.17.4-.4-.04-.24-.21-.39-.42-.49-.43-.21-.9-.26-1.46-.26-.13.05-.35.1-.54.19-.2.1-.26.32-.18.51.07.16.23.24.43.21.1-.01.19-.05.29-.07.4-.08.78-.04,1.14.16.11.06.21.12.33.15ZM55.11,6.87c-.04-.07-.04.08-.05.11-.03.11.03.25.14.3.03.01.06.02.09.03-.05.13-.04.3.03.44.09.18.3.25.52.19.05-.02.09-.05.13-.07.5-.23.97-.15,1.41.16,1.38.96,2.63,2.06,3.69,3.37.34.43.68.88.58,1.49,0,.05-.02.1-.04.14,0,.02-.03.04-.08.08-.36-.18-.75-.13-1.13,0-.12.03-.23.1-.32.17-.14.11-.18.32-.1.47.08.16.27.29.43.2.4-.22.77-.11,1.19.03.01.06.05.15.04.25-.08,1.42.04,2.84.1,4.26.03.79.01,1.6-.04,2.39-.08,1.11-.47,2.14-.97,3.12-.72,1.43-1.62,2.75-2.54,4.06-.3.42-.67.58-1.15.5-.91-.15-1.82-.3-2.71-.51-.35-.08-.7-.28-1-.48-1.05-.72-2.08-1.46-3.11-2.21-.54-.4-1.05-.84-1.58-1.26-.38-.3-.54-.68-.59-1.16-.08-.82-.2-1.63-.3-2.45-.03-.29-.13-.52-.4-.68-.4-.25-.78-.53-1.19-.78-.96-.58-1.49-1.45-1.7-2.52-.12-.61-.01-1.19.22-1.76.05-.13.15-.26.26-.35.09-.08.23-.15.33-.14.47.07.95.13,1.17.65.03.07.07.13.12.18.14.15.4.13.53-.02.05.04.11.08.17.12.1.15.21.31.3.47.04.06.09.1.15.11.01.02.02.04.04.06.11.12.2.29.39.28.18,0,.3-.2.24-.36,0-.02-.01-.03-.02-.05.07-.04.12-.1.14-.19.05-.24.08-.49.1-.74.05-.87.39-1.58,1.06-2.14.17-.14.33-.3.49-.46.25-.26.41-.57.47-.92.08-.44.16-.88.23-1.33.09-.04.16-.13.17-.25.01-.41.11-.77.26-1.15.05-.14,0-.26-.07-.33.26-.15.54-.24.97-.33.27-.06.44-.54.62-.74.12-.14.24-.28.35-.42,0,.03,0,.06.02.1.04.13.12.21.21.25.02.1.04.19.06.29.03.22.31.37.48.17.34-.42.72-.61,1.15-.73,0,.02.01.04.02.07ZM54.7,22.53c.98.38,1.99.59,3.02.75.32.05.64.09.89.13.12-.01.17-.02.22-.03.16-.03.26-.14.29-.29.04-.16-.07-.37-.24-.41-.26-.07-.53-.11-.8-.14-.89-.1-1.76-.25-2.61-.56-.48-.18-.93-.36-1.12-.89-.02-.06-.09-.14-.15-.16-.11-.04-.25-.09-.34-.06-.09.04-.19.17-.21.28-.02.14,0,.3.06.43.19.46.52.77.98.95ZM55.6,15.09c.21,0,.39-.21.38-.45,0-.27-.22-.49-.45-.48-.2.02-.36.25-.34.49.01.23.2.44.41.44ZM58.96,20.18c.25-.11.49-.22.74-.34.16-.08.25-.27.21-.43-.05-.21-.3-.43-.49-.38-.39.1-.73.31-.95.66-.03.06-.03.14-.04.18.05.25.32.4.53.31Z"/>
      <path class="cls-5" d="M85.47,56.37c.22-1.51.2-3.03.16-4.55-.04-1.42-.24-2.83-.43-4.23-.15-1.11-.31-2.22-.59-3.35-1.02-.16-2.05-.28-3.08-.39-1.01-.11-2-.34-3.11-.28.12.25.19.42.29.59.72,1.22,1.45,2.44,2.17,3.66,1.66,2.76,2.93,5.71,4,8.74.09.25.19.5.28.75.05,0,.1,0,.15,0,.05-.31.11-.62.15-.94Z"/>
      <path class="cls-5" d="M76.2,33.81c-.17.85-.29,1.66-.51,2.43-.22.76-.55,1.49-.86,2.29,1.02,1.42,2.03,2.84,3.07,4.28.62-.13,1.25-.05,1.89.02,1.43.15,2.87.32,4.3.49.07,0,.14,0,.2,0,.12-.13.04-.25,0-.36-.27-.86-.58-1.69-1.21-2.37-.64-.7-.96-1.56-1.04-2.51-.03-.35-.07-.69-.11-1.06-.19-.05-.35-.11-.51-.14-.87-.14-1.68-.43-2.49-.76-.66-.26-1.23-.65-1.7-1.19-.24-.28-.5-.56-.75-.83-.08-.09-.17-.16-.29-.27Z"/>
      <path class="cls-5" d="M86.31,26.44c0,.24.19.44.4.44.22,0,.4-.22.38-.45-.03-.24-.21-.41-.44-.4-.19,0-.35.19-.34.4ZM83.91,34.27c.63-.71,1.18-1.48,1.69-2.28.07-.1.12-.22.16-.34.07-.2-.01-.41-.21-.51-.15-.08-.32-.14-.49-.17-1.1-.2-2.2-.38-3.31-.57-.02,0-.05-.01-.07-.01-.43-.02-.65.21-.6.68.18.89.36,1.82.83,2.66.17.31.36.6.65.81.39.28.72.28,1.09-.01.1-.08.19-.17.27-.26ZM87.36,23.54c-.2-.07-.37-.17-.55-.2-.3-.06-.6-.07-.85.15-.11.1-.2.22-.16.39.04.16.23.34.39.28.49-.17.8.07,1.12.38.12.12.28.2.47.33.02.11.08.28.09.45.13,2.02.15,4.04-.34,6.03-.16.65-.38,1.29-.67,1.9-.51,1.11-1.33,1.92-2.54,2.27-.34.1-.67.21-1,.32-.8.28-1.61.29-2.43.08-.31-.08-.62-.19-.93-.29-1-.31-1.83-.85-2.51-1.67-.72-.86-1.46-1.71-1.9-2.76-.15-.35-.36-.55-.77-.6-.36-.04-.72-.19-1.05-.36-.87-.45-1.21-1.26-.93-2.19.1-.33.27-.64.45-.93.21-.33.52-.36.84-.13.24.17.45.38.69.56.22.16.5.08.62-.17.02-.05.03-.1.04-.14.16-.73.56-1.32,1.04-1.94.61.02,1.16-.26,1.73-.51,1.66-.73,3.09-1.81,4.43-3.01,0,0,.02-.02.03-.03.05.46-.01.92-.23,1.37-.09.19.05.41.26.4l.49-.03c.05.13.18.19.32.18.15,0,.3-.02.44-.06,1.03-.23,1.91-.61,2.81-1.18.44.33.52.46.61,1.11ZM82.11,25.99c.24-.02.41-.23.37-.46-.03-.23-.25-.42-.46-.41-.22,0-.39.23-.36.48.03.26.2.42.44.4ZM85.42,29.55c.09-.01.17-.01.24-.03.17-.04.29-.22.28-.39-.01-.17-.16-.34-.33-.34-.17,0-.35.01-.51.05-.16.04-.24.17-.25.33,0,.18.13.34.3.37.1.01.2.01.28.02Z"/>
      <path class="cls-13" d="M56.24,36.85c-.04-.13-.04-.28,0-.44.09-.39.16-.78.23-1.17.04-.22.05-.44.07-.68-.37-.36-.73-.7-1.09-1.04-.34-.33-.67-.66-1.08-.99-.36.38-.7.73-1.07,1.11.11.16.19.31.29.44.55.8,1.09,1.61,1.67,2.39.12.16.2.32.23.47l.74-.08Z"/>
      <path class="cls-13" d="M56.52,37.28c-.15-.13-.24-.27-.29-.43l-.74.08c.06.24.01.48-.13.76-.23.47-.37.98-.57,1.46-.1.25-.23.49-.39.81.49.42.58,1.05.7,1.68.27.09.53.17.78.26.65.23,1.02.7,1.06,1.39.02.27.02.55.02.82,0,.12,0,.24,0,.36.09.04.15.08.22.11.73.27,1.12.84,1.09,1.59,0,.22-.03.44-.05.64.69.29.79.4.86,1.11.1.95.02,1.89-.11,2.83-.03.19-.04.4.02.58.41,1.38.85,2.76,1.27,4.15.24,0,.18-.19.2-.31.23-2.07.2-4.14.02-6.2-.24-2.66-.64-5.3-1.21-7.91-.1-.45-.26-.86-.52-1.23-.62-.88-1.29-1.72-2.09-2.43-.06-.05-.11-.1-.17-.15Z"/>
      <path class="cls-12" d="M104.83,48.47c.08-.21.17-.41.26-.62.13-.29.28-.58.42-.88-.4-.56-.83-1.07-1.25-1.59-.52.35-.84.74-1.22,1.46.27.51.56,1.03.84,1.56.1.19.18.39.21.61l.64-.05c0-.17.03-.33.1-.49Z"/>
      <path class="cls-12" d="M104.83,49.32c-.07-.13-.1-.24-.1-.36l-.64.05s0,.06,0,.1c.12,2.37.28,4.73.38,7.1.06,1.37.04,2.74.05,4.12,0,.82.03,1.65.03,2.47,0,.97-.03,1.94-.04,2.92,0,.14,0,.31.07.42.64.94,1.29,1.88,1.94,2.81.19.01.22-.13.29-.23.3-.46.58-.93.89-1.39.18-.27.23-.53.17-.85-.35-2.14-.68-4.28-1.04-6.42-.34-1.99-.71-3.97-1.07-5.96-.24-1.32-.48-2.65-.73-3.97-.05-.27-.09-.55-.22-.79Z"/>
      <path class="cls-12" d="M66.6,73.78c1.34-.11,2.68-.2,4.02-.27,0-.31-.09-.56-.2-.86-.05-.14.01-.25.11-.31,0-.37.02-.76.02-1.15,0-1.12.03-2.24.02-3.36-.04-2.22-.05-4.44-.16-6.66-.12-2.34-.32-4.68-.53-7.01-.12-1.39-.29-2.78-.49-4.16-.21-1.43-.47-2.85-.74-4.27-.22-1.12-.48-2.24-.76-3.35-.17-.67-.42-1.31-.64-1.97-.07,0-.14-.01-.2-.05l-.85.07c.15.23.24.5.26.79.03.37.06.75.08,1.12.21,3.09.41,6.17.62,9.26.08,1.14.16,2.29.23,3.43.03.42.03.85.03,1.27-.01,1.27-.04,2.54-.06,3.81-.01.82-.02,1.64-.04,2.47-.03,1.67-.07,3.34-.1,5.01-.03,1.69-.04,3.39-.07,5.08,0,.3-.04.6-.07.89,0,.04-.05.08-.1.16-.11.02-.23.04-.38.06Z"/>
      <path class="cls-12" d="M62.09,35.23c.43.61.85,1.23,1.27,1.84.06.08.11.17.15.26.21.37.18.71-.09,1.04-.09.12-.2.23-.28.35-.27.38-.58.74-.79,1.21.56.58,1.11,1.16,1.65,1.74.27.29.54.59.78.9.23.3.36.64.38,1l.69-.04c-.03-.49-.05-.98-.08-1.47-.03-.6-.07-1.2-.63-1.61-.14-.1-.11-.34,0-.48.12-.14.3-.19.47-.09.15.09.29.19.41.32.07.07.12.14.17.22l.85-.07c-.05-.04-.09-.11-.1-.19,0-.12-.02-.23-.03-.35-.32-.42-.67-.82-.94-1.28-.04-.07-.05-.13-.03-.19-1.29-1.37-2.64-2.66-4.05-3.9l-.26.3c.17.15.32.31.45.5Z"/>
      <path class="cls-12" d="M51.68,40.57c.36-.55.7-1.12,1.47-1.16,0-.06,0-.09,0-.11-.05-.11-.09-.23-.15-.34-2.06-4.04-4.63-7.73-7.58-11.17-.09.08-.2.14-.3.19-.09.04-.18.01-.25-.05-.14.15-.38.07-.45-.11-.06-.01-.12-.04-.15-.09-.24.38-.5.75-.73,1.14-.11.18-.24.33-.38.45l.51.71s.05,0,.08,0c.2.02.32.17.32.43,0,.17-.02.35,0,.52.11,1.17.22,2.33.34,3.5.03.27.02.55.2.83.18.07.39.15.59.23.94.34,1.87.68,2.81,1.02.14.05.28.1.42.16.34.17.44.48.25.81-.07.13-.18.24-.26.36-.48.67-.96,1.34-1.43,2.01-.14.2-.31.4-.31.74.63.81,1.55,1.4,2.28,2.19.41-.02.8-.04,1.2-.07.04-.09.07-.17.11-.26-.02-.08,0-.16.06-.23.04-.05.08-.09.12-.13.3-.56.67-1.07,1.12-1.52.03-.03.07-.06.11-.07Z"/>
      <path class="cls-12" d="M61.9,34.43c-.69-.61-1.39-1.21-2.1-1.79-.04-.03-.08-.06-.12-.09-.4-.29-.79-.58-1.31-.65-.07.09-.19.13-.31.05-.02-.01-.04-.03-.06-.04,0,0,0,0,0,0,0,0,0,0,0,0-.39-.28-.72-.59-1.02-.94-.04-.01-.09-.03-.13-.08-.1-.11-.16-.26-.22-.39-.08-.12-.15-.24-.23-.36-.03-.06-.04-.12-.03-.18l-.07-.02c-.03.13-.06.24-.09.33.42.77.82,1.46,1.17,2.18.49,1.01.84,2.07,1.2,3.14,1.22,3.71,1.99,7.52,2.5,11.38.26,1.93.42,3.87.35,5.82-.05,1.54-.1,3.29-.61,5.09-.05.19-.2.36-.35.32-.13-.03-.3-.11-.36-.22-.11-.22-.16-.47-.23-.71-.4-1.47-.79-2.94-1.18-4.4-.03-.11-.11-.21-.19-.36-.19.19-.36.33-.51.49-1.6,1.72-3.34,3.3-5.21,4.71-.16.12-.32.24-.5.32,0,0,0,0-.01,0,0,.09-.04.19-.12.23-.1.05-.19.11-.29.15,0,0,0,0-.01,0,.06.07.13.13.2.19.13.11.12.27.02.41-.07.1-.16.18-.25.27-.32.34-.64.69-.98,1.04.12.23.24.42.32.62.07.15.01.33-.11.44l.29.34c.1,0,.21.02.29.07.18.11.26.33.16.51-.12.22-.26.42-.41.62-1.66,2.16-3.54,4.12-5.47,6.03-1.47,1.45-2.94,2.91-4.4,4.37-.7.71-1.44,1.38-2.23,1.99-.08.06-.16.12-.24.18.73.05,1.47.14,2.18.16,1.42.04,2.84.03,4.25-.01,2.82-.08,5.64-.32,8.44-.59,4.14-.4,8.27-.92,12.42-1.27-.02-.3-.04-.52-.04-.73.01-.77.03-1.55.05-2.32.04-1.59.09-3.19.12-4.78.03-1.77.03-3.54.05-5.31,0-.85.01-1.69.03-2.54.04-1.62.04-3.24-.09-4.86-.16-1.99-.29-3.98-.41-5.97-.08-1.25-.15-2.5-.22-3.75l-.69.04c0,.13,0,.27-.02.41-.07.42-.11.84-.19,1.25-.41,2.38-.83,4.76-1.24,7.14-.08.49-.13.99-.22,1.48-.04.24-.21.35-.42.34-.19-.01-.37-.19-.36-.41.01-.27.04-.55.09-.82.31-1.82.63-3.63.94-5.45.19-1.13.37-2.26.57-3.39.08-.45-.01-.84-.29-1.19-.11-.14-.21-.28-.33-.41-.53-.57-1.05-1.13-1.59-1.69-.12-.12-.26-.23-.4-.33-.39-.29-.44-.45-.19-.87.07-.13.16-.25.25-.37.34-.49.69-.98,1.07-1.53-.38-.57-.74-1.11-1.1-1.65-.25-.37-.48-.76-.99-.84-.17-.02-.21-.2-.21-.35,0-.17.11-.28.26-.34.31-.12.6-.04.84.16l.26-.3Z"/>
      <path class="cls-12" d="M51.35,61.74l-.29-.34s-.06.05-.1.06c-.16.07-.36.03-.47-.12-.14-.2-.26-.42-.41-.62-.53-.72-1.08-1.44-1.61-2.16-.55-.74-1.11-1.48-1.63-2.24-.5-.74-1.1-1.4-1.58-2.15-.01-.02-.04-.02-.1-.06-.11.05-.26.1-.37.18-.27.22-.53.46-.79.69-1.04.94-2.07,1.88-3.11,2.81-.58.51-1.16,1.02-1.76,1.52-1.44,1.19-2.89,2.37-4.35,3.55-.17.14-.37.26-.56.37-.16.09-.34.04-.47-.11-.12-.14-.13-.33,0-.47.1-.11.22-.2.34-.29,1.14-.9,2.28-1.78,3.41-2.69.83-.68,1.63-1.39,2.45-2.09-.09-1.09-.17-2.16-.27-3.22-.18-1.94-.37-3.87-.57-5.81-.1-.99-.21-1.99-.35-2.97-.11-.79-.26-1.58-.55-2.33-.13-.35-.29-.69-.49-1-.55-.83-1.33-1.41-2.18-1.91-.21-.12-.47-.15-.71-.2-.19-.04-.4-.03-.59-.06-.12-.02-.25-.06-.35-.12-.13-.09-.21-.23-.16-.39.04-.15.15-.25.32-.26.79-.07,1.54.03,2.2.52.36.27.73.52,1.08.81.82.69,1.44,1.52,1.73,2.57.16.6.33,1.21.41,1.82.22,1.61.41,3.22.58,4.83.2,1.89.36,3.77.53,5.66.03.32.07.64.12.97.01.09.05.18.1.33.21-.16.39-.29.55-.43.94-.86,1.87-1.73,2.8-2.6.25-.23.53-.43.65-.79.08-.23.39-.25.56-.07.1.11.18.24.27.35.11.15.16.37.41.41.34-.35.68-.71,1.02-1.07.03-.04.07-.07.09-.12.38-.62.5-.83.05-1.5-.06-.08-.11-.16-.17-.25-.3-.43-.52-.9-.72-1.39-.2-.48-.23-.97-.09-1.46.1-.38.22-.77.37-1.14.47-1.18.9-2.37,1.56-3.49-.25-.34-.58-.57-.87-.84-.38-.36-.79-.7-1.14-1.08-.46-.5-.49-.9-.16-1.5.09-.17.21-.34.32-.5.36-.51.72-1.02,1.08-1.53.1-.14.18-.29.29-.47-.24-.11-.43-.21-.64-.28-.89-.32-1.78-.64-2.68-.94-.48-.16-.72-.46-.75-.98-.05-.87-.17-1.74-.25-2.61-.06-.57-.11-1.14-.16-1.72-.01-.15-.01-.3.01-.45.04-.21.21-.35.41-.36l-.51-.71c-.15.13-.31.24-.49.33-2.24,1.13-4.48,2.27-6.72,3.42-.79.41-1.57.85-2.34,1.32-.83.5-1.59,1.12-2.29,1.79-.33.31-.6.65-.78,1.05.01.03.01.07,0,.11-.02.09-.04.17-.05.26,0,0,0,0,0,0,.24-.26.62.09.41.36-.23.3-.5.58-.66.92-.05.11-.14.15-.23.15-.03.11-.05.23-.08.35-.03.12-.12.19-.21.2-.09.33-.19.66-.25,1-.39,2.21-.57,4.45-.56,6.7,0,1.67.06,3.34.07,5.01.03,2.82.2,5.63.4,8.44.1,1.34.23,2.68.39,4.02.2,1.66.46,3.31.7,4.96.12.81.28,1.6.73,2.33.34.55.62,1.14,1.08,1.59.11-.04.24-.03.33.08.39.47.79.92,1.25,1.33.07.06.1.13.09.2.94.59,1.94.8,3.01.44.16-.06.33-.12.49-.18.48-.21.93-.47,1.35-.79.79-.61,1.53-1.28,2.23-1.99,1.21-1.22,2.44-2.42,3.65-3.64,1.2-1.19,2.42-2.37,3.58-3.61,1.01-1.09,2.06-2.17,2.74-3.52,0-.02.03-.04.05-.06.07-.09.2-.14.33-.15Z"/>
      <path class="cls-9" d="M53.69,6.12c.37-.21.73-.42,1.1-.62.12-.06.29-.06.43-.05.22.02.35.34.22.52-.06.08-.13.15-.22.2-.06.03-.11.06-.17.1.28-.07.57-.13.89-.2.27-.06.46.21.29.44-.09.13-.18.26-.26.39,0,.01,0,.03,0,.05.71-.06,1.38.03,1.98.48,1.6,1.2,3.13,2.47,4.24,4.18.06.09.12.24.31.14.19-.73.27-1.49.24-2.27-.02-.65-.22-1.23-.63-1.72-.35-.42-.71-.84-1.11-1.21-.53-.49-1.09-.95-1.66-1.4-1.66-1.32-3.49-2.3-5.56-2.83-.49-.13-.97-.21-1.47-.22-1.01-.02-1.91.23-2.71.89-.66.54-1.22,1.17-1.76,1.83-.07.09-.12.18-.16.28.18.08.28.35.06.47-.2.12-.4.23-.59.37-.17.12-.34.39-.56.45,0,.12-.07.24-.21.3-.11.05-.23.09-.35.14-1,.43-1.7,1.2-2.26,2.1-.07.1-.1.23-.13.35-.08.39-.17.78-.21,1.17-.16,1.36.06,2.68.3,4.21.19-.28.28-.42.37-.55.3-.42.69-.62,1.21-.61.59.01,1.09.23,1.53.59.11-.08.28-.08.37.07.17.29.38.55.58.82.04-.39.08-.79.17-1.17.17-.67.53-1.23,1.07-1.67.29-.24.61-.47.72-.84.18-.6.27-1.21.26-1.83,0-.12-.02-.25-.02-.37,0-.1.05-.2.12-.26-.09-.09-.13-.23-.01-.36.29-.33.53-.66.93-.85.1-.05.24-.07.39-.1-.04-.07-.06-.15-.06-.23.04-.1.07-.28.16-.42.33-.5.67-.99,1.01-1.48.04-.06.1-.12.15-.17.16-.14.4-.14.54,0,.12.12.15.31.05.48-.04.06-.07.11-.11.17.09-.04.19-.03.27.05.06.05.11.11.15.16.02.02.05.03.06.05Z"/>
      <path class="cls-9" d="M74.13,34.05c.22.03.45.03.68.04,0,0,0-.02,0-.03,0-.15.11-.28.26-.29.01,0,.03,0,.04,0,.02-.06.03-.11.05-.17.03-.09.09-.17.18-.2-.02-.69-.19-1.32-.59-1.89-.43-.16-.83-.28-1.22-.46-.76-.35-1.35-.9-1.55-1.73-.27-1.13.1-2.12.88-2.95.31-.33.71-.45,1.16-.26.25.1.49.2.73.29.36-.52.68-1.03,1.03-1.51.58-.81,1.18-1.61,1.78-2.41.33-.44.68-.86.87-1.39.03-.09.11-.16.18-.23.12-.12.38-.1.46.05.07.12.12.29.09.42-.04.19-.15.37-.26.53-.43.61-.88,1.21-1.31,1.82-.12.17-.22.35-.41.66.8-.35,1.46-.63,2.08-.99.89-.5,1.71-1.12,2.49-1.78.24-.2.49-.4.69-.64-.06-.18.08-.31.23-.33.04-.06.07-.13.1-.2.04-.09.18-.17.29-.2.15-.04.29,0,.4.14.12.16.14.34.02.48-.12.14-.24.29-.36.42.13.56.13,1.13-.05,1.68l.31-.02s.07,0,.1.01c.03,0,.06-.02.08-.03.26-.07.53-.13.79-.21.55-.15,1.1-.32,1.59-.63.22-.14.39-.31.5-.54.03-.06.04-.12.04-.18,0-.13-.06-.25-.11-.38-.05-.14,0-.3.12-.39.02-.11.03-.21-.03-.33-.05-.1-.04-.21.01-.29-.04,0-.08-.02-.13-.04-.11-.06-.21-.14-.29-.23-.42-.51-.96-.86-1.53-1.18-1.78-1-3.68-1.62-5.72-1.77-.54-.04-1.1-.09-1.53.38,0,0,0,0-.01,0-.04.07-.11.13-.21.14-.25.03-.48.15-.71.26,0,.09-.05.17-.13.22-.09.07-.23.13-.34.12-.44-.07-.79.14-1.08.4-.37.33-.74.68-1.04,1.07-1.79,2.27-3,4.81-3.45,7.69-.19,1.22-.2,2.43-.09,3.65.05.54.23,1.03.57,1.44.86,1.08,1.99,1.73,3.35,1.93Z"/>
      <path class="cls-13" d="M90.74,56.17c0,.16-.02.33,0,.49.51,2.87,1.09,5.72,1.83,8.54.1.38.24.76.35,1.14.4,1.36,1.27,2.41,2.24,3.39.17.17.38.32.59.45.69.4,1.39.51,2.13.11,1.02-.55,1.88-1.29,2.61-2.19.42-.52.54-1.11.33-1.75-.24-.73-.48-1.47-.75-2.19-.99-2.71-2-5.42-2.99-8.12-.16-.44-.31-.89-.46-1.34-.03-.09-.09-.17-.16-.31-.53.21-.98.42-1.45.56-1.33.39-2.68.75-4.02,1.13-.07.02-.14.05-.25.1Z"/>
      <path class="cls-13" d="M71.32,72.14c0,.12,0,.25-.03.37,0,.02-.01.04-.02.06.03.03.05.08.06.14.07.54,3.01.43,3.35.44,2.19.02,4.38-.11,6.56-.21,2.23-.1,4.47-.22,6.7-.23,1.1,0,2.52-.12,3.62.26,0-.03-.02-.07-.02-.1-.23-1.17-.49-2.34-.68-3.52-.27-1.65-.49-3.3-.87-4.93-.07-.32-.08-.63.03-.95.13-.4.22-.82.32-1.23.05-.17.06-.35.15-.5.09-.17.24-.3.38-.45-.03-.2-.05-.4-.09-.6-.32-1.51-.64-3.02-.96-4.54-.04-.17-.08-.34-.09-.51-.03-.3.18-.47.46-.42.17.03.34.13.49.1.34-.06.66-.17,1.03-.27-.03-.26-.05-.48-.08-.7-.11-.02-.22-.1-.22-.25l-.03-.56c-.07-.23-.19-.45-.22-.7-.01-.12.04-.2.12-.24-.41-.49-.7-1.05-.87-1.62-.22-.11-.45-.16-.55-.29-.58-.75-1.14-1.51-1.69-2.28-.3-.41-.48-.87-.57-1.37-.15-.79.17-1.43.9-1.78.17-.08.35-.15.52-.22.06-.58.27-1.1.24-1.65,0-.1.03-.2.07-.29.08-.16.15-.32.2-.49-.11-.02-.2-.1-.22-.24,0,.06-.05-.06-.06-.08-.05-.07-.1-.13-.15-.2-.09-.11-.17-.22-.25-.33-.11.07-.28.07-.43,0-.27-.12-.53-.26-.81-.36-1.12-.4-2.25-.79-3.38-1.19-.11-.04-.22-.12-.39,0,.19.19.38.37.56.55.07.24.11.49.21.71.5,1.21.76,2.48.98,3.76.22,1.33.38,2.66.57,4,.3,2.16.33,4.32.17,6.49-.07.97-.21,1.93-.47,2.87-.05.19-.11.39-.2.56-.16.31-.54.33-.71,0-.16-.31-.27-.64-.38-.97-.99-3.2-2.26-6.28-3.92-9.2-.89-1.56-1.8-3.11-2.73-4.64-1.17-1.92-2.4-3.79-3.92-5.46-.17-.19-.23-.38-.17-.61-.1.02-.2.02-.29.06-.84.31-1.68.63-2.52.93-.96.35-1.91.69-2.9,1.05.08.29.15.55.22.81.23.89.49,1.78.69,2.68.28,1.27.54,2.54.76,3.81.22,1.25.42,2.51.57,3.77.18,1.54.29,3.08.43,4.62.3,3.35.56,6.71.54,10.08-.02,2.02,0,4.04-.01,6.06Z"/>
      <path class="cls-6" d="M123.77,57.83c.01-.56.02-1.12.03-1.68.01-.52.07-1.04-.09-1.54-.57-.28-3.51-.87-4.59-.93-.25.79-.51,2.34-.48,2.98.24.07.49.19.75.23.76.12,1.53.22,2.29.32.25.04.49.07.73.14.23.06.35.25.35.45l1,.02Z"/>
      <path class="cls-6" d="M106.9,42.84c-.12.09-.25.18-.38.25-.06.03-.12.04-.18.03-.02.04-.05.09-.09.13-.36.38-.75.73-1.12,1.1-.12.12-.23.24-.36.37.41.55.78,1.08,1.19,1.58.42.51.8,1.05,1.31,1.47.06-.05.09-.06.09-.08.22-.89.44-1.79.64-2.68.04-.15,0-.35-.08-.5-.19-.4-.42-.79-.76-1.1-.17-.15-.18-.35-.08-.5-.06,0-.12-.02-.18-.07,0,0,0,0,0,0Z"/>
      <path class="cls-6" d="M97.01,43.67c.1-.23.37-.29.56-.12.16.15.3.33.45.5.78.94,1.56,1.88,2.35,2.82.27.31.54.65.91.84.75-.65,1.93-2.23,2.14-2.84-.6-.41-1.2-.8-1.79-1.21-.65-.46-1.3-.93-1.93-1.42-.52-.4-1.13-.69-1.51-1.34-.13.21-.24.34-.31.5-.22.45-.42.9-.63,1.35-.06.13-.13.27-.21.39-.11.16-.37.21-.54.11-.04-.02-.07-.06-.1-.1h-.2s0,.01,0,.01v.35c.09,0,.17.07.25.14.1.09.15.21.18.33l.38-.03c-.02-.09-.01-.2.02-.28Z"/>
      <path class="cls-6" d="M123.66,61.09c.05-1.09.08-2.17.11-3.26l-1-.02s-.01.09-.03.13c-.08.25-.38.39-.61.22-.33-.25-.71-.21-1.06-.3-.19-.05-.39-.05-.59-.07-.68-.08-1.37-.17-2.06-.26-.04.17-.08.31-.11.46-.37,1.83-.74,3.66-1.11,5.49-.04.22-.09.44-.15.66-.06.2-.28.31-.47.27-.16-.03-.3-.2-.28-.39.02-.22.07-.44.11-.66.36-1.63.73-3.26,1.09-4.89.08-.39.21-.79.19-1.18-.01-.39-.19-.77-.29-1.15-.03-.12-.06-.24-.1-.36-.65-1.83-1.29-3.67-1.94-5.5-.1-.28-.23-.55-.36-.82-.15-.31-.28-.64-.6-.84-.09-.06-.13-.15-.14-.25-.26-.27-.41-.62-.61-.94-.09.02-.19,0-.29-.05-.2-.11-.38-.24-.58-.34-1.18-.59-2.36-1.18-3.55-1.77-.13-.06-.25-.18-.46-.08-.03.08-.08.19-.11.3-.2.82-.39,1.65-.58,2.47-.03.15-.06.29-.1.44-.18.63-.55.72-1.02.25-.21-.21-.39-.46-.59-.68-.09-.1-.21-.18-.35-.29-.15.29-.28.53-.41.77-.1.18-.1.37-.06.58.36,1.86.7,3.72,1.04,5.59.29,1.59.61,3.18.88,4.78.32,1.87.62,3.74.93,5.61.08.52.17,1.03.27,1.55.07.39,0,.72-.23,1.06-.51.76-.99,1.56-1.47,2.34-.03.04-.05.09-.08.13-.18.22-.48.23-.63,0-.21-.31-.4-.63-.59-.95-.58-.96-1.18-1.91-1.93-2.75-.06-.07-.1-.17-.17-.27.2-.59.21-1.21.2-1.84,0-1.1,0-2.19,0-3.29,0-1.5.03-3-.03-4.49-.09-2.22-.25-4.43-.39-6.65-.02-.3-.05-.6-.12-.89-.13-.5-.34-.97-.76-1.34-.14.16-.25.3-.36.43-.11.13-.22.27-.35.39-.28.26-.58.29-.87.04-.3-.26-.59-.54-.85-.84-.93-1.07-1.85-2.16-2.77-3.24-.1-.11-.2-.23-.26-.36,0-.02-.02-.04-.02-.07l-.38.03c.03.12.04.24.06.37.06.65-.04,1.29-.14,1.93-.27,1.67-.54,3.34-.78,5.02-.09.59-.11,1.19-.16,1.79-.02.27.06.49.34.63.36-.34.69-.07,1.03.05.27.1.31.37.38.61.22.71.41,1.44.67,2.14.98,2.66,1.99,5.32,2.98,7.98.25.68.47,1.36.7,2.05.14.42.07.85-.1,1.24-.12.27-.26.54-.45.77-.83,1.02-1.8,1.86-2.96,2.48-.29.15-.59.26-.92.29-.87.09-1.64-.15-2.29-.71-.3-.26-.58-.52-.85-.8.03.84.01,1.67-.15,2.5,3.39.22,6.77.73,10.17.96,2.02.13,4.05.22,6.06.08.92-.06,2.95-.1,3.41-1.13,0-.02.02-.04.04-.06,0-.11,0-.23,0-.34.02-.75.05-1.5.06-2.24.01-1.25.03-2.49.02-3.74-.02-1.62-.1-3.24-.11-4.86,0-2.52.03-5.04.03-7.56,0-.5.17-.99.02-1.49-.05-.16.12-.34.28-.39.17-.05.3.02.4.14.08.09.13.22.14.33.01.25-.02.5-.03.75-.04.67-.11,1.34-.11,2.01-.02,2.37-.02,4.74,0,7.11,0,1.15.07,2.29.11,3.33.55.75,1.03,1.43,1.53,2.08.49.63,1,1.24,1.52,1.85.47.55,1.07.71,1.75.49.71-.23,1.42-.46,2.09-.79,1.22-.6,1.32-.72,1.63-2.02.45-1.88.61-3.79.71-5.71Z"/>
      <path d="M29.76,39.35c.04-.17.09-.34.1-.51.02-.17-.13-.34-.31-.37-.03,0-.05,0-.07-.01,0,.27-.04.54-.11.81-.04.22.15.35.32.32.02-.08.04-.16.06-.23Z"/>
      <path d="M30.35,37.74c.04-.18.1-.36.17-.52-.05-.22-.41-.32-.51-.07-.09.21-.16.41-.23.62-.09,0-.18.02-.23.08,0,.03,0,.06,0,.09.01.17.13.26.29.3.17.04.3-.04.38-.16.07-.1.1-.23.12-.35Z"/>
      <path d="M32.66,73.95c-.15-.1-.29-.21-.41-.33-.15.05-.25.21-.14.36-.05.07-.05.17.03.26.1.12.19.24.29.35.05,0,.1-.01.14-.03.25-.09.32-.47.09-.61Z"/>
      <path d="M32.15,74.25c-.08-.09-.07-.19-.03-.26-.11-.15-.01-.31.14-.36-.46-.45-.74-1.04-1.08-1.59-.45-.73-.61-1.52-.73-2.33-.24-1.65-.49-3.3-.7-4.96-.16-1.34-.29-2.68-.39-4.02-.21-2.81-.38-5.62-.4-8.44-.02-1.67-.06-3.34-.07-5.01,0-2.25.16-4.48.56-6.7.06-.34.16-.67.25-1-.17.03-.37-.09-.32-.32.07-.27.1-.54.11-.81-.13,0-.24.05-.32.17-.08.12-.12.27-.17.41-.32.87-.44,1.79-.57,2.7-.25,1.75-.34,3.52-.33,5.29.02,3.09.06,6.18.09,9.27.17,2.89.37,5.78.74,8.65.25,1.98.55,3.95.83,5.92.03.2.06.41.15.57.51.91.88,1.9,1.63,2.67.21.22.42.43.73.49.05,0,.1.01.15,0-.1-.11-.19-.23-.29-.35Z"/>
      <path class="cls-12" d="M30.52,37.23c-.07.16-.13.33-.17.52-.03.12-.06.25-.12.35-.08.13-.22.21-.38.16-.15-.04-.28-.13-.29-.3,0-.03,0-.06,0-.09-.04.05-.07.11-.07.19,0,.13,0,.27,0,.4.02,0,.05,0,.07.01.17.04.32.21.31.37-.02.17-.06.34-.1.51-.02.08-.04.16-.06.23.09-.01.18-.08.21-.2.02-.12.05-.23.08-.35.09,0,.18-.04.23-.15.16-.34.43-.63.66-.92.22-.27-.17-.62-.41-.36,0,0,0,0,0,0,.02-.09.03-.17.05-.26.01-.04.01-.08,0-.11Z"/>
      <path d="M33.17,75.31c.11.07.23.13.35.18.2.07.4-.07.4-.25-.01,0-.02-.02-.04-.02-.02-.01-.04-.03-.06-.05-.25-.17-.45-.17-.59,0-.03.04-.06.09-.07.13Z"/>
      <path class="cls-12" d="M33.83,75.04c-.45-.41-.85-.87-1.25-1.33-.09-.11-.23-.12-.33-.08.12.12.26.23.41.33.23.15.15.52-.09.61-.04.02-.09.03-.14.03.22.27.45.53.74.71.01-.05.04-.09.07-.13.14-.18.34-.18.59,0,.02.01.04.03.06.05.01,0,.02.02.04.02,0-.07-.03-.14-.09-.2Z"/>
      <path d="M33.93,75.24c0,.17-.2.32-.4.25-.13-.05-.24-.11-.35-.18-.04.14.01.31.17.46.14.14.29.29.46.37.76.33,1.53.58,2.63.54.31,0,.82-.22,1.32-.43.17-.07.33-.15.5-.24-.23,0-.45,0-.67.01-.31.02-.37-.4-.15-.51v-.02c-.17.07-.33.13-.49.18-1.08.36-2.08.15-3.01-.44Z"/>
      <path d="M37.58,76.02c.22-.01.45-.01.67-.01.28-.15.55-.32.8-.5-.51-.04-1.01-.06-1.51-.03-.04,0-.08.01-.12.03-.22.12-.16.53.15.51Z"/>
      <path d="M43.53,28.87c.24-.38.49-.76.73-1.14-.03-.04-.06-.09-.06-.16,0-.1-.01-.19-.01-.29,0-.02,0-.05,0-.07,0-.01,0-.03,0-.04,0-.09,0-.18.02-.27-.2-.13-.43-.07-.66.11-.06.64-.51,1.09-.87,1.59-.11.15-.3.26-.47.35-2.19,1.13-4.37,2.27-6.56,3.38-1.63.82-3.21,1.71-4.56,2.94-.29.27-.58.55-.84.85-.36.4-.57.88-.67,1.4-.02.11-.02.23-.01.35.06-.06.15-.09.23-.08.07-.21.15-.41.23-.62.1-.25.46-.15.51.07.18-.4.45-.74.78-1.05.71-.67,1.46-1.29,2.29-1.79.77-.46,1.55-.9,2.34-1.32,2.23-1.15,4.47-2.28,6.72-3.42.18-.09.35-.2.49-.33.15-.13.27-.28.38-.45Z"/>
      <path d="M44.19,27.29c0,.1,0,.19.01.29,0,.06.02.12.06.16.01-.02.02-.04.04-.06.14-.22.22-.48.02-.69-.03-.03-.07-.06-.1-.08-.01.09-.02.18-.02.27,0,.01,0,.03,0,.04,0,.03,0,.05,0,.07Z"/>
      <path class="cls-12" d="M45.11,27.97c.1-.04.21-.11.3-.19-.08-.1-.17-.19-.25-.29-.2-.23-.31-.44-.13-.73.05-.08.05-.19.05-.28,0-.04,0-.09,0-.13-.01,0-.02,0-.03,0,0,0-.02,0-.03,0-.05-.16-.27-.23-.41-.14-.27.17-.38.41-.42.68.04.02.07.05.1.08.2.21.13.46-.02.69-.01.02-.02.04-.04.06.04.05.1.08.15.09.07.17.31.26.45.11.07.06.17.08.25.05Z"/>
      <path d="M45.17,27.49c.08.1.17.19.25.29.12-.11.2-.24.17-.41-.03-.14-.08-.27-.18-.37.02-.07.03-.15.03-.22,0-.04,0-.08-.02-.11.04-.2-.12-.34-.32-.32,0,.04,0,.09,0,.13,0,.1,0,.21-.05.28-.18.29-.07.49.13.73Z"/>
      <path d="M46.78,14.45c.06.1.12.2.19.3-.04.09-.03.21.07.29.02.02.04.04.07.05.03-.03.06-.08.08-.13.12-.32.01-.61-.23-.81-.03-.03-.06-.05-.09-.08-.11.08-.18.22-.09.37Z"/>
      <path d="M46.22,5.97c-.04.21.01.39.28.41.04,0,.08,0,.11,0,0-.02,0-.05-.01-.07-.04-.13-.16-.28-.27-.32-.03,0-.07-.02-.11-.02Z"/>
      <path d="M47.11,5.63c.25.08.47-.05.53-.36.01-.07.03-.13.05-.19-.07-.03-.16-.03-.24.02-.18.1-.35.21-.52.33-.04-.07-.1-.12-.18-.14.05.15.18.28.35.34Z"/>
      <path d="M48.19,15.78c.07,0,.14-.03.2-.06-.11-.25-.36-.49-.52-.69-.02-.02-.03-.04-.05-.06-.01.1-.02.2-.03.3,0,.07,0,.15.02.22.03.17.22.32.38.29Z"/>
      <path d="M45.93,68.97c1.93-1.91,3.81-3.87,5.47-6.03.15-.2.29-.4.41-.62.1-.18.02-.41-.16-.51-.08-.05-.19-.07-.29-.07-.13,0-.25.06-.33.15-.02.02-.04.04-.05.06-.68,1.35-1.72,2.43-2.74,3.52-1.15,1.24-2.38,2.41-3.58,3.61-1.22,1.22-2.45,2.42-3.65,3.64-.7.71-1.44,1.38-2.23,1.99-.42.32-.87.58-1.35.79v.02s.08-.03.12-.03c.49-.03,1,0,1.51.03.08-.06.16-.12.24-.18.79-.61,1.52-1.28,2.23-1.99,1.46-1.46,2.93-2.92,4.4-4.37Z"/>
      <path class="cls-9" d="M46.5,5.38c-.1.12-.24.37-.29.59.04,0,.08.01.11.02.11.03.23.19.27.32,0,.02,0,.05.01.07.22-.06.39-.33.56-.45.19-.13.39-.25.59-.37.22-.13.12-.4-.06-.47-.02.06-.04.12-.05.19-.06.31-.29.44-.53.36-.18-.06-.3-.18-.35-.34-.08-.02-.18,0-.25.09Z"/>
      <path class="cls-9" d="M46.96,14.15c.24.21.34.49.23.81-.02.05-.04.09-.08.13.05.04.11.08.17.12.1.15.21.31.3.47.04.06.09.1.15.11.01.02.02.04.04.06.11.12.2.29.39.28.18,0,.3-.2.24-.36,0-.02-.01-.03-.02-.05-.06.03-.13.05-.2.06-.16.02-.35-.13-.38-.29-.01-.07-.03-.15-.02-.22.01-.1.02-.2.03-.3-.2-.27-.41-.53-.58-.82-.09-.15-.25-.15-.37-.07.03.02.06.05.09.08Z"/>
      <path d="M46.67,40.65c.63.81,1.55,1.4,2.28,2.19.41-.02.8-.04,1.2-.07-.06.15-.12.29-.18.44-.08.22.09.4.27.39h0c-.36,0-.72.04-1.08.11-.13.03-.26.14-.36.25-.11.13-.21.28-.28.44-.28.68-.56,1.35-.83,2.03h0c-.17.43-.35.86-.52,1.29-.21.53-.2,1.07.07,1.59.14.26.26.54.41.8.12.22.28.41.41.63.36.6.42,1.21.06,1.84-.11.19-.2.39-.3.59.46.63.89,1.24,1.35,1.83.58.75,1.16,1.5,1.76,2.24.15.18.29.38.43.57,0,0-.01.02-.02.03-.03.07-.04.15-.04.23h0s-.01.02-.02.04c0,.02-.01.04-.02.06h0s0,.04,0,.05c0,.03,0,.05.02.08.01.03.03.06.05.09,0,0,0,0,.01.01,0,0,0,0,0,.01,0,0,0,0,.02.01.04.03.08.05.13.05.02,0,.04,0,.05,0,.1,0,.21,0,.31-.04.06.07.13.13.2.19.13.11.12.27.02.41-.07.1-.16.18-.25.27-.32.34-.64.69-.98,1.04.12.23.24.42.32.62.07.15.01.33-.11.44-.03.03-.06.05-.1.06-.16.07-.36.03-.47-.12-.14-.2-.26-.42-.41-.62-.53-.72-1.08-1.44-1.61-2.16-.55-.74-1.11-1.48-1.63-2.24-.5-.74-1.1-1.4-1.58-2.15-.01-.02-.04-.02-.1-.06-.11.05-.26.1-.37.18-.27.22-.53.46-.79.69-1.04.94-2.07,1.88-3.11,2.81-.58.51-1.16,1.02-1.76,1.52-1.44,1.19-2.89,2.37-4.35,3.55-.17.14-.37.26-.56.37-.16.09-.34.04-.47-.11-.12-.14-.13-.33,0-.47.1-.11.22-.2.34-.29,1.14-.9,2.28-1.78,3.41-2.69.83-.68,1.63-1.39,2.45-2.09-.09-1.09-.17-2.16-.27-3.22-.18-1.94-.37-3.87-.57-5.81-.1-.99-.21-1.99-.35-2.97-.11-.79-.26-1.58-.55-2.33-.13-.35-.29-.69-.49-1-.55-.83-1.33-1.41-2.18-1.91-.21-.12-.47-.15-.71-.2-.19-.04-.4-.03-.59-.06-.12-.02-.25-.06-.35-.12-.13-.09-.21-.23-.16-.39.04-.15.15-.25.32-.26.79-.07,1.54.03,2.2.52.36.27.73.52,1.08.81.82.69,1.44,1.52,1.73,2.57.16.6.33,1.21.41,1.82.22,1.61.41,3.22.58,4.83.2,1.89.36,3.77.53,5.66.03.32.07.64.12.97.01.09.05.18.1.33.21-.16.39-.29.55-.43.94-.86,1.87-1.73,2.8-2.6.25-.23.53-.43.65-.79.08-.23.39-.25.56-.07.1.11.18.24.27.35.11.15.16.37.41.41.34-.35.68-.71,1.02-1.07.03-.04.07-.07.09-.12.38-.62.5-.83.05-1.5-.06-.08-.11-.16-.17-.25-.3-.43-.52-.9-.72-1.39-.2-.48-.23-.97-.09-1.46.1-.38.22-.77.37-1.14.47-1.18.9-2.37,1.56-3.49-.25-.34-.58-.57-.87-.84-.38-.36-.79-.7-1.14-1.08-.46-.5-.49-.9-.16-1.5.09-.17.21-.34.32-.5.36-.51.72-1.02,1.08-1.53.1-.14.18-.29.29-.47-.24-.11-.43-.21-.64-.28-.89-.32-1.78-.64-2.68-.94-.48-.16-.72-.46-.75-.98-.05-.87-.17-1.74-.25-2.61-.06-.57-.11-1.14-.16-1.72-.01-.15-.01-.3.01-.45.04-.21.21-.35.41-.36.03,0,.05,0,.08,0,.2.02.32.17.32.43,0,.17-.02.35,0,.52.11,1.17.22,2.33.34,3.5.03.27.02.55.2.83.18.07.39.15.59.23.94.34,1.87.68,2.81,1.02.14.05.28.1.42.16.34.17.44.48.25.81-.07.13-.18.24-.26.36-.48.67-.96,1.34-1.43,2.01-.14.2-.31.4-.31.74ZM51.09,58.83c-.17-.41-.46-.75-.74-1.1-.53-.66-1.07-1.32-1.59-1.98-.4-.51-.79-1.03-1.19-1.54-.12-.15-.25-.3-.42-.51-.2.28-.38.52-.56.78.31.69,2.92,4.37,3.69,5.17q.45-.27.82-.82Z"/>
      <path d="M50.89,42.82c-.19-.03-.39-.07-.58-.05-.05,0-.11,0-.16.01-.06.15-.12.29-.18.44-.08.22.09.4.27.39.08,0,.16-.05.22-.14.14-.22.28-.43.43-.64Z"/>
      <path d="M51.86,58.43c-.19-.19-.35-.41-.51-.62,0,0-.01.02-.02.03-.03.07-.04.15-.04.23h0s-.01.02-.02.04c0,.02-.01.04-.02.06h0s0,.04,0,.05c0,.03,0,.05.02.08.01.03.03.06.05.09,0,0,0,0,.01.01,0,0,0,0,0,.01,0,0,0,0,.02.01.04.03.08.05.13.05.02,0,.04,0,.05,0,.1,0,.21,0,.31-.04Z"/>
      <path class="cls-12" d="M51.87,58.43c.1-.04.2-.09.29-.15.08-.05.12-.14.12-.23-.18.09-.39,0-.51-.18-.04-.07-.06-.14-.06-.22-.15,0-.29.03-.37.16.16.22.32.43.51.62,0,0,0,0,.01,0Z"/>
      <path class="cls-12" d="M51.92,41.41c-.16.02-.32-.06-.38-.21-.05-.12-.07-.32,0-.42.05-.07.1-.14.14-.22-.04.01-.07.04-.11.07-.45.44-.82.96-1.12,1.52-.04.04-.08.09-.12.13-.07.07-.08.16-.06.23-.04.08-.08.17-.11.26.05,0,.11,0,.16-.01.19-.01.39.02.58.05.32-.45.67-.88,1-1.32.02-.02.03-.05.04-.08Z"/>
      <path d="M51.78,57.87c.12.18.32.27.51.18,0-.1-.05-.2-.15-.24,0,0,0,0-.01,0-.04-.07-.11-.12-.18-.14-.07-.01-.14-.02-.22-.02,0,.07.02.15.06.22Z"/>
      <path d="M49.02,46.29c-.13.15-.27.3-.35.48,0,.02-.02.04-.02.05-.08.22.04.46.26.57.2.09.43.06.53-.13.53-1.01,1.41-1.73,2.18-2.54.32-.34.57-.69.69-1.13.09-.34.19-.67.26-1.01.04-.17.04-.35.04-.52,0-.16-.09-.28-.26-.33-.17-.05-.38.04-.45.19-.04.09-.06.19-.09.28-.05.19-.11.38-.17.59-.25.09-.5.06-.75.02-.15.21-.3.42-.43.64-.06.1-.14.14-.22.14h0c.32,0,.64.02.96.07.11.23-.06.32-.15.41-.68.74-1.36,1.46-2.03,2.2Z"/>
      <path d="M51.54,41.2c.06.15.23.22.38.21.03-.1,0-.21-.06-.29.04-.04.07-.08.11-.12.22-.21-.06-.51-.3-.43-.05.07-.1.15-.14.22-.07.1-.05.3,0,.42Z"/>
      <path d="M50.64,11.27c.08-.44.16-.88.23-1.33-.16.07-.39,0-.38-.22,0-.18.03-.36.06-.53-.23.2-.54-.03-.44-.31,0-.02.02-.04.03-.06-.07.07-.12.16-.12.26,0,.12.01.25.02.37.02.62-.08,1.24-.26,1.83-.11.37-.43.6-.72.84-.54.44-.9,1.01-1.07,1.67-.09.38-.13.77-.17,1.17.02.02.03.04.05.06.16.21.41.45.52.69.07-.04.12-.1.14-.19.05-.24.08-.49.1-.74.05-.87.39-1.58,1.06-2.14.17-.14.33-.3.49-.46.25-.26.41-.57.47-.92Z"/>
      <path d="M50.89,9.8c.04-.3.02-.6-.13-.87-.09-.18-.25-.25-.43-.21-.07.02-.14.05-.19.11-.01.02-.02.04-.03.06-.1.29.2.52.44.31-.03.17-.06.35-.06.53,0,.23.22.29.38.22,0-.05.02-.1.02-.15Z"/>
      <path d="M53.21,5.86c.04-.05.07-.11.11-.17.11-.17.07-.36-.05-.48-.14-.14-.38-.14-.54,0-.06.05-.11.1-.15.17-.34.49-.68.98-1.01,1.48-.09.14-.13.32-.16.42,0,.09.03.16.06.23.22-.04.45-.09.55-.24.3-.46.73-.83,1.04-1.29.04-.06.09-.1.16-.13Z"/>
      <path d="M53.05,5.98c-.31.47-.73.83-1.04,1.29-.1.15-.33.2-.55.24.08.15.22.25.39.28.2.03.43-.09.44-.3.02-.36.23-.6.4-.87.17-.26.35-.51.52-.76-.06.02-.12.07-.16.13Z"/>
      <path d="M53.4,7.08c-.04-.15-.08-.31-.11-.46,0,0,0-.01-.01-.02-.03.04-.07.09-.1.13h0s0,.07.02.1c.04.13.12.21.21.25Z"/>
      <path class="cls-9" d="M53.69,6.12s-.04-.04-.06-.05c-.04-.05-.09-.1-.15-.16-.08-.08-.18-.08-.27-.05-.17.26-.35.5-.52.76-.17.27-.38.51-.4.87,0,.21-.23.33-.44.3-.16-.03-.31-.13-.39-.28-.15.02-.29.05-.39.1-.4.19-.65.52-.93.85-.12.13-.08.27.01.36.05-.05.12-.09.19-.11.18-.04.34.04.43.21.15.28.17.57.13.87,0,.05-.01.1-.02.15.09-.04.16-.13.17-.25.01-.41.11-.77.26-1.15.05-.14,0-.26-.07-.33.26-.15.54-.24.97-.33.27-.06.44-.54.62-.74.12-.14.24-.28.35-.42h0c0-.17.09-.31.21-.43.02-.02.04-.03.06-.05.08-.05.17-.1.25-.15Z"/>
      <path d="M54.79,5.5c-.37.19-.74.41-1.1.62.03.04.06.09.07.15.03.19.08.37.12.55.36-.3.75-.44,1.18-.55.06-.03.11-.06.17-.1.08-.05.16-.12.22-.2.13-.18,0-.5-.22-.52-.14-.01-.31-.01-.43.05Z"/>
      <path d="M55.2,14.66c.01.23.2.44.41.44.21,0,.39-.21.38-.45,0-.27-.22-.49-.45-.48-.2.02-.36.25-.34.49Z"/>
      <path d="M53.54,7.12c.52-.29,1.03-.57,1.52-.86-.43.11-.82.25-1.18.55-.05-.18-.09-.36-.12-.55-.01-.06-.04-.11-.07-.15-.08.05-.17.1-.25.15-.02.01-.04.03-.06.05-.12.12-.22.25-.21.43.04-.04.07-.08.1-.13,0,0,0,.01.01.02.04.15.08.31.11.46.04.02.09.03.14.04Z"/>
      <path d="M54.05,12c.07.16.23.24.43.21.1-.01.19-.05.29-.07.4-.08.78-.04,1.14.16.11.06.21.12.33.15.22.06.44-.17.4-.4-.04-.24-.21-.39-.42-.49-.43-.21-.9-.26-1.46-.26-.13.05-.35.1-.54.19-.2.1-.26.32-.18.51Z"/>
      <path d="M55.43,7.14c-.06.04-.11.1-.13.17.04,0,.08,0,.12,0,.1.06.22.06.33-.06.06-.06.11-.13.17-.19.04-.04.06-.08.07-.13-.03,0-.05,0-.08,0-.16.02-.33.1-.48.2Z"/>
      <path class="cls-9" d="M53.93,7.54c.34-.42.72-.61,1.15-.73,0,.02.01.04.02.07-.04-.07-.04.08-.05.11-.03.11.03.25.14.3.03.01.06.02.09.03.03-.07.07-.13.13-.17.14-.09.31-.18.48-.2.03,0,.05,0,.08,0,0-.02,0-.03,0-.05.08-.13.17-.26.26-.39.17-.23-.02-.5-.29-.44-.32.07-.61.13-.89.2-.5.28-1,.56-1.52.86-.05,0-.1-.02-.14-.04.02.1.04.19.06.29.03.22.31.37.48.17Z"/>
      <path d="M58.37,31.91c.07-.07.1-.19.07-.28,0-.01,0-.02,0-.03.21.07.43-.17.33-.37-.08-.02-.16-.04-.24-.06-.33-.08-.54.05-.57.29-.03.23.09.41.39.45,0,0,0,0,.01,0Z"/>
      <path class="cls-12" d="M58.55,31.15c.08.02.16.04.24.06-.01-.03-.04-.06-.07-.09-.26-.24-.5-.5-.76-.73-.18-.21-.4-.39-.64-.51-.16-.08-.29,0-.35.11,0-.01-.02-.03-.02-.04-.02-.04-.04-.07-.06-.1,0,0,0-.02-.01-.02t0,0s-.03-.04-.04-.05c-.17-.19-.41-.02-.44.18,0,.06,0,.12.03.18.07.13.15.25.23.36.06.14.12.28.22.39.04.04.08.07.13.08.29.35.62.67,1.02.94,0,0,0,0,0,0,0,0,0,0,0,0,.02.01.04.03.06.04.12.08.24.04.31-.05,0,0,0,0-.01,0-.3-.04-.42-.22-.39-.45.03-.24.24-.37.57-.29Z"/>
      <path d="M58.08,22.53c-.89-.1-1.76-.25-2.61-.56-.48-.18-.93-.36-1.12-.89-.02-.06-.09-.14-.15-.16-.11-.04-.25-.09-.34-.06-.09.04-.19.17-.21.28-.02.14,0,.3.06.43.19.46.52.77.98.95.98.38,1.99.59,3.02.75.32.05.64.09.89.13.12-.01.17-.02.22-.03.16-.03.26-.14.29-.29.04-.16-.07-.37-.24-.41-.26-.07-.53-.11-.8-.14Z"/>
      <path d="M58.96,20.18c.25-.11.49-.22.74-.34.16-.08.25-.27.21-.43-.05-.21-.3-.43-.49-.38-.39.1-.73.31-.95.66-.03.06-.03.14-.04.18.05.25.32.4.53.31Z"/>
      <path d="M60.58,15.87c-.01-.27-.23-.47-.47-.45-.19.01-.35.21-.34.41.02.27.22.46.48.45.21-.01.35-.18.33-.4Z"/>
      <path d="M60.75,35.26c.51.07.74.46.99.84.36.54.72,1.08,1.1,1.65-.39.55-.73,1.04-1.07,1.53-.09.12-.17.25-.25.37-.24.41-.2.58.19.87.14.1.28.2.4.33.53.56,1.06,1.12,1.59,1.69.12.13.22.27.33.41.28.35.37.74.29,1.19-.2,1.13-.37,2.26-.57,3.39-.31,1.82-.63,3.63-.94,5.45-.05.27-.08.54-.09.82,0,.22.17.39.36.41.21.02.38-.1.42-.34.08-.49.13-.99.22-1.48.41-2.38.83-4.76,1.24-7.14.07-.42.11-.84.19-1.25.02-.14.03-.28.02-.41-.02-.36-.16-.69-.38-1-.24-.32-.51-.61-.78-.9-.54-.58-1.1-1.16-1.65-1.74.21-.47.52-.83.79-1.21.09-.12.19-.23.28-.35.27-.32.3-.67.09-1.04-.05-.09-.1-.17-.15-.26-.42-.62-.84-1.24-1.27-1.84-.13-.18-.28-.35-.45-.5-.24-.21-.53-.28-.84-.16-.15.06-.25.17-.26.34,0,.16.04.33.21.35Z"/>
      <path d="M52.81,34.32c-.12.09-.23.14-.31.22-.25.24-.48.49-.72.74.68,1.24,1.37,2.48,2.05,3.72,0,.02.04.02.06.03.02,0,.05,0,.07,0,.02-.01.04-.03.04-.06.23-.6.45-1.21.7-1.87-.59-.92-1.22-1.83-1.9-2.78ZM57.37,35.37c-.21.14-.3.6-.3,1.31.43.45.87.9,1.34,1.39.01-.53-.33-1.71-.73-2.61-.11-.03-.22-.06-.31-.08ZM55.9,41.91c.65.23,1.02.7,1.06,1.39.02.27.02.55.02.82,0,.12,0,.24,0,.36.09.04.15.08.22.11.73.27,1.12.84,1.09,1.59,0,.22-.03.44-.05.64.69.29.79.4.86,1.11.1.95.02,1.89-.11,2.83-.03.19-.04.4.02.58.41,1.38.85,2.76,1.27,4.15.24,0,.18-.19.2-.31.23-2.07.2-4.14.02-6.2-.24-2.66-.64-5.3-1.21-7.91-.1-.45-.26-.86-.52-1.23-.62-.88-1.29-1.72-2.09-2.43-.06-.05-.11-.1-.17-.15-.15-.13-.24-.27-.29-.43-.04-.13-.04-.28,0-.44.09-.39.16-.78.23-1.17.04-.22.05-.44.07-.68-.37-.36-.73-.7-1.09-1.04-.34-.33-.67-.66-1.08-.99-.36.38-.7.73-1.07,1.11.11.16.19.31.29.44.55.8,1.09,1.61,1.67,2.39.12.16.2.32.23.47.06.24.01.48-.13.76-.23.47-.37.98-.57,1.46-.1.25-.23.49-.39.81.49.42.58,1.05.7,1.68.27.09.53.17.78.26ZM54.64,28.99c-.57-.09-1.1-.29-1.59-.61-1.66-1.11-3.27-2.28-4.83-3.53-.62-.5-.96-1.11-1.02-1.91-.07-.84-.2-1.68-.3-2.54-.25-.14-.48-.26-.77-.42-.06.17-.14.3-.14.43-.02.8,0,1.59-.02,2.39-.02,1.05-.06,2.09-.1,3.14-.01.29-.05.59-.07.85.33.18.65.36.97.54,1.89,1.07,3.85,1.99,5.86,2.81.41.17.85.27,1.29.37.45.11.67.07,1.38-.13.17-.38.28-.76.3-1.21-.33-.06-.64-.13-.96-.18ZM56.1,43.25c-.02-.14-.09-.3-.19-.39-.25-.21-.53-.34-.89-.25-.03.26-.07.48-.09.7-.07.77-.13,1.54-.21,2.31-.02.25-.07.49-.12.74-.05.22-.26.34-.45.31-.17-.04-.29-.18-.3-.38,0-.15,0-.3.02-.45.08-.77.19-1.53.25-2.3.05-.62.05-1.24.08-1.87.02-.43-.19-.78-.42-1.1-.28-.37-.79-.36-1.09,0-.19.23-.34.49-.53.73-.06.08-.15.12-.25.13.03-.1,0-.21-.06-.29.04-.04.07-.08.11-.12.22-.21-.06-.51-.3-.43.36-.55.7-1.12,1.47-1.16,0-.06,0-.09,0-.11-.05-.11-.09-.23-.15-.34-2.06-4.04-4.63-7.73-7.58-11.17.12-.11.2-.24.17-.41-.03-.14-.08-.27-.18-.37.02-.07.03-.15.03-.22,0-.04,0-.08-.02-.11.04-.2-.12-.34-.32-.32.04-.7.1-1.4.11-2.11.02-1.25.13-2.49,0-3.74-.02-.17-.04-.35,0-.52.03-.16.13-.3.21-.47-.93-.68-1.46-1.59-1.71-2.67-.06-.27-.12-.51-.34-.72-.11-.11-.16-.31-.2-.47-.37-1.54-.55-3.09-.56-4.67-.01-1.55.42-2.9,1.68-3.91.21-.17.4-.38.63-.53.29-.19.6-.37.91-.51.11-.05.26-.08.39-.06-.04.21.01.39.28.41.04,0,.08,0,.11,0,0,.12-.07.24-.21.3-.11.05-.23.09-.35.14-1,.43-1.7,1.2-2.26,2.1-.07.1-.1.23-.13.35-.08.39-.17.78-.21,1.17-.16,1.36.06,2.68.3,4.21.19-.28.28-.42.37-.55.3-.42.69-.62,1.21-.61.59.01,1.09.23,1.53.59-.11.08-.18.22-.09.37.06.1.12.2.19.3-.04.09-.03.21.07.29.02.02.04.04.07.05-.14.15-.39.17-.53.02-.05-.05-.1-.12-.12-.18-.22-.52-.7-.58-1.17-.65-.1-.02-.24.06-.33.14-.11.09-.21.22-.26.35-.23.56-.34,1.15-.22,1.76.21,1.08.74,1.95,1.7,2.52.41.24.78.53,1.19.78.26.16.36.39.4.68.09.82.22,1.63.3,2.45.04.48.21.86.59,1.16.53.42,1.04.86,1.58,1.26,1.02.75,2.06,1.49,3.11,2.21.3.21.65.4,1,.48.9.21,1.81.36,2.71.51.48.08.86-.08,1.15-.5.91-1.31,1.81-2.63,2.54-4.06.5-.98.89-2.01.97-3.12.06-.79.08-1.6.04-2.39-.06-1.42-.19-2.84-.1-4.26,0-.09-.03-.19-.04-.25-.42-.15-.79-.25-1.19-.03-.16.09-.35-.04-.43-.2-.08-.16-.04-.36.1-.47.1-.07.21-.14.32-.17.38-.12.77-.17,1.13,0,.04-.04.07-.06.08-.08.02-.04.03-.09.04-.14.1-.61-.23-1.06-.58-1.49-1.05-1.32-2.31-2.42-3.69-3.37-.44-.3-.91-.38-1.41-.16-.04.02-.09.05-.13.07-.22.07-.43-.01-.52-.19-.07-.14-.08-.31-.03-.44.04,0,.08,0,.12,0,.1.06.22.06.33-.06.06-.06.11-.13.17-.19.04-.04.06-.08.07-.13.71-.06,1.38.03,1.98.48,1.6,1.2,3.13,2.47,4.24,4.18.06.09.12.24.31.14.19-.73.27-1.49.24-2.27-.02-.65-.22-1.23-.63-1.72-.35-.42-.71-.84-1.11-1.21-.53-.49-1.09-.95-1.66-1.4-1.66-1.32-3.49-2.3-5.56-2.83-.49-.13-.97-.21-1.47-.22-1.01-.02-1.91.23-2.71.89-.66.54-1.22,1.17-1.76,1.83-.07.09-.12.18-.16.28-.07-.03-.16-.03-.24.02-.18.1-.35.21-.52.33-.04-.07-.1-.12-.18-.14-.03-.09-.03-.2,0-.31.04-.12.1-.23.17-.33.78-.95,1.58-1.87,2.59-2.58.39-.28.81-.47,1.27-.61.89-.26,1.77-.24,2.66-.04,1.69.37,3.28,1.01,4.75,1.93,1.25.78,2.41,1.69,3.48,2.7.42.39.78.84,1.15,1.28.46.56.67,1.21.71,1.93.05,1-.04,1.99-.31,2.96-.15.57-.15.57-.76.81-.02.11-.05.23-.05.35,0,1.35-.09,2.69.03,4.04.07.72.1,1.44.11,2.17.02,1.52-.25,2.97-.92,4.35-.82,1.69-1.86,3.24-2.93,4.77-.4.56-.95.78-1.64.66-.17-.03-.34-.02-.51-.04-.07.11-.14.18-.17.27-.03.1-.06.21-.09.3-.03.13-.06.24-.09.33.42.77.82,1.46,1.17,2.18.49,1.01.84,2.07,1.2,3.14,1.22,3.71,1.99,7.52,2.5,11.38.26,1.93.42,3.87.35,5.82-.05,1.54-.1,3.29-.61,5.09-.05.19-.2.36-.35.32-.13-.03-.3-.11-.36-.22-.11-.22-.16-.47-.23-.71-.4-1.47-.79-2.94-1.18-4.4-.03-.11-.11-.21-.19-.36-.19.19-.36.33-.51.49-1.6,1.72-3.34,3.3-5.21,4.71-.16.12-.32.24-.5.32,0,0,0,0-.01,0,0-.1-.05-.2-.15-.24,0,0,0,0-.01,0-.04-.07-.11-.12-.18-.14-.07-.01-.14-.02-.22-.02,0-.09.05-.18.13-.26.18-.17.38-.32.58-.46,1.9-1.39,3.62-2.97,5.19-4.73.19-.21.35-.42.41-.7.23-1.13.4-2.26.28-3.41-.01-.09,0-.21-.18-.25-.03.07-.09.14-.11.22-.09.31-.15.63-.26.93-.07.21-.28.3-.48.25-.19-.05-.33-.25-.26-.47.12-.38.09-.78.22-1.16.14-.42.16-.88.21-1.32.03-.28,0-.56-.22-.76-.08-.07-.2-.09-.34-.16-.03.17-.05.29-.08.41-.08.39-.14.78-.24,1.17-.05.19-.15.37-.25.54-.08.13-.23.19-.39.14-.17-.05-.3-.23-.27-.4.02-.15.07-.29.11-.43.25-.89.33-1.81.37-2.73.01-.27-.01-.55-.05-.82ZM55.84,31.3c-.38.03-.79.07-1.21.09-.05,0-.11,0-.16,0-.12,0-.24-.02-.35-.04-.74-.13-1.46-.32-2.14-.63-1.43-.65-2.85-1.31-4.27-1.97-.18-.08-.35-.17-.51-.25-.04.05-.06.07-.06.09,0,.02,0,.05.02.07,1.48,1.9,2.88,3.86,4.18,5.96.19-.2.35-.36.5-.52.54-.59,1.07-1.18,1.61-1.76.12-.13.24-.25.37-.37.29-.27.46-.39.65-.37.16.02.33.16.57.41.68.69,1.38,1.36,2.13,2.09-.14-.78-.71-1.96-1.31-2.79Z"/>
      <path d="M66.37,73.8v.02c.08-.01.16-.03.23-.04-.08,0-.15.01-.23.02Z"/>
      <path d="M67.22,67.57c.03-1.67.07-3.34.1-5.01.02-.82.03-1.65.04-2.47.02-1.27.05-2.54.06-3.81,0-.42,0-.85-.03-1.27-.07-1.14-.15-2.29-.23-3.43-.21-3.08-.41-6.17-.62-9.26-.02-.37-.05-.75-.08-1.12-.03-.29-.11-.55-.26-.79-.05-.08-.11-.15-.17-.22-.12-.12-.26-.23-.41-.32-.17-.1-.35-.05-.47.09-.11.13-.14.37,0,.48.55.41.59,1,.63,1.61.03.49.05.98.08,1.47.07,1.25.14,2.5.22,3.75.13,1.99.25,3.98.41,5.97.13,1.62.13,3.24.09,4.86-.02.85-.03,1.7-.03,2.54-.02,1.77-.02,3.54-.05,5.31-.03,1.59-.08,3.19-.12,4.78-.02.77-.04,1.55-.05,2.32,0,.21.02.43.04.73.08,0,.15-.01.23-.02.15-.02.27-.04.38-.06.05-.08.1-.12.1-.16.03-.3.06-.59.07-.89.03-1.69.04-3.39.07-5.08Z"/>
      <path d="M59.8,32.64c.71.58,1.41,1.18,2.1,1.79,1.4,1.24,2.76,2.53,4.05,3.9.03-.16.22-.28.36-.22-.08-.18.03-.34.18-.38-.17-.18-.34-.37-.53-.53-1.6-1.47-3.2-2.93-4.8-4.39-.33-.3-.68-.59-1.04-.86-.26-.2-.52-.38-.81-.53-.17-.09-.35-.15-.54-.2.1.2-.12.44-.33.37,0,.01,0,.02,0,.03.03.1,0,.21-.07.28.52.07.91.36,1.31.65.04.03.08.06.12.09Z"/>
      <path d="M66.32,38.11c-.15-.06-.33.06-.36.22.03.03.07.07.1.11.14.15.26.3.46.27.26-.03.43-.3.34-.5-.05-.11-.12-.22-.2-.31-.05-.05-.1-.11-.15-.16h0c-.15.04-.26.2-.18.38Z"/>
      <path class="cls-12" d="M66.05,38.44s-.07-.07-.1-.11c-.01.06,0,.13.03.19.27.46.62.86.94,1.28.01.11.02.23.03.35,0,.09.04.15.1.19.06.04.13.06.2.05,0,0,0-.01,0-.02-.11-.33-.03-.52.28-.66.04-.02.09-.04.14-.06-.11-.29-.24-.58-.37-.87-.11-.33-.26-.65-.5-.95-.08-.1-.19-.13-.29-.11.05.05.1.11.15.16.08.09.15.2.2.31.09.2-.07.47-.34.5-.2.03-.32-.12-.46-.27Z"/>
      <path d="M67.52,39.72c-.31.14-.39.33-.28.66,0,0,0,.01,0,.02.03,0,.06,0,.08-.02.01.02.03.04.04.07.15.24.5.09.5-.15,0-.03,0-.06-.01-.09-.06-.19-.13-.37-.2-.56-.04.02-.09.04-.14.06Z"/>
      <path d="M70.61,72.86c.06-.01.12-.03.18-.04,0-.03-.01-.05-.02-.08-.02-.14.06-.23.16-.26t0,0c-.07-.19-.27-.21-.41-.14,0,.15,0,.3,0,.44.06.05.08.09.09.08Z"/>
      <path class="cls-12" d="M70.8,72.82c-.06.01-.12.03-.18.04-.01,0-.03-.03-.09-.08,0-.14,0-.29,0-.44-.1.06-.16.17-.11.31.11.29.2.55.2.86-1.34.07-2.68.16-4.02.27-.07.01-.15.02-.23.04v-.02c-4.15.35-8.28.86-12.42,1.27-2.81.28-5.62.51-8.44.59-1.42.04-2.84.05-4.25.01-.72-.02-1.45-.11-2.18-.16-.26.19-.52.36-.8.5,1,.02,2.03.18,3.02.2,1.42.03,2.84.03,4.25-.01,2.82-.09,5.64-.31,8.44-.59,5.63-.56,11.25-1.3,16.91-1.57.11,0,.24-.1.25-.21.03-.19.03-.37,0-.55-.17-.11-.3-.26-.35-.45Z"/>
      <path d="M71.04,72.77c-.03-.09-.06-.19-.1-.29-.1.03-.18.12-.16.26,0,.03,0,.06.02.08.08-.02.16-.04.24-.06Z"/>
      <path class="cls-13" d="M71.04,72.77c-.08.02-.16.04-.24.06.05.19.17.34.35.45-.02-.17-.05-.34-.1-.51Z"/>
      <path d="M70.94,72.48c.03.1.07.19.1.29.04-.01.09-.02.13-.03.04-.06.08-.11.1-.16-.08-.1-.22-.13-.33-.09Z"/>
      <path d="M71.29,72.52c.02-.12.03-.25.03-.37,0-2.02,0-4.04.01-6.06.03-3.37-.24-6.73-.54-10.08-.14-1.54-.25-3.08-.43-4.62-.15-1.26-.35-2.52-.57-3.77-.23-1.28-.48-2.55-.76-3.81-.2-.9-.45-1.79-.69-2.68-.07-.26-.14-.52-.22-.81l-.25-.02c0,.24-.35.4-.5.15-.01-.02-.03-.05-.04-.07-.03.01-.05.02-.08.02.21.66.47,1.3.64,1.97.28,1.11.54,2.23.76,3.35.28,1.42.53,2.84.74,4.27.2,1.38.37,2.77.49,4.16.21,2.34.41,4.67.53,7.01.11,2.22.13,4.44.16,6.66.02,1.12,0,2.24-.02,3.36,0,.39-.01.78-.02,1.15.13-.08.34-.05.41.14t0,0c.11-.04.25,0,.33.09,0-.02.02-.04.02-.06Z"/>
      <path d="M68.12,40.31c.99-.36,1.95-.7,2.9-1.05.84-.31,1.68-.63,2.52-.93.09-.03.19-.04.29-.06.04-.04.08-.08.11-.13,0-.1,0-.2-.03-.3-.08-.23-.22-.33-.44-.3-.1.01-.2.03-.29.07-1.61.58-3.23,1.16-4.84,1.75-.23.08-.46.19-.68.29.07.18.14.37.2.56,0,.03.01.06.01.09l.25.02Z"/>
      <path class="cls-9" d="M75.31,34.18c.03-.27.04-.53.03-.78-.09.03-.16.11-.18.2-.02.06-.03.12-.05.17-.01,0-.03,0-.04,0-.15,0-.27.14-.26.29,0,0,0,.02,0,.03.16.01.33.04.5.1Z"/>
      <path d="M75.34,33.41c0,.25,0,.51-.03.78-.17-.06-.33-.08-.5-.1.02.12.11.21.23.23.02,0,.04,0,.05,0,0,0,0,0,0,0,.02,0,.03,0,.05.01.09.01.19,0,.27-.05.17-.13.22-.36.27-.56.04-.14-.07-.3-.21-.33-.05,0-.1,0-.14,0Z"/>
      <path d="M75.65,17.2c-.24.13-.1.53.17.5.19-.02.37-.09.54-.17.01-.11-.03-.22-.11-.3-.1-.09-.2-.14-.31-.16-.09.04-.19.09-.28.14Z"/>
      <path d="M70.93,22.34c-.63,1.23-.95,2.56-1.26,3.9-.29,1.27-.37,2.57-.31,3.86.02.42.09.85.18,1.26.13.57.43,1.06.82,1.49.9.98,2.01,1.64,3.31,1.92.47.1.95.15,1.49.02l-.12-.47c-.12-.02-.21-.11-.23-.23-.23-.02-.46,0-.68-.04-1.36-.2-2.49-.85-3.35-1.93-.33-.42-.52-.91-.57-1.44-.11-1.22-.1-2.43.09-3.65.46-2.88,1.66-5.42,3.45-7.69.31-.39.67-.74,1.04-1.07.3-.26.64-.47,1.08-.4.1.02.24-.05.34-.12.08-.06.12-.14.13-.22-.17.08-.35.15-.54.17-.26.03-.41-.37-.17-.5.09-.05.19-.1.28-.14-.17-.04-.36-.02-.54.04-.41.12-.8.31-1.11.6-.39.38-.8.76-1.14,1.18-.85,1.08-1.58,2.24-2.21,3.46Z"/>
      <path class="cls-9" d="M77.06,17.26c.1-.01.17-.07.21-.14-.03.03-.08.04-.12.06-.2.08-.48-.12-.48-.4,0,0,0-.02.01-.03-.05,0-.1,0-.15.04-.2.11-.4.19-.61.28.11.03.21.08.31.16.09.08.13.19.11.3.23-.11.46-.23.71-.26Z"/>
      <path d="M77.16,17.18s.09-.03.12-.06c.09-.17,0-.43-.24-.41-.09,0-.17.03-.24.06-.03-.01-.07-.02-.1-.03,0,.01,0,.02-.01.03,0,.28.28.48.48.4Z"/>
      <path d="M82.48,25.52c-.03-.23-.25-.42-.46-.41-.22,0-.39.23-.36.48.03.26.2.42.44.4.24-.02.41-.23.37-.46Z"/>
      <path class="cls-9" d="M82.7,20.61c-.15.02-.29.15-.23.33.09-.1.17-.21.23-.33Z"/>
      <path class="cls-9" d="M82.44,23.11c-.09.19.05.41.26.4l.49-.03s-.01-.04-.02-.06c-.03-.15,0-.3.14-.4.06-.04.12-.07.19-.1-.03,0-.06-.01-.1-.01l-.31.02c.18-.55.19-1.12.05-1.68-.15.17-.3.33-.47.48.05.46-.01.92-.23,1.37Z"/>
      <path d="M82.7,20.61c-.07.12-.14.23-.23.33,0,0,0,.01,0,.02.1.26.17.53.2.79.17-.15.32-.31.47-.48-.04-.16-.09-.32-.15-.48-.05-.14-.18-.19-.29-.17Z"/>
      <path d="M83.48,20.35c-.1-.14-.25-.18-.4-.14-.11.03-.25.11-.29.2-.03.07-.06.13-.1.2.12-.02.24.03.29.17.06.16.11.32.15.48.12-.14.24-.28.36-.42.12-.14.1-.32-.02-.48Z"/>
      <path d="M83.3,23.03c-.14.09-.17.24-.14.4,0,.02.01.04.02.06h.24c.32-.03.32-.47.06-.55-.07.03-.13.06-.19.1Z"/>
      <path d="M84.8,31.74c-.43-.27-.92-.26-1.39-.35-.45-.08-.91-.13-1.42-.14,0,.66.2,1.21.44,1.75.15.33.29.69.64.87.57-.35,1.23-1.16,1.74-2.13ZM81.07,31.07c-.05-.47.17-.7.6-.68.03,0,.05,0,.07.01,1.1.19,2.21.37,3.31.57.17.03.34.09.49.17.19.09.27.31.21.51-.04.12-.09.23-.16.34-.5.8-1.05,1.58-1.69,2.28-.08.09-.17.18-.27.26-.37.29-.7.29-1.09.01-.29-.21-.48-.5-.65-.81-.47-.84-.65-1.77-.83-2.66Z"/>
      <path d="M85.6,28.79c-.17,0-.35.01-.51.05-.16.04-.24.17-.25.33,0,.18.13.34.3.37.1.01.2.01.28.02.09-.01.17-.01.24-.03.17-.04.29-.22.28-.39-.01-.17-.16-.34-.33-.34Z"/>
      <path d="M86.31,26.44c0,.24.19.44.4.44.22,0,.4-.22.38-.45-.03-.24-.21-.41-.44-.4-.19,0-.35.19-.34.4Z"/>
      <path d="M78.82,16.74c2.04.15,3.94.77,5.72,1.77.57.32,1.11.67,1.53,1.18.08.09.18.17.29.23.04.02.09.04.13.04.06-.1.17-.16.28-.13.06-.09.1-.23.08-.33-.02-.11-.09-.24-.17-.32-.26-.26-.51-.55-.82-.75-1.91-1.27-3.99-2.1-6.28-2.36-.62-.07-1.24-.11-1.86-.04-.4.05-.69.27-.93.56-.05.06-.07.13-.08.17.03,0,.07.01.1.03.08-.03.16-.05.24-.06.25-.02.33.24.24.41,0,0,0,0,.01,0,.43-.46.99-.42,1.53-.38Z"/>
      <path d="M86.5,20.57c-.11.09-.17.25-.12.39.05.13.11.25.11.38h0s0-.07.03-.1c.03-.06.06-.12.09-.18-.08-.03-.15-.11-.15-.23,0-.09.02-.18.03-.26Z"/>
      <path d="M86.48,19.96c.11.01.21-.04.27-.12,0,0,0,0,0,0-.11-.03-.22.03-.28.13Z"/>
      <path d="M87.25,20.95c-.03-.15-.12-.27-.25-.37-.13-.1-.27-.12-.42-.06-.03.01-.05.03-.08.05-.01.09-.03.17-.03.26,0,.12.06.2.15.23-.03.06-.06.12-.09.18-.02.03-.02.07-.03.1-.02.27.38.43.51.15.08-.18.18-.35.24-.54Z"/>
      <path class="cls-9" d="M87,20.58c.13.1.22.22.25.37.02-.06.03-.12.04-.19.03-.36-.16-.63-.41-.87-.04-.04-.08-.06-.12-.07,0,0,0,0,0,0-.07.09-.17.14-.27.12-.05.08-.06.19-.01.29.06.11.05.22.03.33.02-.02.05-.04.08-.05.15-.07.29-.04.42.06Z"/>
      <path d="M85.16,57.31c.05,0,.1,0,.15,0,.05-.31.11-.62.15-.94.22-1.51.2-3.03.16-4.55-.04-1.42-.24-2.83-.43-4.23-.15-1.11-.31-2.22-.59-3.35-1.02-.16-2.05-.28-3.08-.39-1.01-.11-2-.34-3.11-.28.12.25.19.42.29.59.72,1.22,1.45,2.44,2.17,3.66,1.66,2.76,2.93,5.71,4,8.74.09.25.19.5.28.75ZM81.94,37c-.19-.05-.35-.11-.51-.14-.87-.14-1.68-.43-2.49-.76-.66-.26-1.23-.65-1.7-1.19-.24-.28-.5-.56-.75-.83-.08-.09-.17-.16-.29-.27-.17.85-.29,1.66-.51,2.43-.22.76-.55,1.49-.86,2.29,1.02,1.42,2.03,2.84,3.07,4.28.62-.13,1.25-.05,1.89.02,1.43.15,2.87.32,4.3.49.07,0,.14,0,.2,0,.12-.13.04-.25,0-.36-.27-.86-.58-1.69-1.21-2.37-.64-.7-.96-1.56-1.04-2.51-.03-.35-.07-.69-.11-1.06ZM74.04,26.11c.25.1.49.2.73.29.36-.52.68-1.03,1.03-1.51.58-.81,1.18-1.61,1.78-2.41.33-.44.68-.86.87-1.39.03-.09.11-.16.18-.23.12-.12.38-.1.46.05.07.12.12.29.09.42-.04.19-.15.37-.26.53-.43.61-.88,1.21-1.31,1.82-.12.17-.22.35-.41.66.8-.35,1.46-.63,2.08-.99.89-.5,1.71-1.12,2.49-1.78.24-.2.49-.4.69-.64,0,0,0,.01,0,.02.1.26.17.53.2.79,0,0-.02.02-.03.03-1.34,1.2-2.77,2.28-4.43,3.01-.57.25-1.12.54-1.73.51-.48.61-.88,1.21-1.04,1.94,0,.05-.02.1-.04.14-.12.25-.4.34-.62.17-.24-.18-.45-.39-.69-.56-.32-.23-.63-.19-.84.13-.19.29-.35.61-.45.93-.29.93.06,1.75.93,2.19.33.17.69.32,1.05.36.41.05.62.25.77.6.44,1.05,1.18,1.89,1.9,2.76.68.82,1.51,1.36,2.51,1.67.31.1.61.2.93.29.82.22,1.63.21,2.43-.08.33-.11.66-.22,1-.32,1.21-.36,2.02-1.17,2.54-2.27.28-.61.51-1.25.67-1.9.49-1.98.47-4,.34-6.03,0-.17-.06-.34-.09-.45-.19-.14-.35-.22-.47-.33-.31-.31-.63-.55-1.12-.38-.16.05-.35-.12-.39-.28-.04-.17.05-.29.16-.39.25-.22.55-.21.85-.15.19.04.36.13.55.2-.09-.65-.17-.78-.61-1.11-.89.57-1.78.94-2.81,1.18-.14.03-.3.06-.44.06-.14,0-.26-.05-.32-.18h.24c.32-.03.32-.47.06-.55.03,0,.06-.02.08-.03.26-.07.53-.13.79-.21.55-.15,1.1-.32,1.59-.63.22-.14.39-.31.5-.54.03-.06.04-.12.04-.18h0c-.02.27.38.43.51.15.08-.18.18-.35.24-.54.01.04.02.09.02.14,0,.22-.02.45-.03.71.41.17.57.56.75.95.39.85.6,1.75.66,2.67.12,1.67.08,3.34-.14,5-.16,1.19-.49,2.34-1.05,3.41-.6,1.15-1.48,2-2.73,2.4-.5.16-1,.32-1.49.49-.16.05-.32.13-.46.19-.04.99.01,1.34.32,2.02,1.12.43,2.25.87,3.4,1.29.58.21,1.19.37,1.78.57.21.07.41.18.59.3.04.03.07.06.09.1,0,0-.01,0-.02,0-.17.04-.3.26-.17.43.02.04.05.08.08.12-.11.07-.28.07-.43,0-.27-.12-.53-.26-.81-.36-1.12-.4-2.25-.79-3.38-1.19-.11-.04-.22-.12-.39,0,.19.19.38.37.56.55.07.24.11.49.21.71.5,1.21.76,2.48.98,3.76.22,1.33.38,2.66.57,4,.3,2.16.33,4.32.17,6.49-.07.97-.21,1.93-.47,2.87-.05.19-.11.39-.2.56-.16.31-.54.33-.71,0-.16-.31-.27-.64-.38-.97-.99-3.2-2.26-6.28-3.92-9.2-.89-1.56-1.8-3.11-2.73-4.64-1.17-1.92-2.4-3.79-3.92-5.46-.17-.19-.23-.38-.17-.61.04-.04.08-.08.11-.13.07-.07.15-.13.2-.21.47-.86.83-1.75,1.02-2.72.03-.14.03-.28.04-.44-.01,0-.03,0-.04.01l-.12-.47s.04,0,.05,0c0,0,0,0,0,0,.02,0,.03,0,.05.01.09.01.19,0,.27-.05.17-.13.22-.36.27-.56.04-.14-.07-.3-.21-.33-.05,0-.1,0-.14,0-.02-.69-.19-1.32-.59-1.89-.43-.16-.83-.28-1.22-.46-.76-.35-1.35-.9-1.55-1.73-.27-1.13.1-2.12.88-2.95.31-.33.71-.45,1.16-.26Z"/>
      <path d="M88.95,41.65c.08-.12.08-.31,0-.45,0,0-.01,0-.02,0-.17.04-.3.26-.17.43.02.04.05.08.08.12.05-.02.08-.06.11-.1Z"/>
      <path class="cls-13" d="M89.7,41.88c-.13-.22-.32-.41-.51-.59-.06-.07-.14-.1-.22-.09,0,0-.01,0-.02,0,.08.13.08.32,0,.45-.03.04-.06.08-.11.1.08.11.17.22.25.33.05.06.11.13.15.2.01.02.07.14.06.08.02.14.11.21.22.24.08-.24.13-.48.17-.73Z"/>
      <path d="M89.85,42.33c-.02-.17-.07-.32-.15-.46-.04.25-.09.49-.17.73.16.04.35-.05.33-.27Z"/>
      <path class="cls-13" d="M74.67,73.15c-.34,0-3.28.1-3.35-.44,0-.06-.03-.1-.06-.14-.02.05-.06.1-.1.16-.04,0-.09.02-.13.03.05.17.09.34.1.51.61.4,1.82.36,2.31.38,2.16.1,4.32-.02,6.47-.12,2.41-.11,4.82-.25,7.23-.29.97-.01,1.94-.02,2.91.05.55.04,1.18.07,1.67.32.13.07.25.02.32-.06-.18,0-.31-.08-.39-.28-.04-.11-.08-.22-.11-.33-1.11-.38-2.53-.26-3.62-.26-2.24,0-4.47.13-6.7.23-2.18.1-4.38.23-6.56.21Z"/>
      <path d="M92.06,73.56c.1-.12.11-.33-.07-.42-.13-.07-.28-.13-.43-.18.03.11.07.22.11.33.07.19.21.29.39.28Z"/>
      <path class="cls-13" d="M91.86,53.52s.06,0,.1,0c0-.04-.02-.08-.03-.11v-.22s-.02,0-.03,0c-.21-.17-.42-.35-.6-.56,0,0-.02-.02-.02-.03-.08.04-.13.12-.12.24.03.25.15.47.22.7l.03.56c0,.14.11.23.22.25,0-.03,0-.05,0-.07-.01-.1-.06-.19-.07-.29-.03-.21.11-.41.3-.46Z"/>
      <path d="M91.96,54.13c.05-.21.05-.42,0-.62-.03,0-.07,0-.1,0-.19.04-.33.24-.3.46.01.1.06.19.07.29,0,.02,0,.05,0,.07.13.02.28-.04.32-.2Z"/>
      <path d="M91.72,52.8c-.02-.23-.28-.3-.43-.21,0,0,.01.02.02.03.18.21.38.39.6.56,0,0,0,0,.02,0v-.03c0-.13-.08-.2-.18-.23-.01-.04-.02-.08-.02-.12Z"/>
      <path d="M94.12,69.81c0-.19-.02-.37-.03-.56-.02-.31-.45-.32-.53-.07.18.22.36.43.56.63Z"/>
      <path d="M90.69,48.25c-.16.08-.26.17-.37.19-.11.02-.27.03-.35-.03-.29-.23-.58-.47-.81-.75-.24-.29-.33-.66-.28-1.05.03-.19.04-.38.07-.59-.47.18-.6.32-.57.68.03.29.11.58.21.86.18.48,1.31,1.93,1.77,2.34.23-.54.33-.96.33-1.63ZM91.2,50.18c-.08.46.02.9.27,1.29.19.29.41.56.62.84.09.12.21.21.3.33.11.15.09.36-.02.48-.12.13-.31.17-.46.07v-.03c0-.13-.08-.2-.18-.23-.01-.04-.02-.08-.02-.12-.02-.23-.28-.3-.43-.21-.41-.49-.7-1.05-.87-1.62-.22-.11-.45-.16-.55-.29-.58-.75-1.14-1.51-1.69-2.28-.3-.41-.48-.87-.57-1.37-.15-.79.17-1.43.9-1.78.17-.08.35-.15.52-.22.06-.58.27-1.1.24-1.65,0-.1.03-.2.07-.29.08-.16.15-.32.2-.49.16.04.35-.05.33-.27-.02-.17-.07-.32-.15-.46.02-.14.04-.29.06-.43.01-.12.06-.24.1-.36.14-.38.46-.6.86-.57.15.01.29.05.44.1,1.49.42,2.9,1.03,4.28,1.74.15.08.29.19.41.32.04.04.06.08.08.12h0c-.03.08-.02.17.03.25-.02.09-.07.17-.14.23-.15.13-.36.12-.54-.02-.22-.16-.42-.35-.66-.48-1.1-.59-2.27-1.02-3.47-1.36-.16-.04-.33-.03-.5-.03-.13.26-.22.49-.09.73,1.25.33,2.4.86,3.58,1.32.07.03.14.06.21.09.04.02.08.06.12.08.18.14.24.34.14.53-.11.21-.34.28-.58.14-.87-.5-1.82-.79-2.75-1.14-.32-.12-.65-.24-1-.18-.18.25-.27.49-.24.81.18.06.37.13.56.19.94.32,1.89.63,2.83.96.18.06.37.15.52.27.19.15.17.48,0,.67-.13.15-.32.15-.53,0-.16-.11-.32-.24-.5-.31-.72-.27-1.45-.53-2.18-.78-.25-.09-.51-.18-.83-.15-.04.31-.08.6-.11.89.11.04.18.09.25.1.98.1,1.88.47,2.75.9.15.08.3.17.43.29.19.18.17.49-.02.66-.15.14-.33.12-.53-.05-.15-.13-.29-.28-.46-.37-.59-.33-1.24-.52-1.9-.64-.19-.03-.4-.07-.57.1-.15.55.1.9.57,1.15.18-.15.33-.33.59-.26.24.07.35.27.45.47.19.37.17.77.08,1.17-.08.39-.16.78-.23,1.17Z"/>
      <path d="M95.95,43.04c.02-.08,0-.16-.03-.24-.03.08-.02.17.03.24Z"/>
      <path class="cls-6" d="M96.35,42.79c.03-.06.06-.13.09-.19l-.29.02c-.13,0-.2.08-.23.18h0c.03.08.04.17.03.25.04.07.12.13.23.12h0s.2-.01.2-.01c-.07-.1-.09-.24-.03-.36Z"/>
      <path d="M96.35,42.79c-.06.12-.04.26.03.36l.35-.02c.35-.02.32-.56-.03-.54h-.25c-.03.08-.06.14-.09.21Z"/>
      <path d="M95.17,69.73c.17.17.38.32.59.45.69.4,1.39.51,2.13.11,1.02-.55,1.88-1.29,2.61-2.19.42-.52.54-1.11.33-1.75-.24-.73-.48-1.47-.75-2.19-.99-2.71-2-5.42-2.99-8.12-.16-.44-.31-.89-.46-1.34-.03-.09-.09-.17-.16-.31-.53.21-.98.42-1.45.56-1.33.39-2.68.75-4.02,1.13-.07.02-.14.05-.25.1,0,.16-.02.33,0,.49.51,2.87,1.09,5.72,1.83,8.54.1.38.24.76.35,1.14.4,1.36,1.27,2.41,2.24,3.39ZM91.16,62.52c-.27.64-.45,1.17-.35,1.75.23,1.45.49,2.9.71,4.36.2,1.36.45,2.7.82,4.03.04.14.06.29.08.44.02.26-.08.42-.27.46-.03,0-.05,0-.08.01.1-.12.11-.33-.07-.42-.13-.07-.28-.13-.43-.18,0-.03-.02-.07-.02-.1-.23-1.17-.49-2.34-.68-3.52-.27-1.65-.49-3.3-.87-4.93-.07-.32-.08-.63.03-.95.13-.4.22-.82.32-1.23.05-.17.06-.35.15-.5.09-.17.24-.3.38-.45-.03-.2-.05-.4-.09-.6-.32-1.51-.64-3.02-.96-4.54-.04-.17-.08-.34-.09-.51-.03-.3.18-.47.46-.42.17.03.34.13.49.1.34-.06.66-.17,1.03-.27-.03-.26-.05-.48-.08-.7.13.02.28-.04.32-.2.05-.21.05-.42,0-.62.16.01.34.13.38.28.05.16.06.34.1.51.04.16.1.32.17.52.84-.18,1.64-.37,2.51-.71-.39-.43-.38-.87-.32-1.32.18-1.26.35-2.52.53-3.77.17-1.16.37-2.31.54-3.47.08-.49.11-.99-.09-1.47-.02-.05-.03-.1-.03-.15-.01-.16.12-.35.27-.41.05-.02.1-.02.14-.02.1,0,.19.07.26.14.1.09.15.21.18.33.03.12.04.24.06.37.06.65-.04,1.29-.14,1.93-.27,1.67-.54,3.34-.78,5.02-.09.59-.11,1.19-.16,1.79-.02.27.06.49.34.63.36-.34.69-.07,1.03.05.27.1.31.37.38.61.22.71.41,1.44.67,2.14.98,2.66,1.99,5.32,2.98,7.98.25.68.47,1.36.7,2.05.14.42.07.85-.1,1.24-.12.27-.26.54-.45.77-.83,1.02-1.8,1.86-2.96,2.48-.29.15-.59.26-.92.29-.87.09-1.64-.15-2.29-.71-.3-.26-.58-.52-.85-.8,0-.19-.02-.37-.03-.56-.02-.31-.45-.32-.53-.07-.57-.71-1.03-1.51-1.31-2.43-.16-.53-.31-1.05-.44-1.58-.21-.84-.41-1.69-.64-2.65Z"/>
      <path d="M103.39,29.35c-.55.68-1.27,1.08-2.18,1.22.26-.42.51-.79.73-1.17.1-.17.19-.36.23-.55.03-.14.02-.3-.02-.44-.04-.15-.19-.25-.35-.22-.11.02-.21.1-.3.18-.05.04-.06.13-.07.21-.18.77-.64,1.33-1.27,1.78-.22.16-.45.32-.65.5-.16.14-.17.33-.07.47.12.17.33.23.52.13.18-.09.34-.21.54-.34.34.33.76.28,1.17.18.81-.2,1.52-.62,2.09-1.23.43-.46.77-.98,1-1.56.08-.2.11-.43.12-.65,0-.2-.22-.37-.4-.36-.15.01-.34.16-.34.34-.03.62-.38,1.07-.75,1.51Z"/>
      <path d="M104.83,32.83c-.25,0-.44.25-.42.51.02.2.22.37.41.34.21-.03.39-.25.38-.47,0-.21-.18-.38-.37-.38Z"/>
      <path d="M106.13,42.74c-.11.18.04.36.21.38.1-.19.04-.38-.15-.48-.02.03-.04.07-.06.1Z"/>
      <path d="M104.28,39.13c-.06-.11-.09-.23-.16-.34-.1-.16-.31-.24-.45-.17-.17.08-.27.22-.26.41,0,.05,0,.1.02.15.21.88,1.08,1.53,2.05,1.5.45-.08.96-.2,1.33-.6.1-.1.18-.23.24-.37.06-.15,0-.29-.12-.4-.13-.1-.27-.12-.41-.02-.1.07-.17.18-.27.24-.16.11-.33.23-.51.28-.72.18-1.11,0-1.45-.68Z"/>
      <path class="cls-6" d="M107.48,42.31c-.14.1-.28.07-.41-.03-.1-.08-.16-.19-.16-.29-.02.03-.04.06-.07.09-.05.07-.12.13-.14.14-.06,0-.1.03-.14.06-.16.08-.27.23-.37.38.18.11.25.29.15.48.06.01.13,0,.18-.03.13-.08.25-.16.38-.25,0,0,0,0,0,0,.06.05.12.07.18.07h0s.01-.02.02-.03c.06-.07.14-.12.23-.14.03-.06.04-.14,0-.21.02-.01.04-.03.06-.04.08-.04.12-.14.12-.22-.02.01-.03.02-.05.03Z"/>
      <path d="M107.09,42.92c.11,0,.2-.08.25-.17-.09.02-.17.07-.23.14,0,0-.02.02-.02.03Z"/>
      <path d="M107.53,42.28v-.02c-.01-.13-.02-.28-.13-.38-.1-.09-.26-.11-.38-.02-.05.04-.08.08-.12.13,0,.11.06.21.16.29.13.1.27.13.41.03.02,0,.03-.02.05-.03Z"/>
      <path d="M106.72,37.09c0,.17.13.34.3.37.05,0,.1,0,.2,0,.05-.01.15-.03.23-.07.16-.07.24-.27.19-.44-.06-.2-.28-.31-.54-.26-.23.05-.37.2-.38.39Z"/>
      <path d="M106.94,30.93c.75-.48,1.29-1.54,1.23-2.6-.04-.1-.12-.36-.23-.6-.07-.14-.21-.2-.38-.19-.21,0-.38.19-.35.39.01.07.04.15.07.21.32.69.08,1.26-.38,1.77-.16.19-.37.33-.56.5-.14.13-.16.33-.07.47.09.15.29.21.46.15.07-.02.14-.06.2-.1Z"/>
      <path d="M108.84,33.51c-.24.01-.41.22-.38.45.02.2.2.32.43.31.24-.02.39-.16.39-.36,0-.24-.19-.41-.43-.4Z"/>
      <path d="M109.54,31.24c-.04-.2-.21-.32-.44-.32-.03,0-.05,0-.2.01-.29.09-.69.21-1.09.36-.19.07-.26.25-.21.42.05.2.25.32.46.27.38-.1.76-.21,1.14-.32.25-.07.36-.22.33-.42Z"/>
      <path class="cls-6" d="M93.65,72.83c3.78.22,7.54.82,11.33,1.03,2.04.11,4.13.21,6.17-.06.91-.12,2.33-.29,2.87-1.18-.01,0-.02,0-.03,0-.17-.02-.28-.12-.31-.27-.01-.06-.02-.12-.02-.18-.01.02-.03.04-.04.06-.46,1.04-2.49,1.07-3.41,1.13-2.02.14-4.05.06-6.06-.08-3.39-.23-6.77-.74-10.17-.96.16-.83.18-1.66.15-2.5-.2-.2-.38-.41-.56-.63-.01.03-.01.06-.01.1.06,1.09.08,2.15-.18,3.22,0,.03,0,.05,0,.08,0,.15.14.25.29.25Z"/>
      <path d="M113.65,72.16c0,.06.01.12.02.18.03.16.15.25.31.27.01,0,.02,0,.03,0,.03-.05.06-.1.08-.15.13-.3-.28-.54-.45-.31Z"/>
      <path d="M109.07,33.18c-.31,0-.69-.14-.9.18-.25.38-.33.83-.19,1.28.06.2.24.31.43.38.42.16.86.2,1.34.19.08-.44.06-.86.08-1.27.01-.35-.19-.55-.47-.68-.09-.04-.19-.07-.28-.07ZM105.01,43.42c-1.18-.08-2.05-.61-2.81-1.38-.72-.73-1.43-1.46-2.14-2.19-.4-.41-.6-.9-.63-1.48s-.09-1.18-.14-1.79c-.22.14-.18.36-.18.55.01,1.22.04,2.44.06,3.67.11.11.21.22.32.31.91.69,1.82,1.39,2.74,2.07.38.28.79.52,1.2.75.38.22.75.23,1.1-.1.16-.15.32-.29.49-.44ZM104.31,31.33c-.16-.06-.34-.09-.5-.16-.15-.07-.22-.21-.19-.37.03-.16.12-.27.29-.31.07-.02.16-.03.22-.01.38.13.75.26,1.12.42.25.11.37.33.29.61-.02.09-.05.19-.08.3.74.25,1.14.8,1.37,1.48.14.03.26.06.39.09.07-.14.13-.24.19-.35.25-.48.67-.65,1.18-.64.3,0,.59.07.89.1.12.01.23.01.39.02,0-.24.04-.45-.02-.62-.07-.23-.07-.43-.01-.66.06-.26.08-.54.14-.81.1-.52.08-1.04-.07-1.55-.24-.85-.61-1.64-1.09-2.37-.2-.31-.47-.59-.74-.84-.9-.81-1.99-1.25-3.17-1.39-.91-.11-1.86-.11-2.59.63-.02.02-.04.03-.06.04-.16.1-.37.07-.48-.05-.02-.02-.03-.03-.04-.05-.08-.13-.09-.32.01-.43.19-.19.39-.41.63-.52.73-.34,1.51-.52,2.32-.43.98.11,1.9.4,2.78.84.96.49,1.73,1.19,2.24,2.14.29.55.55,1.12.79,1.69.29.68.43,1.4.31,2.12-.12.71-.18,1.42-.16,2.14.01.57-.05,1.15-.06,1.72-.02,1.3-.08,2.59-.21,3.88-.06.55-.21,1.07-.52,1.54-.61.92-1.28,1.78-2.08,2.54-.08.07-.16.14-.24.2v-.02c-.01-.13-.02-.28-.13-.38-.1-.09-.26-.11-.38-.02-.05.04-.08.08-.12.13,0-.06.02-.12.05-.17.13-.18.28-.35.43-.51.61-.6,1.13-1.26,1.62-1.95.32-.46.51-.96.57-1.52.04-.35.08-.69.11-1.04.02-.24,0-.49,0-.75-.38-.06-.72-.09-1.06-.15-.79-.15-1.42-.48-1.52-1.39,0-.05-.02-.1-.04-.14-.08-.14-.19-.23-.36-.15-.02.02-.04.04-.05.06-.03.04-.05.08-.07.13-.21.74-.77,1-1.46,1.07-.68.08-1.34-.04-1.98-.27-.6-.22-1-.63-1.17-1.26-.04-.17-.08-.34-.13-.55-.17-.07-.34-.19-.53-.22-.42-.06-.84-.08-1.27-.1-.22,0-.44.01-.65.14-.19.12-.37.04-.54-.11-.14-.13-.33-.22-.5-.31-.23-.12-.44-.03-.61.13-.1.1-.19.23-.24.37-.31.78.11,1.69.92,1.92.33.1.69.11,1.03.13.46.03.55.11.59.58.01.15.01.3.02.45.03.6.07,1.19.1,1.79.02.41.15.79.44,1.09.8.83,1.59,1.65,2.4,2.47.58.58,1.31.8,2.11.8.15,0,.3,0,.45,0,.15,0,.3.02.44.05.06.01.11.04.16.06-.02.03-.04.07-.06.1-.11.18.04.36.21.38-.02.04-.05.09-.09.13-.36.38-.75.73-1.12,1.1-.12.12-.23.24-.36.37.41.55.78,1.08,1.19,1.58.42.51.8,1.05,1.31,1.47.06-.05.09-.06.09-.08.22-.89.44-1.79.64-2.68.04-.15,0-.35-.08-.5-.19-.4-.42-.79-.76-1.1-.17-.15-.18-.35-.08-.5h0c.11,0,.2-.08.25-.17.12-.03.26,0,.38.11.11.09.21.21.29.34.19.29.33.64.58.87.25.22.61.32.92.48.95.49,1.9.98,2.86,1.47.36.18.72.33,1.08.51.03.02.07.03.1.05-.24-.03-.36.32-.19.48.13.12.23.26.32.41-.09.02-.19,0-.29-.05-.2-.11-.38-.24-.58-.34-1.18-.59-2.36-1.18-3.55-1.77-.13-.06-.25-.18-.46-.08-.03.08-.08.19-.11.3-.2.82-.39,1.65-.58,2.47-.03.15-.06.29-.1.44-.18.63-.55.72-1.02.25-.21-.21-.39-.46-.59-.68-.09-.1-.21-.18-.35-.29-.15.29-.28.53-.41.77-.1.18-.1.37-.06.58.36,1.86.7,3.72,1.04,5.59.29,1.59.61,3.18.88,4.78.32,1.87.62,3.74.93,5.61.08.52.17,1.03.27,1.55.07.39,0,.72-.23,1.06-.51.76-.99,1.56-1.47,2.34-.03.04-.05.09-.08.13-.18.22-.48.23-.63,0-.21-.31-.4-.63-.59-.95-.58-.96-1.18-1.91-1.93-2.75-.06-.07-.1-.17-.17-.27.2-.59.21-1.21.2-1.84,0-1.1,0-2.19,0-3.29,0-1.5.03-3-.03-4.49-.09-2.22-.25-4.43-.39-6.65-.02-.3-.05-.6-.12-.89-.13-.5-.34-.97-.76-1.34-.14.16-.25.3-.36.43-.11.13-.22.27-.35.39-.28.26-.58.29-.87.04-.3-.26-.59-.54-.85-.84-.93-1.07-1.85-2.16-2.77-3.24-.1-.11-.2-.23-.26-.36,0-.02-.02-.04-.02-.07-.02-.09-.01-.2.02-.28.1-.23.37-.29.56-.12.16.15.3.33.45.5.78.94,1.56,1.88,2.35,2.82.27.31.54.65.91.84.75-.65,1.93-2.23,2.14-2.84-.6-.41-1.2-.8-1.79-1.21-.65-.46-1.3-.93-1.93-1.42-.52-.4-1.13-.69-1.51-1.34-.13.21-.24.34-.31.5-.22.45-.42.9-.63,1.35-.06.13-.13.27-.21.39-.11.16-.37.21-.54.11-.04-.02-.07-.06-.1-.1l.35-.02c.35-.02.32-.56-.03-.54h-.25c.36-.73.73-1.46,1.12-2.19.09-.16.29-.27.45-.37.12-.08.26-.11.38-.16.09-1.19.06-3.21-.07-3.81-.67-.3-1.28-.71-1.54-1.48-.27-.8-.1-1.52.33-2.14-.12-.76-.29-1.4-.31-2.04-.04-1.26.25-2.47.79-3.62.35-.75.91-1.3,1.59-1.74.43-.28.91-.4,1.42-.36.19.01.39.08.56.16.03.01.06.04.08.06.12.12.15.32.07.46-.08.16-.24.23-.44.19-.05,0-.1-.02-.14-.05-.33-.16-.63-.07-.93.08-.71.37-1.25.9-1.58,1.63-.32.71-.53,1.45-.62,2.22-.09.85-.05,1.69.26,2.49.26.06.52.07.74.17.44.2.91.2,1.37.24.69.05,1.38.12,2.11.19.62-.93,1.59-.97,2.59-.96-.13-.1-.25-.17-.39-.22ZM102.77,33.34c-.05.49.13.83.55,1.05.5.26,1.05.3,1.62.28.05,0,.13-.01.2-.02.57-.09.77-.32.77-.9,0-.2-.05-.39-.08-.59-.03-.22-.16-.36-.34-.46-.64-.34-1.33-.41-2.03-.23-.44.11-.64.44-.68.88ZM104.83,48.47c.08-.21.17-.41.26-.62.13-.29.28-.58.42-.88-.4-.56-.83-1.07-1.25-1.59-.52.35-.84.74-1.22,1.46.27.51.56,1.03.84,1.56.1.19.18.39.21.61,0,.03,0,.06,0,.1.12,2.37.28,4.73.38,7.1.06,1.37.04,2.74.05,4.12,0,.82.03,1.65.03,2.47,0,.97-.03,1.94-.04,2.92,0,.14,0,.31.07.42.64.94,1.29,1.88,1.94,2.81.19.01.22-.13.29-.23.3-.46.58-.93.89-1.39.18-.27.23-.53.17-.85-.35-2.14-.68-4.28-1.04-6.42-.34-1.99-.71-3.97-1.07-5.96-.24-1.32-.48-2.65-.73-3.97-.05-.27-.09-.55-.22-.79-.07-.13-.1-.24-.1-.36,0-.17.03-.33.1-.49Z"/>
      <path d="M113.34,47.05c.13.12.23.26.32.41.1-.02.18-.08.24-.16.11-.17.08-.41-.08-.54-.08-.07-.18-.13-.28-.18t0,0c-.24-.03-.36.32-.19.48Z"/>
      <path class="cls-6" d="M114.67,47.68c-.2-.19-.29-.44-.45-.65-.18-.22-.37-.36-.64-.45-.01,0-.03,0-.04-.01.1.05.19.11.28.18.16.13.19.37.08.54-.06.09-.14.15-.24.16.2.32.35.66.61.94,0-.05.01-.1.03-.15.06-.15.19-.22.35-.24.03,0,.06,0,.08,0,.05-.1.04-.22-.06-.31Z"/>
      <path d="M114.33,48.45c.25.24.61-.16.37-.4.01-.02.02-.04.03-.06-.03,0-.05,0-.08,0-.16.02-.29.08-.35.24-.02.05-.03.11-.03.15.02.02.04.04.06.06Z"/>
      <path d="M117.41,46.37c.31-.35.24-.7.1-1.08-.42.35-.43.44-.1,1.08ZM122.82,49.91c-.09-1.25-.18-2.49-.29-3.73-.06-.59-.16-1.18-.25-1.78-.06-.44-.31-.71-.73-.85-.65-.21-1.31-.31-1.98-.3-.21,0-.44.09-.63.19-.07.04-.1.22-.09.33,0,.07.12.17.2.18.42.06.84.09,1.26.14.22.03.44.07.66.12.09.02.19.07.27.12.21.13.29.37.21.58-.09.2-.3.26-.57.15-.78-.34-1.58-.37-2.4-.25-.13.25-.12.45.02.67.37.02.74.02,1.11.06.34.04.69.11,1.03.19.21.05.43.13.63.22.17.08.24.29.19.45-.07.19-.29.31-.49.22-.44-.19-.9-.28-1.37-.34-.39-.05-.79-.06-1.18.08-.09.31-.04.56.13.76.65.04,1.27.07,1.89.13.19.02.38.11.54.21.13.08.18.24.11.4-.07.15-.18.25-.35.24-.12,0-.24-.06-.36-.09-.47-.09-.93-.16-1.41-.09-.22.03-.36.15-.39.47.26.15.49.28.73.41.27.16.37.39.3.7-.03.15-.09.28-.13.43-.25.85-.13,1.62.48,2.3.26.29.58.54.67.95.7.14,1.35.27,2.01.39.07.01.15-.02.25-.03.16-.24.11-.51.1-.78-.04-.95-.08-1.89-.15-2.84ZM124.47,56.34c-.03,2.59-.1,5.18-.33,7.77-.1,1.17-.29,2.32-.57,3.46-.18.72-.57,1.24-1.24,1.6-1.06.56-2.18.99-3.32,1.32-.23.07-.5.04-.74,0-.54-.08-.98-.38-1.32-.78-.6-.7-1.17-1.43-1.75-2.15-.18-.23-.36-.47-.54-.7-.04.01-.09.02-.13.04-.01.3-.04.59-.04.89,0,1.1-.01,2.19-.02,3.29,0,.32-.02.65-.04.97,0,.1-.02.2-.05.29-.05.17-.19.27-.36.27.03-.05.06-.1.08-.15.13-.3-.28-.54-.45-.31,0-.11,0-.23,0-.34.02-.75.05-1.5.06-2.24.01-1.25.03-2.49.02-3.74-.02-1.62-.1-3.24-.11-4.86,0-2.52.03-5.04.03-7.56,0-.5.17-.99.02-1.49-.05-.16.12-.34.28-.39.17-.05.3.02.4.14.08.09.13.22.14.33.01.25-.02.5-.03.75-.04.67-.11,1.34-.11,2.01-.02,2.37-.02,4.74,0,7.11,0,1.15.07,2.29.11,3.33.55.75,1.03,1.43,1.53,2.08.49.63,1,1.24,1.52,1.85.47.55,1.07.71,1.75.49.71-.23,1.42-.46,2.09-.79,1.22-.6,1.32-.72,1.63-2.02.45-1.88.61-3.79.71-5.71.05-1.09.08-2.17.11-3.26.01-.56.02-1.12.03-1.68.01-.52.07-1.04-.09-1.54-.57-.28-3.51-.87-4.59-.93-.25.79-.51,2.34-.48,2.98.24.07.49.19.75.23.76.12,1.53.22,2.29.32.25.04.49.07.73.14.23.06.35.25.35.45,0,.04-.01.09-.03.13-.08.25-.38.39-.61.22-.33-.25-.71-.21-1.06-.3-.19-.05-.39-.05-.59-.07-.68-.08-1.37-.17-2.06-.26-.04.17-.08.31-.11.46-.37,1.83-.74,3.66-1.11,5.49-.04.22-.09.44-.15.66-.06.2-.28.31-.47.27-.16-.03-.3-.2-.28-.39.02-.22.07-.44.11-.66.36-1.63.73-3.26,1.09-4.89.08-.39.21-.79.19-1.18-.01-.39-.19-.77-.29-1.15-.03-.12-.06-.24-.1-.36-.65-1.83-1.29-3.67-1.94-5.5-.1-.28-.23-.55-.36-.82-.15-.31-.28-.64-.6-.84-.09-.06-.13-.15-.14-.25.02.02.04.04.06.06.25.24.61-.16.37-.4.01-.02.02-.04.03-.06.18,0,.34.07.45.22.12.16.23.33.31.51.27.62.56,1.22.79,1.85.52,1.4,1,2.82,1.5,4.22.05.13.13.26.25.51.08-.81.39-1.46.09-2.16-.06-.15.11-.36.29-.37.17-.01.34,0,.52.02.11.01.23.03.42.06-.14-.22-.22-.37-.32-.5-.37-.48-.5-1.03-.48-1.61,0-.3.07-.59.1-.89.01-.14.02-.29.03-.41-1.06-.7-1.07-.71-.9-1.65-.72-.42-.97-.74-1.26-1.31-.36-.7-.01-1.86.92-2.01.28-.04.43-.22.59-.43,0-.16,0-.34,0-.51.02-.45.25-.75.68-.88.19-.06.39-.1.58-.12.86-.08,1.69.07,2.51.31.14.04.28.11.41.17.43.21.7.56.79,1.03.08.44.17.88.21,1.33.25,2.78.51,5.56.55,8.35.62.27.86.73.78,1.38-.05.42-.08.84-.08,1.27Z"/>
    </g>
    <circle class="cls-10" cx="37.84" cy="123.63" r="17.7"/>
    <circle class="cls-10" cx="78.3" cy="119.31" r="17.7"/>
    <circle class="cls-10" cx="118.75" cy="115" r="17.7"/>
    <g>
      <path class="cls-1" d="M17.43,89.28c3.1-1.24,6.21-2.46,9.34-3.66.31.76.61,1.52.91,2.28-3.12,1.19-6.22,2.41-9.31,3.64-.31-.75-.63-1.51-.94-2.26ZM19.45,84.84c.84-.33,1.68-.66,2.52-.99.57,1.38,1.14,2.77,1.7,4.15-.84.33-1.67.65-2.5.98-.57-1.38-1.14-2.76-1.72-4.14ZM19.99,89.66c.8-.32,1.6-.63,2.4-.94.69,1.69,1.38,3.38,2.06,5.07.45,1.1.82,2.25,1.13,3.44.31,1.19.46,2.41.45,3.65,0,1.24-.26,2.52-.75,3.84-.31-.18-.7-.35-1.18-.51-.48-.16-.9-.29-1.27-.38.4-1.14.59-2.24.58-3.31-.01-1.06-.15-2.08-.42-3.06-.27-.98-.58-1.9-.93-2.77-.68-1.67-1.37-3.35-2.06-5.02ZM22.71,92.14c1.17-.46,2.35-.92,3.52-1.37.3.74.6,1.49.89,2.23-1.17.45-2.34.91-3.51,1.37-.3-.74-.6-1.49-.91-2.23ZM25.41,91.09c.79-.31,1.58-.61,2.37-.92.1.25.18.45.24.61.06.16.11.29.13.39.64,1.66,1.17,3.07,1.59,4.24.42,1.17.75,2.15.99,2.93.24.78.41,1.41.49,1.88.09.47.1.82.03,1.05-.09.38-.22.67-.38.88-.17.21-.39.39-.67.57-.23.14-.54.29-.93.45-.39.17-.8.33-1.25.49-.16-.32-.37-.67-.65-1.05-.28-.38-.57-.69-.87-.94.34-.1.65-.2.93-.3.28-.1.5-.18.66-.25.14-.04.25-.1.32-.18.07-.08.12-.2.16-.36.04-.21-.02-.62-.19-1.23-.17-.61-.48-1.54-.93-2.8-.45-1.25-1.07-2.92-1.87-4.99-.06-.16-.13-.31-.19-.47ZM27.75,81.61c.93-.2,1.87-.4,2.8-.6.32,1.45.55,2.9.7,4.33.15,1.43.19,2.79.12,4.07-.07,1.28-.26,2.45-.57,3.49-.19-.08-.46-.18-.8-.29-.34-.11-.69-.22-1.06-.32-.36-.1-.67-.18-.92-.24.32-.93.51-1.95.57-3.08.05-1.12,0-2.31-.15-3.57-.15-1.26-.39-2.52-.7-3.79ZM31.02,86.82c1.03,1.63,2.13,3.08,3.31,4.37,1.17,1.29,2.45,2.33,3.84,3.11,1.39.78,2.9,1.23,4.55,1.36-.14.22-.27.5-.39.83-.12.33-.24.67-.34,1.01-.1.34-.18.65-.22.91-1.79-.24-3.43-.81-4.91-1.73-1.48-.92-2.87-2.12-4.15-3.61-1.29-1.49-2.53-3.17-3.73-5.06.68-.4,1.37-.8,2.05-1.2ZM29.04,85.44c2.79-1.05,5.58-2.09,8.39-3.1.29.76.59,1.53.88,2.29-2.8,1.01-5.59,2.05-8.37,3.1-.3-.76-.6-1.52-.91-2.28ZM33.96,85.18c.87-.23,1.74-.45,2.61-.68.55,2.45.83,4.69.84,6.72.01,2.03-.3,3.91-.93,5.63-.64,1.72-1.65,3.34-3.04,4.86-.14-.15-.34-.33-.61-.54-.27-.21-.55-.42-.84-.62-.29-.21-.54-.36-.75-.47,1.29-1.3,2.22-2.69,2.79-4.17.57-1.48.84-3.11.8-4.88-.04-1.77-.32-3.71-.86-5.84Z"/>
      <path class="cls-1" d="M44.91,89.78c.24-.09.51-.2.81-.33.31-.13.57-.25.81-.35.25-.12.59-.29,1.02-.49.42-.2.9-.41,1.41-.63.52-.22,1.04-.41,1.58-.58.53-.17,1.05-.3,1.54-.37.84-.12,1.6-.07,2.28.14.68.22,1.24.59,1.67,1.11.43.52.71,1.18.82,1.97.1.71.03,1.37-.19,2-.23.62-.63,1.2-1.2,1.72-.57.53-1.31.99-2.21,1.4-.9.41-1.97.75-3.21,1.01-.38-.6-.75-1.19-1.13-1.79.9-.16,1.73-.36,2.47-.61.74-.25,1.38-.54,1.91-.87.53-.34.92-.72,1.17-1.16.25-.44.34-.92.27-1.44-.06-.39-.2-.73-.43-1-.23-.27-.53-.46-.89-.58-.36-.12-.78-.14-1.25-.08-.37.05-.78.16-1.22.32-.44.16-.89.35-1.35.57-.46.22-.91.44-1.35.68-.44.24-.85.46-1.23.68-.38.22-.69.4-.94.56-.38-.63-.77-1.26-1.15-1.89Z"/>
      <path class="cls-1" d="M61.6,83.81c.65-.08,1.33-.2,2.03-.35.7-.15,1.4-.33,2.11-.53.71-.2,1.4-.42,2.09-.66.08.65.16,1.3.25,1.95-.65.22-1.34.43-2.08.63-.74.2-1.47.37-2.19.52-.72.15-1.39.26-2,.34-.38.05-.73.09-1.05.11-.31.03-.61.05-.9.08-.11-.65-.21-1.29-.32-1.94.42-.01.79-.03,1.09-.05.3-.02.62-.05.95-.09ZM65.41,80.97c-.04.22-.07.48-.09.79-.03.31-.04.55-.05.72-.03.36-.07.81-.11,1.33-.05.52-.1,1.08-.16,1.67-.06.59-.12,1.15-.2,1.69-.07.57-.16,1.19-.28,1.85-.12.67-.25,1.34-.39,2.03-.14.69-.29,1.35-.44,1.98-.16.63-.31,1.19-.47,1.69-.77-.15-1.53-.3-2.3-.45.18-.43.36-.94.55-1.54.19-.6.36-1.24.52-1.93.16-.69.31-1.37.43-2.04.13-.67.23-1.29.3-1.86.06-.38.11-.76.16-1.16.04-.4.08-.78.11-1.16.03-.37.05-.72.07-1.05.02-.32.02-.61.03-.85,0-.3-.02-.59-.05-.88-.03-.29-.06-.53-.11-.7.83-.04,1.67-.08,2.5-.12ZM68.32,89.4c-.04.23-.06.46-.08.7-.01.24,0,.45.01.62.02.17.08.32.17.45.09.14.22.25.4.34.17.09.4.15.69.18.29.03.64.02,1.07-.03.54-.06,1.08-.15,1.62-.27.54-.12,1.09-.26,1.65-.43.05.67.1,1.34.15,2.01-.44.1-.93.21-1.46.31-.54.11-1.12.2-1.75.27-1.33.15-2.38.06-3.13-.29-.76-.35-1.19-.91-1.29-1.71-.04-.35-.06-.72-.04-1.09.02-.37.04-.72.06-1.04.64-.01,1.28-.03,1.92-.04ZM66.96,85.56c.44-.1.94-.19,1.48-.29.54-.1,1.07-.17,1.59-.23.46-.05.93-.1,1.41-.13.48-.03.96-.05,1.44-.05.06.63.11,1.25.17,1.88-.4,0-.84,0-1.32.01-.48.02-.97.05-1.46.11-.55.06-1.07.14-1.57.22-.5.09-1,.19-1.5.31-.08-.61-.16-1.23-.23-1.84Z"/>
      <path class="cls-1" d="M79.77,82.44c-.03.21-.06.49-.08.82-.02.34-.05.68-.06,1.04-.02.36-.03.7-.04,1.03-.01.33-.02.6-.03.83.67-.58,1.4-1.04,2.18-1.35.77-.32,1.58-.52,2.42-.6.95-.09,1.77,0,2.47.28.7.27,1.25.67,1.65,1.18.4.51.63,1.09.69,1.72.06.71-.03,1.38-.28,2.02-.25.63-.71,1.19-1.38,1.68-.66.49-1.55.88-2.67,1.16-1.12.28-2.51.44-4.18.47-.27-.66-.55-1.33-.82-1.99,1.62.05,2.96-.05,4.03-.31,1.07-.25,1.87-.63,2.38-1.14.52-.51.75-1.09.68-1.74-.03-.34-.16-.64-.39-.89-.23-.25-.53-.43-.91-.55-.38-.12-.8-.15-1.26-.11-.9.08-1.73.32-2.48.72-.75.4-1.35.92-1.79,1.56-.12.18-.22.35-.3.5-.08.15-.14.31-.2.47-.63-.09-1.26-.18-1.89-.26.03-.31.06-.67.07-1.09.02-.42.04-.87.05-1.35.01-.48.02-.96.02-1.45,0-.48,0-.96-.01-1.44,0-.47-.02-.9-.04-1.29.73.02,1.47.05,2.2.08ZM79.34,79.31c.4.08.9.15,1.5.22.6.07,1.22.13,1.87.19.65.06,1.27.11,1.84.14.58.03,1.05.05,1.41.06-.1.65-.2,1.3-.3,1.95-.33-.01-.72-.04-1.19-.07-.47-.03-.96-.08-1.48-.12-.52-.05-1.04-.09-1.55-.14-.51-.05-.97-.1-1.39-.16-.42-.05-.76-.1-1.03-.13.11-.64.21-1.29.32-1.93Z"/>
      <path class="cls-1" d="M91.4,81.69c.29,0,.58-.02.86-.05.28-.03.57-.06.87-.09.26-.03.58-.07.96-.13.38-.05.79-.11,1.21-.18.43-.06.85-.13,1.28-.2.43-.07.83-.13,1.2-.17.37-.05.67-.08.91-.1.58-.04,1.09.02,1.54.17.45.15.82.44,1.11.86.29.42.46,1.01.51,1.76.04.62.06,1.29.05,2.02,0,.73-.05,1.42-.13,2.09-.08.67-.22,1.24-.43,1.72-.22.56-.54.96-.97,1.2-.43.24-.95.38-1.55.42-.31.02-.64.02-.99,0-.35-.02-.67-.05-.95-.08-.17-.68-.34-1.36-.52-2.05.22.04.46.07.71.11.26.03.5.06.73.07.23.02.42.02.56,0,.27-.02.5-.08.7-.2.2-.11.35-.3.46-.56.13-.31.22-.71.27-1.2.05-.49.09-1.01.09-1.58,0-.56,0-1.1-.05-1.61-.03-.42-.11-.72-.25-.91-.13-.19-.32-.31-.56-.36-.24-.05-.53-.06-.88-.04-.24.02-.57.06-.99.13-.42.07-.87.14-1.34.23-.47.08-.91.17-1.32.25-.41.08-.73.15-.95.18-.22.06-.51.13-.87.2-.36.07-.66.14-.9.21-.13-.71-.25-1.41-.38-2.12ZM97.74,77.97c-.04.2-.07.42-.1.66-.03.24-.06.46-.09.66-.03.23-.06.5-.1.79-.04.29-.08.58-.12.88-.04.29-.08.58-.12.85-.07.46-.17.99-.28,1.6-.11.61-.25,1.26-.41,1.96-.16.7-.35,1.41-.56,2.12-.21.71-.44,1.4-.69,2.08-.24.68-.52,1.29-.82,1.84-.72-.22-1.43-.44-2.15-.65.33-.52.63-1.1.91-1.74.27-.64.52-1.29.73-1.96.21-.67.4-1.32.56-1.97.16-.64.29-1.24.4-1.8.11-.55.19-1.03.24-1.42.09-.72.15-1.42.19-2.08.03-.66.02-1.29-.04-1.87.82.02,1.64.04,2.45.06ZM103.46,79.07c.29.32.58.72.9,1.22.31.49.62,1.01.92,1.56.3.55.58,1.08.84,1.59.26.51.46.95.6,1.31-.67.35-1.33.7-1.99,1.05-.14-.43-.32-.91-.54-1.44-.23-.53-.48-1.06-.76-1.61-.28-.54-.58-1.06-.89-1.54-.31-.48-.63-.88-.95-1.2.63-.31,1.25-.62,1.88-.93Z"/>
      <path class="cls-1" d="M112.61,77.03c-.03.33-.05.68-.06,1.06-.02.38-.03.73-.03,1.04.01.43.02.95.03,1.57,0,.61.02,1.26.04,1.93.02.67.04,1.33.06,1.98.02.65.04,1.22.07,1.7.03.52.15.93.37,1.23.22.3.49.51.83.62.34.12.72.16,1.14.14.67-.03,1.27-.14,1.81-.34.54-.2,1.03-.45,1.47-.76.44-.31.83-.67,1.17-1.07.34-.4.65-.82.93-1.26.52.56,1.03,1.12,1.55,1.68-.24.39-.57.8-.97,1.23-.4.44-.89.85-1.44,1.23-.56.39-1.21.71-1.95.98-.74.26-1.57.41-2.48.45-.88.04-1.65-.06-2.31-.29-.66-.24-1.19-.62-1.58-1.17-.39-.54-.61-1.26-.66-2.15-.02-.43-.05-.92-.07-1.47-.02-.55-.04-1.13-.05-1.72-.01-.6-.03-1.18-.05-1.76-.02-.57-.04-1.09-.06-1.55-.02-.46-.03-.83-.05-1.1-.02-.38-.06-.75-.12-1.11-.06-.36-.13-.69-.23-1,.88-.04,1.76-.07,2.64-.1Z"/>
      <path class="cls-1" d="M132.71,78.08c-.09.8-.21,1.65-.36,2.56-.15.9-.36,1.82-.63,2.75-.29,1.07-.63,1.98-1.03,2.76-.4.77-.85,1.37-1.34,1.8-.49.42-1.03.65-1.62.66-.59.01-1.14-.17-1.66-.55-.52-.38-.93-.91-1.25-1.59-.32-.68-.5-1.47-.53-2.35-.03-.91.12-1.78.47-2.6.35-.82.85-1.55,1.52-2.19.66-.64,1.44-1.15,2.34-1.53.9-.38,1.89-.58,2.95-.6,1.02-.02,1.94.12,2.77.43.82.3,1.53.73,2.13,1.28.59.55,1.05,1.2,1.37,1.94.32.74.48,1.54.5,2.4.02,1.1-.2,2.09-.65,2.97-.45.87-1.13,1.6-2.03,2.18-.9.58-2.03.98-3.38,1.22-.42-.62-.84-1.23-1.26-1.85.31-.04.59-.08.82-.13.24-.05.46-.1.68-.15.52-.13.99-.32,1.44-.57.44-.24.83-.54,1.16-.9.33-.36.58-.77.77-1.25.18-.47.26-.99.25-1.56-.01-.62-.12-1.18-.33-1.7-.21-.51-.51-.96-.9-1.33-.39-.38-.86-.66-1.41-.86-.55-.2-1.18-.29-1.89-.27-.88.02-1.64.18-2.3.5-.66.31-1.21.71-1.65,1.2-.44.48-.77,1-.99,1.55-.22.55-.31,1.08-.3,1.57.02.52.1.96.24,1.31.14.35.31.61.5.77.19.17.4.25.62.24.23,0,.45-.12.66-.35.21-.23.42-.58.63-1.05.2-.47.4-1.05.6-1.76.23-.76.42-1.57.57-2.44.15-.87.25-1.71.3-2.53.75,0,1.49.01,2.24.02Z"/>
    </g>
    <text class="cls-2" transform="translate(27.78 169.58) rotate(-6.09)"><tspan class="cls-15" x="0" y="0">買</tspan><tspan class="cls-7" x="25.35" y="-1.26">いま</tspan><tspan class="cls-8" x="69.4" y="-1.26">す</tspan><tspan class="cls-7" x="93.85" y="-1.26">!!</tspan></text>
    <text class="cls-4" transform="translate(27.17 132.57) rotate(-6.09)"><tspan x="0" y="0">空</tspan></text>
    <text class="cls-3" transform="translate(68.44 128.73) rotate(-6.09)"><tspan x="0" y="0">き</tspan></text>
    <text class="cls-4" transform="translate(107.92 124.62) rotate(-6.09)"><tspan x="0" y="0">家</tspan></text>
    <g>
      <polygon class="cls-14" points="141.5 143.24 147.92 132.04 153.26 137.9 141.5 143.24"/>
      <polygon class="cls-14" points="144 148.91 153.68 144.75 154.38 150.76 144 148.91"/>
      <polygon class="cls-14" points="138.3 141.39 133.77 130.97 139.94 130.15 138.3 141.39"/>
    </g>
    <g>
      <polygon class="cls-14" points="12.84 90.84 0 92.22 1.61 84.46 12.84 90.84"/>
      <polygon class="cls-14" points="15.96 85.49 6.9 80.1 11.36 76 15.96 85.49"/>
      <polygon class="cls-14" points="13.22 94.52 7.45 104.3 3.16 99.8 13.22 94.52"/>
    </g>
  </g>
</svg>